<?xml version="1.0" encoding="utf-8"?>
<svg xmlns="http://www.w3.org/2000/svg" xmlns:xlink="http://www.w3.org/1999/xlink" width="800" height="500" viewBox="0 0 3200 2000">
<defs>
  <clipPath id="clip200">
    <rect x="0" y="0" width="3200" height="2000"/>
  </clipPath>
</defs>
<path clip-path="url(#clip200)" d="M0 2000 L3200 2000 L3200 0 L0 0  Z" fill="#ffffff" fill-rule="evenodd" fill-opacity="1"/>
<defs>
  <clipPath id="clip201">
    <rect x="155" y="47" width="2999" height="1838"/>
  </clipPath>
</defs>
<path clip-path="url(#clip200)" d="M155.108 1884.61 L3152.76 1884.61 L3152.76 47.2441 L155.108 47.2441  Z" fill="#ffffff" fill-rule="evenodd" fill-opacity="1"/>
<polyline clip-path="url(#clip201)" style="stroke:#000000; stroke-linecap:round; stroke-linejoin:round; stroke-width:2; stroke-opacity:0.1; fill:none" points="155.108,1884.61 155.108,47.2441 "/>
<polyline clip-path="url(#clip201)" style="stroke:#000000; stroke-linecap:round; stroke-linejoin:round; stroke-width:2; stroke-opacity:0.1; fill:none" points="786.191,1884.61 786.191,47.2441 "/>
<polyline clip-path="url(#clip201)" style="stroke:#000000; stroke-linecap:round; stroke-linejoin:round; stroke-width:2; stroke-opacity:0.1; fill:none" points="1417.28,1884.61 1417.28,47.2441 "/>
<polyline clip-path="url(#clip201)" style="stroke:#000000; stroke-linecap:round; stroke-linejoin:round; stroke-width:2; stroke-opacity:0.1; fill:none" points="2048.36,1884.61 2048.36,47.2441 "/>
<polyline clip-path="url(#clip201)" style="stroke:#000000; stroke-linecap:round; stroke-linejoin:round; stroke-width:2; stroke-opacity:0.1; fill:none" points="2679.44,1884.61 2679.44,47.2441 "/>
<polyline clip-path="url(#clip201)" style="stroke:#000000; stroke-linecap:round; stroke-linejoin:round; stroke-width:2; stroke-opacity:0.1; fill:none" points="155.108,1558.92 3152.76,1558.92 "/>
<polyline clip-path="url(#clip201)" style="stroke:#000000; stroke-linecap:round; stroke-linejoin:round; stroke-width:2; stroke-opacity:0.1; fill:none" points="155.108,1194 3152.76,1194 "/>
<polyline clip-path="url(#clip201)" style="stroke:#000000; stroke-linecap:round; stroke-linejoin:round; stroke-width:2; stroke-opacity:0.1; fill:none" points="155.108,829.082 3152.76,829.082 "/>
<polyline clip-path="url(#clip201)" style="stroke:#000000; stroke-linecap:round; stroke-linejoin:round; stroke-width:2; stroke-opacity:0.1; fill:none" points="155.108,464.163 3152.76,464.163 "/>
<polyline clip-path="url(#clip201)" style="stroke:#000000; stroke-linecap:round; stroke-linejoin:round; stroke-width:2; stroke-opacity:0.1; fill:none" points="155.108,99.245 3152.76,99.245 "/>
<polyline clip-path="url(#clip200)" style="stroke:#000000; stroke-linecap:round; stroke-linejoin:round; stroke-width:4; stroke-opacity:1; fill:none" points="155.108,1884.61 3152.76,1884.61 "/>
<polyline clip-path="url(#clip200)" style="stroke:#000000; stroke-linecap:round; stroke-linejoin:round; stroke-width:4; stroke-opacity:1; fill:none" points="155.108,1884.61 155.108,1865.71 "/>
<polyline clip-path="url(#clip200)" style="stroke:#000000; stroke-linecap:round; stroke-linejoin:round; stroke-width:4; stroke-opacity:1; fill:none" points="786.191,1884.61 786.191,1865.71 "/>
<polyline clip-path="url(#clip200)" style="stroke:#000000; stroke-linecap:round; stroke-linejoin:round; stroke-width:4; stroke-opacity:1; fill:none" points="1417.28,1884.61 1417.28,1865.71 "/>
<polyline clip-path="url(#clip200)" style="stroke:#000000; stroke-linecap:round; stroke-linejoin:round; stroke-width:4; stroke-opacity:1; fill:none" points="2048.36,1884.61 2048.36,1865.71 "/>
<polyline clip-path="url(#clip200)" style="stroke:#000000; stroke-linecap:round; stroke-linejoin:round; stroke-width:4; stroke-opacity:1; fill:none" points="2679.44,1884.61 2679.44,1865.71 "/>
<path clip-path="url(#clip200)" d="M155.108 1921.93 Q151.496 1921.93 149.668 1925.49 Q147.862 1929.03 147.862 1936.16 Q147.862 1943.27 149.668 1946.83 Q151.496 1950.38 155.108 1950.38 Q158.742 1950.38 160.547 1946.83 Q162.376 1943.27 162.376 1936.16 Q162.376 1929.03 160.547 1925.49 Q158.742 1921.93 155.108 1921.93 M155.108 1918.22 Q160.918 1918.22 163.973 1922.83 Q167.052 1927.41 167.052 1936.16 Q167.052 1944.89 163.973 1949.5 Q160.918 1954.08 155.108 1954.08 Q149.297 1954.08 146.219 1949.5 Q143.163 1944.89 143.163 1936.16 Q143.163 1927.41 146.219 1922.83 Q149.297 1918.22 155.108 1918.22 Z" fill="#000000" fill-rule="nonzero" fill-opacity="1" /><path clip-path="url(#clip200)" d="M780.844 1949.47 L797.164 1949.47 L797.164 1953.41 L775.219 1953.41 L775.219 1949.47 Q777.881 1946.72 782.465 1942.09 Q787.071 1937.44 788.252 1936.09 Q790.497 1933.57 791.377 1931.83 Q792.279 1930.07 792.279 1928.38 Q792.279 1925.63 790.335 1923.89 Q788.414 1922.16 785.312 1922.16 Q783.113 1922.16 780.659 1922.92 Q778.228 1923.69 775.451 1925.24 L775.451 1920.51 Q778.275 1919.38 780.728 1918.8 Q783.182 1918.22 785.219 1918.22 Q790.59 1918.22 793.784 1920.91 Q796.978 1923.59 796.978 1928.08 Q796.978 1930.21 796.168 1932.13 Q795.381 1934.03 793.275 1936.63 Q792.696 1937.3 789.594 1940.51 Q786.492 1943.71 780.844 1949.47 Z" fill="#000000" fill-rule="nonzero" fill-opacity="1" /><path clip-path="url(#clip200)" d="M1420.28 1922.92 L1408.48 1941.37 L1420.28 1941.37 L1420.28 1922.92 M1419.06 1918.85 L1424.94 1918.85 L1424.94 1941.37 L1429.87 1941.37 L1429.87 1945.26 L1424.94 1945.26 L1424.94 1953.41 L1420.28 1953.41 L1420.28 1945.26 L1404.68 1945.26 L1404.68 1940.75 L1419.06 1918.85 Z" fill="#000000" fill-rule="nonzero" fill-opacity="1" /><path clip-path="url(#clip200)" d="M2048.76 1934.26 Q2045.62 1934.26 2043.76 1936.42 Q2041.94 1938.57 2041.94 1942.32 Q2041.94 1946.05 2043.76 1948.22 Q2045.62 1950.38 2048.76 1950.38 Q2051.91 1950.38 2053.74 1948.22 Q2055.59 1946.05 2055.59 1942.32 Q2055.59 1938.57 2053.74 1936.42 Q2051.91 1934.26 2048.76 1934.26 M2058.05 1919.61 L2058.05 1923.87 Q2056.29 1923.04 2054.48 1922.6 Q2052.7 1922.16 2050.94 1922.16 Q2046.31 1922.16 2043.86 1925.28 Q2041.43 1928.41 2041.08 1934.73 Q2042.44 1932.71 2044.5 1931.65 Q2046.57 1930.56 2049.04 1930.56 Q2054.25 1930.56 2057.26 1933.73 Q2060.29 1936.88 2060.29 1942.32 Q2060.29 1947.64 2057.14 1950.86 Q2054 1954.08 2048.76 1954.08 Q2042.77 1954.08 2039.6 1949.5 Q2036.43 1944.89 2036.43 1936.16 Q2036.43 1927.97 2040.32 1923.11 Q2044.2 1918.22 2050.75 1918.22 Q2052.51 1918.22 2054.3 1918.57 Q2056.1 1918.92 2058.05 1919.61 Z" fill="#000000" fill-rule="nonzero" fill-opacity="1" /><path clip-path="url(#clip200)" d="M2679.44 1937 Q2676.11 1937 2674.19 1938.78 Q2672.29 1940.56 2672.29 1943.69 Q2672.29 1946.81 2674.19 1948.59 Q2676.11 1950.38 2679.44 1950.38 Q2682.78 1950.38 2684.7 1948.59 Q2686.62 1946.79 2686.62 1943.69 Q2686.62 1940.56 2684.7 1938.78 Q2682.8 1937 2679.44 1937 M2674.77 1935.01 Q2671.76 1934.26 2670.07 1932.2 Q2668.4 1930.14 2668.4 1927.18 Q2668.4 1923.04 2671.34 1920.63 Q2674.3 1918.22 2679.44 1918.22 Q2684.61 1918.22 2687.54 1920.63 Q2690.48 1923.04 2690.48 1927.18 Q2690.48 1930.14 2688.79 1932.2 Q2687.13 1934.26 2684.14 1935.01 Q2687.52 1935.79 2689.4 1938.08 Q2691.29 1940.38 2691.29 1943.69 Q2691.29 1948.71 2688.22 1951.39 Q2685.16 1954.08 2679.44 1954.08 Q2673.73 1954.08 2670.65 1951.39 Q2667.59 1948.71 2667.59 1943.69 Q2667.59 1940.38 2669.49 1938.08 Q2671.39 1935.79 2674.77 1935.01 M2673.05 1927.62 Q2673.05 1930.31 2674.72 1931.81 Q2676.41 1933.32 2679.44 1933.32 Q2682.45 1933.32 2684.14 1931.81 Q2685.86 1930.31 2685.86 1927.62 Q2685.86 1924.94 2684.14 1923.43 Q2682.45 1921.93 2679.44 1921.93 Q2676.41 1921.93 2674.72 1923.43 Q2673.05 1924.94 2673.05 1927.62 Z" fill="#000000" fill-rule="nonzero" fill-opacity="1" /><polyline clip-path="url(#clip200)" style="stroke:#000000; stroke-linecap:round; stroke-linejoin:round; stroke-width:4; stroke-opacity:1; fill:none" points="155.108,1884.61 155.108,47.2441 "/>
<polyline clip-path="url(#clip200)" style="stroke:#000000; stroke-linecap:round; stroke-linejoin:round; stroke-width:4; stroke-opacity:1; fill:none" points="155.108,1558.92 174.005,1558.92 "/>
<polyline clip-path="url(#clip200)" style="stroke:#000000; stroke-linecap:round; stroke-linejoin:round; stroke-width:4; stroke-opacity:1; fill:none" points="155.108,1194 174.005,1194 "/>
<polyline clip-path="url(#clip200)" style="stroke:#000000; stroke-linecap:round; stroke-linejoin:round; stroke-width:4; stroke-opacity:1; fill:none" points="155.108,829.082 174.005,829.082 "/>
<polyline clip-path="url(#clip200)" style="stroke:#000000; stroke-linecap:round; stroke-linejoin:round; stroke-width:4; stroke-opacity:1; fill:none" points="155.108,464.163 174.005,464.163 "/>
<polyline clip-path="url(#clip200)" style="stroke:#000000; stroke-linecap:round; stroke-linejoin:round; stroke-width:4; stroke-opacity:1; fill:none" points="155.108,99.245 174.005,99.245 "/>
<path clip-path="url(#clip200)" d="M46.9921 1559.37 L76.6679 1559.37 L76.6679 1563.3 L46.9921 1563.3 L46.9921 1559.37 Z" fill="#000000" fill-rule="nonzero" fill-opacity="1" /><path clip-path="url(#clip200)" d="M90.7882 1572.26 L107.108 1572.26 L107.108 1576.2 L85.1632 1576.2 L85.1632 1572.26 Q87.8252 1569.51 92.4085 1564.88 Q97.015 1560.23 98.1956 1558.88 Q100.441 1556.36 101.321 1554.62 Q102.223 1552.87 102.223 1551.18 Q102.223 1548.42 100.279 1546.68 Q98.3576 1544.95 95.2558 1544.95 Q93.0567 1544.95 90.603 1545.71 Q88.1725 1546.48 85.3947 1548.03 L85.3947 1543.3 Q88.2188 1542.17 90.6724 1541.59 Q93.1261 1541.01 95.1632 1541.01 Q100.534 1541.01 103.728 1543.7 Q106.922 1546.38 106.922 1550.87 Q106.922 1553 106.112 1554.93 Q105.325 1556.82 103.219 1559.42 Q102.64 1560.09 99.5381 1563.3 Q96.4363 1566.5 90.7882 1572.26 Z" fill="#000000" fill-rule="nonzero" fill-opacity="1" /><path clip-path="url(#clip200)" d="M95.1632 1179.8 Q91.5521 1179.8 89.7234 1183.36 Q87.9178 1186.91 87.9178 1194.03 Q87.9178 1201.14 89.7234 1204.71 Q91.5521 1208.25 95.1632 1208.25 Q98.7974 1208.25 100.603 1204.71 Q102.432 1201.14 102.432 1194.03 Q102.432 1186.91 100.603 1183.36 Q98.7974 1179.8 95.1632 1179.8 M95.1632 1176.09 Q100.973 1176.09 104.029 1180.7 Q107.108 1185.28 107.108 1194.03 Q107.108 1202.76 104.029 1207.37 Q100.973 1211.95 95.1632 1211.95 Q89.353 1211.95 86.2743 1207.37 Q83.2188 1202.76 83.2188 1194.03 Q83.2188 1185.28 86.2743 1180.7 Q89.353 1176.09 95.1632 1176.09 Z" fill="#000000" fill-rule="nonzero" fill-opacity="1" /><path clip-path="url(#clip200)" d="M90.7882 842.426 L107.108 842.426 L107.108 846.362 L85.1632 846.362 L85.1632 842.426 Q87.8252 839.672 92.4085 835.042 Q97.015 830.389 98.1956 829.047 Q100.441 826.524 101.321 824.788 Q102.223 823.028 102.223 821.339 Q102.223 818.584 100.279 816.848 Q98.3576 815.112 95.2558 815.112 Q93.0567 815.112 90.603 815.876 Q88.1725 816.64 85.3947 818.19 L85.3947 813.468 Q88.2188 812.334 90.6724 811.755 Q93.1261 811.177 95.1632 811.177 Q100.534 811.177 103.728 813.862 Q106.922 816.547 106.922 821.038 Q106.922 823.167 106.112 825.089 Q105.325 826.987 103.219 829.579 Q102.64 830.251 99.5381 833.468 Q96.4363 836.663 90.7882 842.426 Z" fill="#000000" fill-rule="nonzero" fill-opacity="1" /><path clip-path="url(#clip200)" d="M97.5243 450.957 L85.7188 469.406 L97.5243 469.406 L97.5243 450.957 M96.2974 446.883 L102.177 446.883 L102.177 469.406 L107.108 469.406 L107.108 473.295 L102.177 473.295 L102.177 481.443 L97.5243 481.443 L97.5243 473.295 L81.9225 473.295 L81.9225 468.781 L96.2974 446.883 Z" fill="#000000" fill-rule="nonzero" fill-opacity="1" /><path clip-path="url(#clip200)" d="M95.5798 97.3815 Q92.4317 97.3815 90.5799 99.5343 Q88.7512 101.687 88.7512 105.437 Q88.7512 109.164 90.5799 111.34 Q92.4317 113.493 95.5798 113.493 Q98.728 113.493 100.557 111.34 Q102.408 109.164 102.408 105.437 Q102.408 101.687 100.557 99.5343 Q98.728 97.3815 95.5798 97.3815 M104.862 82.7288 L104.862 86.9881 Q103.103 86.1547 101.297 85.7149 Q99.515 85.2751 97.7557 85.2751 Q93.1261 85.2751 90.6724 88.4001 Q88.2419 91.5251 87.8947 97.8445 Q89.2604 95.8306 91.3206 94.7658 Q93.3808 93.6779 95.8576 93.6779 Q101.066 93.6779 104.075 96.8491 Q107.108 99.9973 107.108 105.437 Q107.108 110.761 103.959 113.979 Q100.811 117.196 95.5798 117.196 Q89.5845 117.196 86.4132 112.613 Q83.2419 108.006 83.2419 99.2797 Q83.2419 91.0853 87.1308 86.2242 Q91.0197 81.34 97.5706 81.34 Q99.3298 81.34 101.112 81.6872 Q102.918 82.0344 104.862 82.7288 Z" fill="#000000" fill-rule="nonzero" fill-opacity="1" /><polyline clip-path="url(#clip201)" style="stroke:#009af9; stroke-linecap:round; stroke-linejoin:round; stroke-width:4; stroke-opacity:1; fill:none" points="155.108,99.245 186.054,117.14 367.307,221.947 451.626,270.704 564.645,336.056 658.033,390.057 744.875,440.272 853.891,503.31 951.679,559.855 1063.61,624.579 1147.28,672.959 1254.29,734.839 1351.97,791.317 1463.13,855.597 1551.25,906.552 1660.73,969.858 1744.57,1018.34 1862.78,1086.69 1951.12,1137.77 2051.57,1195.86 2151.06,1253.39 2260.51,1316.68 2344.12,1365.02 2449.62,1426.02 2547.19,1482.45 2647.83,1540.64 2749.83,1599.62 2856.34,1661.21 2940.24,1709.72 3131.32,1820.21 3152.76,1832.61 "/>
<polyline clip-path="url(#clip201)" style="stroke:#000000; stroke-linecap:round; stroke-linejoin:round; stroke-width:4; stroke-opacity:1; fill:none" stroke-dasharray="16, 10" points="155.108,1194 3310.53,1194 "/>
<circle clip-path="url(#clip201)" cx="2048.36" cy="1194" r="14.4" fill="#ff0000" fill-rule="evenodd" fill-opacity="1" stroke="#000000" stroke-opacity="1" stroke-width="4"/>
<path clip-path="url(#clip200)" d="M2428.4 264.01 L3052.83 264.01 L3052.83 108.49 L2428.4 108.49  Z" fill="#ffffff" fill-rule="evenodd" fill-opacity="1"/>
<polyline clip-path="url(#clip200)" style="stroke:#000000; stroke-linecap:round; stroke-linejoin:round; stroke-width:4; stroke-opacity:1; fill:none" points="2428.4,264.01 3052.83,264.01 3052.83,108.49 2428.4,108.49 2428.4,264.01 "/>
<polyline clip-path="url(#clip200)" style="stroke:#009af9; stroke-linecap:round; stroke-linejoin:round; stroke-width:4; stroke-opacity:1; fill:none" points="2461.7,160.33 2661.55,160.33 "/>
<path clip-path="url(#clip200)" d="M2717.1 144.184 L2717.1 148.744 Q2714.44 147.471 2712.08 146.846 Q2709.71 146.221 2707.51 146.221 Q2703.7 146.221 2701.61 147.702 Q2699.55 149.184 2699.55 151.915 Q2699.55 154.207 2700.92 155.387 Q2702.31 156.545 2706.15 157.262 L2708.97 157.841 Q2714.2 158.837 2716.68 161.36 Q2719.18 163.86 2719.18 168.073 Q2719.18 173.096 2715.8 175.688 Q2712.45 178.281 2705.94 178.281 Q2703.49 178.281 2700.71 177.725 Q2697.95 177.17 2694.99 176.082 L2694.99 171.267 Q2697.84 172.864 2700.57 173.674 Q2703.3 174.485 2705.94 174.485 Q2709.95 174.485 2712.12 172.911 Q2714.3 171.336 2714.3 168.42 Q2714.3 165.874 2712.72 164.438 Q2711.17 163.003 2707.61 162.286 L2704.76 161.73 Q2699.53 160.688 2697.19 158.466 Q2694.85 156.244 2694.85 152.286 Q2694.85 147.702 2698.07 145.063 Q2701.31 142.425 2706.98 142.425 Q2709.41 142.425 2711.94 142.864 Q2714.46 143.304 2717.1 144.184 Z" fill="#000000" fill-rule="nonzero" fill-opacity="1" /><circle clip-path="url(#clip200)" cx="2561.62" cy="212.17" r="20.48" fill="#ff0000" fill-rule="evenodd" fill-opacity="1" stroke="#000000" stroke-opacity="1" stroke-width="5.68889"/>
<path clip-path="url(#clip200)" d="M2717.1 196.024 L2717.1 200.584 Q2714.44 199.311 2712.08 198.686 Q2709.71 198.061 2707.51 198.061 Q2703.7 198.061 2701.61 199.542 Q2699.55 201.024 2699.55 203.755 Q2699.55 206.047 2700.92 207.227 Q2702.31 208.385 2706.15 209.102 L2708.97 209.681 Q2714.2 210.677 2716.68 213.2 Q2719.18 215.7 2719.18 219.913 Q2719.18 224.936 2715.8 227.528 Q2712.45 230.121 2705.94 230.121 Q2703.49 230.121 2700.71 229.565 Q2697.95 229.01 2694.99 227.922 L2694.99 223.107 Q2697.84 224.704 2700.57 225.514 Q2703.3 226.325 2705.94 226.325 Q2709.95 226.325 2712.12 224.751 Q2714.3 223.176 2714.3 220.26 Q2714.3 217.714 2712.72 216.278 Q2711.17 214.843 2707.61 214.126 L2704.76 213.57 Q2699.53 212.528 2697.19 210.306 Q2694.85 208.084 2694.85 204.126 Q2694.85 199.542 2698.07 196.903 Q2701.31 194.265 2706.98 194.265 Q2709.41 194.265 2711.94 194.704 Q2714.46 195.144 2717.1 196.024 Z" fill="#000000" fill-rule="nonzero" fill-opacity="1" /><path clip-path="url(#clip200)" d="M2726.29 203.524 L2730.55 203.524 L2730.55 229.45 L2726.29 229.45 L2726.29 203.524 M2726.29 193.431 L2730.55 193.431 L2730.55 198.825 L2726.29 198.825 L2726.29 193.431 Z" fill="#000000" fill-rule="nonzero" fill-opacity="1" /><path clip-path="url(#clip200)" d="M2761.01 213.801 L2761.01 229.45 L2756.75 229.45 L2756.75 213.94 Q2756.75 210.26 2755.32 208.431 Q2753.88 206.602 2751.01 206.602 Q2747.56 206.602 2745.57 208.802 Q2743.58 211.001 2743.58 214.797 L2743.58 229.45 L2739.3 229.45 L2739.3 203.524 L2743.58 203.524 L2743.58 207.552 Q2745.11 205.214 2747.17 204.056 Q2749.25 202.899 2751.96 202.899 Q2756.43 202.899 2758.72 205.677 Q2761.01 208.431 2761.01 213.801 Z" fill="#000000" fill-rule="nonzero" fill-opacity="1" /><path clip-path="url(#clip200)" d="M2786.57 216.186 Q2786.57 211.556 2784.64 209.01 Q2782.75 206.464 2779.3 206.464 Q2775.87 206.464 2773.95 209.01 Q2772.05 211.556 2772.05 216.186 Q2772.05 220.792 2773.95 223.338 Q2775.87 225.885 2779.3 225.885 Q2782.75 225.885 2784.64 223.338 Q2786.57 220.792 2786.57 216.186 M2790.82 226.232 Q2790.82 232.852 2787.88 236.07 Q2784.95 239.311 2778.88 239.311 Q2776.63 239.311 2774.64 238.963 Q2772.65 238.639 2770.78 237.945 L2770.78 233.801 Q2772.65 234.82 2774.48 235.306 Q2776.31 235.792 2778.21 235.792 Q2782.4 235.792 2784.48 233.593 Q2786.57 231.417 2786.57 226.996 L2786.57 224.889 Q2785.25 227.181 2783.19 228.315 Q2781.13 229.45 2778.26 229.45 Q2773.49 229.45 2770.57 225.815 Q2767.65 222.181 2767.65 216.186 Q2767.65 210.167 2770.57 206.533 Q2773.49 202.899 2778.26 202.899 Q2781.13 202.899 2783.19 204.033 Q2785.25 205.167 2786.57 207.459 L2786.57 203.524 L2790.82 203.524 L2790.82 226.232 Z" fill="#000000" fill-rule="nonzero" fill-opacity="1" /><path clip-path="url(#clip200)" d="M2799.16 219.218 L2799.16 203.524 L2803.42 203.524 L2803.42 219.056 Q2803.42 222.737 2804.85 224.588 Q2806.29 226.417 2809.16 226.417 Q2812.61 226.417 2814.6 224.218 Q2816.61 222.019 2816.61 218.223 L2816.61 203.524 L2820.87 203.524 L2820.87 229.45 L2816.61 229.45 L2816.61 225.468 Q2815.06 227.829 2813 228.987 Q2810.96 230.121 2808.26 230.121 Q2803.79 230.121 2801.47 227.343 Q2799.16 224.565 2799.16 219.218 M2809.88 202.899 L2809.88 202.899 Z" fill="#000000" fill-rule="nonzero" fill-opacity="1" /><path clip-path="url(#clip200)" d="M2829.64 193.431 L2833.9 193.431 L2833.9 229.45 L2829.64 229.45 L2829.64 193.431 Z" fill="#000000" fill-rule="nonzero" fill-opacity="1" /><path clip-path="url(#clip200)" d="M2854.6 216.417 Q2849.44 216.417 2847.44 217.598 Q2845.45 218.778 2845.45 221.626 Q2845.45 223.894 2846.94 225.237 Q2848.44 226.556 2851.01 226.556 Q2854.55 226.556 2856.68 224.056 Q2858.83 221.533 2858.83 217.366 L2858.83 216.417 L2854.6 216.417 M2863.09 214.658 L2863.09 229.45 L2858.83 229.45 L2858.83 225.514 Q2857.38 227.875 2855.2 229.01 Q2853.02 230.121 2849.88 230.121 Q2845.89 230.121 2843.53 227.899 Q2841.19 225.653 2841.19 221.903 Q2841.19 217.528 2844.11 215.306 Q2847.05 213.084 2852.86 213.084 L2858.83 213.084 L2858.83 212.667 Q2858.83 209.727 2856.89 208.13 Q2854.97 206.51 2851.47 206.51 Q2849.25 206.51 2847.14 207.042 Q2845.04 207.575 2843.09 208.639 L2843.09 204.704 Q2845.43 203.802 2847.63 203.362 Q2849.83 202.899 2851.91 202.899 Q2857.54 202.899 2860.31 205.815 Q2863.09 208.732 2863.09 214.658 Z" fill="#000000" fill-rule="nonzero" fill-opacity="1" /><path clip-path="url(#clip200)" d="M2886.89 207.505 Q2886.17 207.089 2885.31 206.903 Q2884.48 206.695 2883.46 206.695 Q2879.85 206.695 2877.91 209.056 Q2875.99 211.394 2875.99 215.792 L2875.99 229.45 L2871.7 229.45 L2871.7 203.524 L2875.99 203.524 L2875.99 207.552 Q2877.33 205.19 2879.48 204.056 Q2881.63 202.899 2884.71 202.899 Q2885.15 202.899 2885.69 202.968 Q2886.22 203.015 2886.87 203.13 L2886.89 207.505 Z" fill="#000000" fill-rule="nonzero" fill-opacity="1" /><path clip-path="url(#clip200)" d="M2922.95 204.288 L2922.95 208.315 Q2921.15 207.389 2919.2 206.927 Q2917.26 206.464 2915.18 206.464 Q2912 206.464 2910.41 207.436 Q2908.83 208.408 2908.83 210.352 Q2908.83 211.834 2909.97 212.69 Q2911.1 213.524 2914.53 214.288 L2915.99 214.612 Q2920.52 215.584 2922.42 217.366 Q2924.34 219.126 2924.34 222.297 Q2924.34 225.908 2921.47 228.014 Q2918.62 230.121 2913.62 230.121 Q2911.54 230.121 2909.27 229.704 Q2907.03 229.311 2904.53 228.5 L2904.53 224.102 Q2906.89 225.329 2909.18 225.954 Q2911.47 226.556 2913.72 226.556 Q2916.73 226.556 2918.35 225.538 Q2919.97 224.496 2919.97 222.621 Q2919.97 220.885 2918.79 219.959 Q2917.63 219.033 2913.67 218.176 L2912.19 217.829 Q2908.23 216.996 2906.47 215.283 Q2904.71 213.547 2904.71 210.538 Q2904.71 206.88 2907.31 204.89 Q2909.9 202.899 2914.67 202.899 Q2917.03 202.899 2919.11 203.246 Q2921.19 203.593 2922.95 204.288 Z" fill="#000000" fill-rule="nonzero" fill-opacity="1" /><path clip-path="url(#clip200)" d="M2935.34 196.163 L2935.34 203.524 L2944.11 203.524 L2944.11 206.834 L2935.34 206.834 L2935.34 220.908 Q2935.34 224.079 2936.19 224.982 Q2937.07 225.885 2939.74 225.885 L2944.11 225.885 L2944.11 229.45 L2939.74 229.45 Q2934.81 229.45 2932.93 227.621 Q2931.06 225.769 2931.06 220.908 L2931.06 206.834 L2927.93 206.834 L2927.93 203.524 L2931.06 203.524 L2931.06 196.163 L2935.34 196.163 Z" fill="#000000" fill-rule="nonzero" fill-opacity="1" /><path clip-path="url(#clip200)" d="M2961.49 216.417 Q2956.33 216.417 2954.34 217.598 Q2952.35 218.778 2952.35 221.626 Q2952.35 223.894 2953.83 225.237 Q2955.34 226.556 2957.91 226.556 Q2961.45 226.556 2963.58 224.056 Q2965.73 221.533 2965.73 217.366 L2965.73 216.417 L2961.49 216.417 M2969.99 214.658 L2969.99 229.45 L2965.73 229.45 L2965.73 225.514 Q2964.27 227.875 2962.1 229.01 Q2959.92 230.121 2956.77 230.121 Q2952.79 230.121 2950.43 227.899 Q2948.09 225.653 2948.09 221.903 Q2948.09 217.528 2951.01 215.306 Q2953.95 213.084 2959.76 213.084 L2965.73 213.084 L2965.73 212.667 Q2965.73 209.727 2963.79 208.13 Q2961.87 206.51 2958.37 206.51 Q2956.15 206.51 2954.04 207.042 Q2951.93 207.575 2949.99 208.639 L2949.99 204.704 Q2952.33 203.802 2954.53 203.362 Q2956.73 202.899 2958.81 202.899 Q2964.43 202.899 2967.21 205.815 Q2969.99 208.732 2969.99 214.658 Z" fill="#000000" fill-rule="nonzero" fill-opacity="1" /><path clip-path="url(#clip200)" d="M2982.98 196.163 L2982.98 203.524 L2991.75 203.524 L2991.75 206.834 L2982.98 206.834 L2982.98 220.908 Q2982.98 224.079 2983.83 224.982 Q2984.71 225.885 2987.37 225.885 L2991.75 225.885 L2991.75 229.45 L2987.37 229.45 Q2982.44 229.45 2980.57 227.621 Q2978.69 225.769 2978.69 220.908 L2978.69 206.834 L2975.57 206.834 L2975.57 203.524 L2978.69 203.524 L2978.69 196.163 L2982.98 196.163 Z" fill="#000000" fill-rule="nonzero" fill-opacity="1" /><path clip-path="url(#clip200)" d="M3019.53 215.422 L3019.53 217.505 L2999.94 217.505 Q3000.22 221.903 3002.58 224.218 Q3004.97 226.51 3009.2 226.51 Q3011.66 226.51 3013.95 225.908 Q3016.26 225.306 3018.53 224.102 L3018.53 228.13 Q3016.24 229.102 3013.83 229.612 Q3011.43 230.121 3008.95 230.121 Q3002.74 230.121 2999.11 226.51 Q2995.5 222.899 2995.5 216.741 Q2995.5 210.376 2998.93 206.649 Q3002.37 202.899 3008.21 202.899 Q3013.44 202.899 3016.47 206.278 Q3019.53 209.635 3019.53 215.422 M3015.27 214.172 Q3015.22 210.677 3013.3 208.593 Q3011.4 206.51 3008.25 206.51 Q3004.69 206.51 3002.54 208.524 Q3000.41 210.538 3000.08 214.195 L3015.27 214.172 Z" fill="#000000" fill-rule="nonzero" fill-opacity="1" /></svg>
