<?xml version="1.0" encoding="utf-8"?>
<svg xmlns="http://www.w3.org/2000/svg" xmlns:xlink="http://www.w3.org/1999/xlink" width="600" height="400" viewBox="0 0 2400 1600">
<defs>
  <clipPath id="clip740">
    <rect x="0" y="0" width="2400" height="1600"/>
  </clipPath>
</defs>
<path clip-path="url(#clip740)" d="M0 1600 L2400 1600 L2400 0 L0 0  Z" fill="#ffffff" fill-rule="evenodd" fill-opacity="1"/>
<defs>
  <clipPath id="clip741">
    <rect x="175" y="47" width="2178" height="1377"/>
  </clipPath>
</defs>
<path clip-path="url(#clip740)" d="M175.445 1423.18 L2352.76 1423.18 L2352.76 47.2441 L175.445 47.2441  Z" fill="#ffffff" fill-rule="evenodd" fill-opacity="1"/>
<polyline clip-path="url(#clip741)" style="stroke:#000000; stroke-linecap:round; stroke-linejoin:round; stroke-width:2; stroke-opacity:0.1; fill:none" points="175.445,1423.18 175.445,47.2441 "/>
<polyline clip-path="url(#clip741)" style="stroke:#000000; stroke-linecap:round; stroke-linejoin:round; stroke-width:2; stroke-opacity:0.1; fill:none" points="610.907,1423.18 610.907,47.2441 "/>
<polyline clip-path="url(#clip741)" style="stroke:#000000; stroke-linecap:round; stroke-linejoin:round; stroke-width:2; stroke-opacity:0.1; fill:none" points="1046.37,1423.18 1046.37,47.2441 "/>
<polyline clip-path="url(#clip741)" style="stroke:#000000; stroke-linecap:round; stroke-linejoin:round; stroke-width:2; stroke-opacity:0.1; fill:none" points="1481.83,1423.18 1481.83,47.2441 "/>
<polyline clip-path="url(#clip741)" style="stroke:#000000; stroke-linecap:round; stroke-linejoin:round; stroke-width:2; stroke-opacity:0.1; fill:none" points="1917.29,1423.18 1917.29,47.2441 "/>
<polyline clip-path="url(#clip741)" style="stroke:#000000; stroke-linecap:round; stroke-linejoin:round; stroke-width:2; stroke-opacity:0.1; fill:none" points="2352.76,1423.18 2352.76,47.2441 "/>
<polyline clip-path="url(#clip741)" style="stroke:#000000; stroke-linecap:round; stroke-linejoin:round; stroke-width:2; stroke-opacity:0.1; fill:none" points="175.445,1423.18 2352.76,1423.18 "/>
<polyline clip-path="url(#clip741)" style="stroke:#000000; stroke-linecap:round; stroke-linejoin:round; stroke-width:2; stroke-opacity:0.1; fill:none" points="175.445,964.535 2352.76,964.535 "/>
<polyline clip-path="url(#clip741)" style="stroke:#000000; stroke-linecap:round; stroke-linejoin:round; stroke-width:2; stroke-opacity:0.1; fill:none" points="175.445,505.889 2352.76,505.889 "/>
<polyline clip-path="url(#clip741)" style="stroke:#000000; stroke-linecap:round; stroke-linejoin:round; stroke-width:2; stroke-opacity:0.1; fill:none" points="175.445,47.2441 2352.76,47.2441 "/>
<polyline clip-path="url(#clip740)" style="stroke:#000000; stroke-linecap:round; stroke-linejoin:round; stroke-width:4; stroke-opacity:1; fill:none" points="175.445,1423.18 2352.76,1423.18 "/>
<polyline clip-path="url(#clip740)" style="stroke:#000000; stroke-linecap:round; stroke-linejoin:round; stroke-width:4; stroke-opacity:1; fill:none" points="175.445,1423.18 175.445,1404.28 "/>
<polyline clip-path="url(#clip740)" style="stroke:#000000; stroke-linecap:round; stroke-linejoin:round; stroke-width:4; stroke-opacity:1; fill:none" points="610.907,1423.18 610.907,1404.28 "/>
<polyline clip-path="url(#clip740)" style="stroke:#000000; stroke-linecap:round; stroke-linejoin:round; stroke-width:4; stroke-opacity:1; fill:none" points="1046.37,1423.18 1046.37,1404.28 "/>
<polyline clip-path="url(#clip740)" style="stroke:#000000; stroke-linecap:round; stroke-linejoin:round; stroke-width:4; stroke-opacity:1; fill:none" points="1481.83,1423.18 1481.83,1404.28 "/>
<polyline clip-path="url(#clip740)" style="stroke:#000000; stroke-linecap:round; stroke-linejoin:round; stroke-width:4; stroke-opacity:1; fill:none" points="1917.29,1423.18 1917.29,1404.28 "/>
<polyline clip-path="url(#clip740)" style="stroke:#000000; stroke-linecap:round; stroke-linejoin:round; stroke-width:4; stroke-opacity:1; fill:none" points="2352.76,1423.18 2352.76,1404.28 "/>
<path clip-path="url(#clip740)" d="M175.445 1454.1 Q171.834 1454.1 170.005 1457.66 Q168.2 1461.2 168.2 1468.33 Q168.2 1475.44 170.005 1479.01 Q171.834 1482.55 175.445 1482.55 Q179.079 1482.55 180.885 1479.01 Q182.714 1475.44 182.714 1468.33 Q182.714 1461.2 180.885 1457.66 Q179.079 1454.1 175.445 1454.1 M175.445 1450.39 Q181.255 1450.39 184.311 1455 Q187.39 1459.58 187.39 1468.33 Q187.39 1477.06 184.311 1481.67 Q181.255 1486.25 175.445 1486.25 Q169.635 1486.25 166.556 1481.67 Q163.501 1477.06 163.501 1468.33 Q163.501 1459.58 166.556 1455 Q169.635 1450.39 175.445 1450.39 Z" fill="#000000" fill-rule="nonzero" fill-opacity="1" /><path clip-path="url(#clip740)" d="M605.56 1481.64 L621.88 1481.64 L621.88 1485.58 L599.935 1485.58 L599.935 1481.64 Q602.597 1478.89 607.181 1474.26 Q611.787 1469.61 612.968 1468.27 Q615.213 1465.74 616.093 1464.01 Q616.995 1462.25 616.995 1460.56 Q616.995 1457.8 615.051 1456.07 Q613.13 1454.33 610.028 1454.33 Q607.829 1454.33 605.375 1455.09 Q602.944 1455.86 600.167 1457.41 L600.167 1452.69 Q602.991 1451.55 605.444 1450.97 Q607.898 1450.39 609.935 1450.39 Q615.305 1450.39 618.5 1453.08 Q621.694 1455.77 621.694 1460.26 Q621.694 1462.39 620.884 1464.31 Q620.097 1466.2 617.991 1468.8 Q617.412 1469.47 614.31 1472.69 Q611.208 1475.88 605.56 1481.64 Z" fill="#000000" fill-rule="nonzero" fill-opacity="1" /><path clip-path="url(#clip740)" d="M1049.38 1455.09 L1037.57 1473.54 L1049.38 1473.54 L1049.38 1455.09 M1048.15 1451.02 L1054.03 1451.02 L1054.03 1473.54 L1058.96 1473.54 L1058.96 1477.43 L1054.03 1477.43 L1054.03 1485.58 L1049.38 1485.58 L1049.38 1477.43 L1033.78 1477.43 L1033.78 1472.92 L1048.15 1451.02 Z" fill="#000000" fill-rule="nonzero" fill-opacity="1" /><path clip-path="url(#clip740)" d="M1482.24 1466.44 Q1479.09 1466.44 1477.24 1468.59 Q1475.41 1470.74 1475.41 1474.49 Q1475.41 1478.22 1477.24 1480.39 Q1479.09 1482.55 1482.24 1482.55 Q1485.38 1482.55 1487.21 1480.39 Q1489.07 1478.22 1489.07 1474.49 Q1489.07 1470.74 1487.21 1468.59 Q1485.38 1466.44 1482.24 1466.44 M1491.52 1451.78 L1491.52 1456.04 Q1489.76 1455.21 1487.95 1454.77 Q1486.17 1454.33 1484.41 1454.33 Q1479.78 1454.33 1477.33 1457.45 Q1474.9 1460.58 1474.55 1466.9 Q1475.92 1464.89 1477.98 1463.82 Q1480.04 1462.73 1482.51 1462.73 Q1487.72 1462.73 1490.73 1465.9 Q1493.76 1469.05 1493.76 1474.49 Q1493.76 1479.82 1490.62 1483.03 Q1487.47 1486.25 1482.24 1486.25 Q1476.24 1486.25 1473.07 1481.67 Q1469.9 1477.06 1469.9 1468.33 Q1469.9 1460.14 1473.79 1455.28 Q1477.68 1450.39 1484.23 1450.39 Q1485.99 1450.39 1487.77 1450.74 Q1489.57 1451.09 1491.52 1451.78 Z" fill="#000000" fill-rule="nonzero" fill-opacity="1" /><path clip-path="url(#clip740)" d="M1917.29 1469.17 Q1913.96 1469.17 1912.04 1470.95 Q1910.14 1472.73 1910.14 1475.86 Q1910.14 1478.98 1912.04 1480.77 Q1913.96 1482.55 1917.29 1482.55 Q1920.63 1482.55 1922.55 1480.77 Q1924.47 1478.96 1924.47 1475.86 Q1924.47 1472.73 1922.55 1470.95 Q1920.65 1469.17 1917.29 1469.17 M1912.62 1467.18 Q1909.61 1466.44 1907.92 1464.38 Q1906.25 1462.32 1906.25 1459.35 Q1906.25 1455.21 1909.19 1452.8 Q1912.15 1450.39 1917.29 1450.39 Q1922.46 1450.39 1925.4 1452.8 Q1928.34 1455.21 1928.34 1459.35 Q1928.34 1462.32 1926.65 1464.38 Q1924.98 1466.44 1921.99 1467.18 Q1925.37 1467.96 1927.25 1470.26 Q1929.15 1472.55 1929.15 1475.86 Q1929.15 1480.88 1926.07 1483.57 Q1923.01 1486.25 1917.29 1486.25 Q1911.58 1486.25 1908.5 1483.57 Q1905.44 1480.88 1905.44 1475.86 Q1905.44 1472.55 1907.34 1470.26 Q1909.24 1467.96 1912.62 1467.18 M1910.9 1459.79 Q1910.9 1462.48 1912.57 1463.98 Q1914.26 1465.49 1917.29 1465.49 Q1920.3 1465.49 1921.99 1463.98 Q1923.71 1462.48 1923.71 1459.79 Q1923.71 1457.11 1921.99 1455.6 Q1920.3 1454.1 1917.29 1454.1 Q1914.26 1454.1 1912.57 1455.6 Q1910.9 1457.11 1910.9 1459.79 Z" fill="#000000" fill-rule="nonzero" fill-opacity="1" /><path clip-path="url(#clip740)" d="M2327.44 1481.64 L2335.08 1481.64 L2335.08 1455.28 L2326.77 1456.95 L2326.77 1452.69 L2335.04 1451.02 L2339.71 1451.02 L2339.71 1481.64 L2347.35 1481.64 L2347.35 1485.58 L2327.44 1485.58 L2327.44 1481.64 Z" fill="#000000" fill-rule="nonzero" fill-opacity="1" /><path clip-path="url(#clip740)" d="M2366.8 1454.1 Q2363.18 1454.1 2361.36 1457.66 Q2359.55 1461.2 2359.55 1468.33 Q2359.55 1475.44 2361.36 1479.01 Q2363.18 1482.55 2366.8 1482.55 Q2370.43 1482.55 2372.23 1479.01 Q2374.06 1475.44 2374.06 1468.33 Q2374.06 1461.2 2372.23 1457.66 Q2370.43 1454.1 2366.8 1454.1 M2366.8 1450.39 Q2372.61 1450.39 2375.66 1455 Q2378.74 1459.58 2378.74 1468.33 Q2378.74 1477.06 2375.66 1481.67 Q2372.61 1486.25 2366.8 1486.25 Q2360.99 1486.25 2357.91 1481.67 Q2354.85 1477.06 2354.85 1468.33 Q2354.85 1459.58 2357.91 1455 Q2360.99 1450.39 2366.8 1450.39 Z" fill="#000000" fill-rule="nonzero" fill-opacity="1" /><path clip-path="url(#clip740)" d="M1246.75 1532.4 L1252.96 1532.4 L1264.1 1562.31 L1275.24 1532.4 L1281.45 1532.4 L1268.08 1568.04 L1260.12 1568.04 L1246.75 1532.4 Z" fill="#000000" fill-rule="nonzero" fill-opacity="1" /><polyline clip-path="url(#clip740)" style="stroke:#000000; stroke-linecap:round; stroke-linejoin:round; stroke-width:4; stroke-opacity:1; fill:none" points="175.445,1423.18 175.445,47.2441 "/>
<polyline clip-path="url(#clip740)" style="stroke:#000000; stroke-linecap:round; stroke-linejoin:round; stroke-width:4; stroke-opacity:1; fill:none" points="175.445,1423.18 194.343,1423.18 "/>
<polyline clip-path="url(#clip740)" style="stroke:#000000; stroke-linecap:round; stroke-linejoin:round; stroke-width:4; stroke-opacity:1; fill:none" points="175.445,964.535 194.343,964.535 "/>
<polyline clip-path="url(#clip740)" style="stroke:#000000; stroke-linecap:round; stroke-linejoin:round; stroke-width:4; stroke-opacity:1; fill:none" points="175.445,505.889 194.343,505.889 "/>
<polyline clip-path="url(#clip740)" style="stroke:#000000; stroke-linecap:round; stroke-linejoin:round; stroke-width:4; stroke-opacity:1; fill:none" points="175.445,47.2441 194.343,47.2441 "/>
<path clip-path="url(#clip740)" d="M123.126 1436.52 L139.445 1436.52 L139.445 1440.46 L117.501 1440.46 L117.501 1436.52 Q120.163 1433.77 124.746 1429.14 Q129.353 1424.49 130.533 1423.15 Q132.779 1420.62 133.658 1418.89 Q134.561 1417.13 134.561 1415.44 Q134.561 1412.68 132.617 1410.95 Q130.695 1409.21 127.593 1409.21 Q125.394 1409.21 122.941 1409.97 Q120.51 1410.74 117.732 1412.29 L117.732 1407.57 Q120.556 1406.43 123.01 1405.85 Q125.464 1405.27 127.501 1405.27 Q132.871 1405.27 136.066 1407.96 Q139.26 1410.65 139.26 1415.14 Q139.26 1417.27 138.45 1419.19 Q137.663 1421.08 135.556 1423.68 Q134.978 1424.35 131.876 1427.57 Q128.774 1430.76 123.126 1436.52 Z" fill="#000000" fill-rule="nonzero" fill-opacity="1" /><path clip-path="url(#clip740)" d="M132.316 963.18 Q135.672 963.898 137.547 966.167 Q139.445 968.435 139.445 971.768 Q139.445 976.884 135.927 979.685 Q132.408 982.486 125.927 982.486 Q123.751 982.486 121.436 982.046 Q119.144 981.629 116.691 980.773 L116.691 976.259 Q118.635 977.393 120.95 977.972 Q123.265 978.551 125.788 978.551 Q130.186 978.551 132.478 976.815 Q134.792 975.079 134.792 971.768 Q134.792 968.713 132.64 967 Q130.51 965.264 126.691 965.264 L122.663 965.264 L122.663 961.421 L126.876 961.421 Q130.325 961.421 132.154 960.055 Q133.982 958.667 133.982 956.074 Q133.982 953.412 132.084 952 Q130.209 950.565 126.691 950.565 Q124.769 950.565 122.57 950.981 Q120.371 951.398 117.732 952.278 L117.732 948.111 Q120.394 947.37 122.709 947 Q125.047 946.63 127.107 946.63 Q132.431 946.63 135.533 949.06 Q138.635 951.468 138.635 955.588 Q138.635 958.458 136.992 960.449 Q135.348 962.417 132.316 963.18 Z" fill="#000000" fill-rule="nonzero" fill-opacity="1" /><path clip-path="url(#clip740)" d="M129.862 492.683 L118.056 511.132 L129.862 511.132 L129.862 492.683 M128.635 488.609 L134.515 488.609 L134.515 511.132 L139.445 511.132 L139.445 515.021 L134.515 515.021 L134.515 523.169 L129.862 523.169 L129.862 515.021 L114.26 515.021 L114.26 510.507 L128.635 488.609 Z" fill="#000000" fill-rule="nonzero" fill-opacity="1" /><path clip-path="url(#clip740)" d="M118.543 29.9641 L136.899 29.9641 L136.899 33.8993 L122.825 33.8993 L122.825 42.3714 Q123.843 42.0242 124.862 41.8622 Q125.88 41.677 126.899 41.677 Q132.686 41.677 136.066 44.8483 Q139.445 48.0196 139.445 53.4362 Q139.445 59.0149 135.973 62.1167 Q132.501 65.1954 126.181 65.1954 Q124.005 65.1954 121.737 64.825 Q119.492 64.4547 117.084 63.7139 L117.084 59.0149 Q119.168 60.1491 121.39 60.7047 Q123.612 61.2602 126.089 61.2602 Q130.093 61.2602 132.431 59.1538 Q134.769 57.0473 134.769 53.4362 Q134.769 49.8251 132.431 47.7186 Q130.093 45.6122 126.089 45.6122 Q124.214 45.6122 122.339 46.0288 Q120.487 46.4455 118.543 47.3251 L118.543 29.9641 Z" fill="#000000" fill-rule="nonzero" fill-opacity="1" /><path clip-path="url(#clip740)" d="M41.7242 748.023 Q42.4244 745.954 44.7161 744.013 Q47.0077 742.039 51.0181 740.066 L64.0042 733.541 L64.0042 740.448 L51.8138 746.527 Q47.0395 748.882 45.48 751.11 Q43.9204 753.306 43.9204 757.126 L43.9204 764.128 L64.0042 764.128 L64.0042 770.558 L16.4842 770.558 L16.4842 756.044 Q16.4842 747.896 19.8898 743.885 Q23.2955 739.875 30.1704 739.875 Q34.6582 739.875 37.6183 741.976 Q40.5784 744.044 41.7242 748.023 M21.7677 764.128 L38.6368 764.128 L38.6368 756.044 Q38.6368 751.397 36.5043 749.041 Q34.34 746.654 30.1704 746.654 Q26.0009 746.654 23.9002 749.041 Q21.7677 751.397 21.7677 756.044 L21.7677 764.128 Z" fill="#000000" fill-rule="nonzero" fill-opacity="1" /><path clip-path="url(#clip740)" d="M29.7248 699.866 L35.1993 699.866 Q33.8307 702.349 33.1623 704.863 Q32.4621 707.346 32.4621 709.892 Q32.4621 715.59 36.0905 718.741 Q39.6872 721.892 46.212 721.892 Q52.7369 721.892 56.3653 718.741 Q59.9619 715.59 59.9619 709.892 Q59.9619 707.346 59.2935 704.863 Q58.5933 702.349 57.2247 699.866 L62.6355 699.866 Q63.7814 702.317 64.3543 704.959 Q64.9272 707.569 64.9272 710.529 Q64.9272 718.582 59.8664 723.324 Q54.8057 728.066 46.212 728.066 Q37.491 728.066 32.4939 723.292 Q27.4968 718.486 27.4968 710.147 Q27.4968 707.442 28.0697 704.863 Q28.6108 702.285 29.7248 699.866 Z" fill="#000000" fill-rule="nonzero" fill-opacity="1" /><path clip-path="url(#clip741)" d="M175.445 964.535 L1481.83 964.535 L1481.83 964.535 L1484 959.948 L1486.14 955.362 L1488.27 950.775 L1490.37 946.189 L1492.45 941.602 L1494.51 937.016 L1496.56 932.429 L1498.58 927.843 L1500.58 923.257 L1502.57 918.67 L1504.53 914.084 L1506.48 909.497 L1508.41 904.911 L1510.32 900.324 L1512.21 895.738 L1514.09 891.151 L1515.95 886.565 L1517.79 881.978 L1519.61 877.392 L1521.42 872.806 L1523.21 868.219 L1524.99 863.633 L1526.75 859.046 L1528.49 854.46 L1530.22 849.873 L1531.93 845.287 L1533.63 840.7 L1535.31 836.114 L1536.98 831.527 L1538.63 826.941 L1540.27 822.355 L1541.9 817.768 L1543.51 813.182 L1545.1 808.595 L1546.69 804.009 L1548.26 799.422 L1549.82 794.836 L1551.36 790.249 L1552.89 785.663 L1554.41 781.076 L1555.91 776.49 L1557.41 771.904 L1558.89 767.317 L1560.36 762.731 L1561.81 758.144 L1563.26 753.558 L1564.69 748.971 L1566.11 744.385 L1567.52 739.798 L1568.92 735.212 L1570.31 730.626 L1571.69 726.039 L1573.05 721.453 L1574.41 716.866 L1575.75 712.28 L1577.09 707.693 L1578.41 703.107 L1579.73 698.52 L1581.03 693.934 L1582.32 689.347 L1583.61 684.761 L1584.88 680.175 L1586.14 675.588 L1587.4 671.002 L1588.64 666.415 L1589.88 661.829 L1591.11 657.242 L1592.32 652.656 L1593.53 648.069 L1594.73 643.483 L1595.92 638.896 L1597.1 634.31 L1598.28 629.724 L1599.44 625.137 L1600.6 620.551 L1601.74 615.964 L1602.88 611.378 L1604.01 606.791 L1605.14 602.205 L1606.25 597.618 L1607.36 593.032 L1608.46 588.445 L1609.55 583.859 L1610.63 579.273 L1611.71 574.686 L1612.78 570.1 L1613.84 565.513 L1614.89 560.927 L1615.94 556.34 L1616.98 551.754 L1618.01 547.167 L1619.03 542.581 L1620.05 537.995 L1621.06 533.408 L1622.06 528.822 L1623.06 524.235 L1624.05 519.649 L1625.04 515.062 L1626.01 510.476 L1626.98 505.889 L1627.95 501.303 L1628.91 496.716 L1629.86 492.13 L1630.8 487.544 L1631.74 482.957 L1632.68 478.371 L1633.6 473.784 L1634.53 469.198 L1635.44 464.611 L1636.35 460.025 L1637.25 455.438 L1638.15 450.852 L1639.04 446.265 L1639.93 441.679 L1640.81 437.093 L1641.68 432.506 L1642.55 427.92 L1643.42 423.333 L1644.28 418.747 L1645.13 414.16 L1645.98 409.574 L1646.82 404.987 L1647.66 400.401 L1648.49 395.814 L1649.32 391.228 L1650.14 386.642 L1650.96 382.055 L1651.77 377.469 L1652.58 372.882 L1653.38 368.296 L1654.18 363.709 L1654.97 359.123 L1655.76 354.536 L1656.54 349.95 L1657.32 345.364 L1658.09 340.777 L1658.86 336.191 L1659.63 331.604 L1660.39 327.018 L1661.14 322.431 L1661.89 317.845 L1662.64 313.258 L1663.38 308.672 L1664.12 304.085 L1664.85 299.499 L1665.58 294.913 L1666.31 290.326 L1667.03 285.74 L1667.75 281.153 L1668.46 276.567 L1669.17 271.98 L1669.87 267.394 L1670.57 262.807 L1671.27 258.221 L1671.96 253.634 L1672.65 249.048 L1673.34 244.462 L1674.02 239.875 L1674.7 235.289 L1675.37 230.702 L1676.04 226.116 L1676.71 221.529 L1677.37 216.943 L1678.03 212.356 L1678.68 207.77 L1679.34 203.183 L1679.98 198.597 L1680.63 194.011 L1681.27 189.424 L1681.91 184.838 L1682.54 180.251 L1683.17 175.665 L1683.8 171.078 L1684.43 166.492 L1685.05 161.905 L1685.66 157.319 L1686.28 152.733 L1686.89 148.146 L1687.5 143.56 L1688.1 138.973 L1688.7 134.387 L1689.3 129.8 L1689.9 125.214 L1690.49 120.627 L1691.08 116.041 L1691.67 111.454 L1692.25 106.868 L1692.83 102.282 L1693.41 97.6951 L1693.98 93.1086 L1694.55 88.5222 L1695.12 83.9357 L1695.68 79.3493 L1696.25 74.7628 L1696.81 70.1764 L1697.36 65.5899 L1697.92 61.0035 L1698.47 56.417 L1699.02 51.8305 L1699.56 47.2441 L175.445 47.2441 L175.445 964.535  Z" fill="#ff0000" fill-rule="evenodd" fill-opacity="0.35"/>
<polyline clip-path="url(#clip741)" style="stroke:#000000; stroke-linecap:round; stroke-linejoin:round; stroke-width:4; stroke-opacity:0; fill:none" points="175.445,964.535 1481.83,964.535 1484,959.948 1486.14,955.362 1488.27,950.775 1490.37,946.189 1492.45,941.602 1494.51,937.016 1496.56,932.429 1498.58,927.843 1500.58,923.257 1502.57,918.67 1504.53,914.084 1506.48,909.497 1508.41,904.911 1510.32,900.324 1512.21,895.738 1514.09,891.151 1515.95,886.565 1517.79,881.978 1519.61,877.392 1521.42,872.806 1523.21,868.219 1524.99,863.633 1526.75,859.046 1528.49,854.46 1530.22,849.873 1531.93,845.287 1533.63,840.7 1535.31,836.114 1536.98,831.527 1538.63,826.941 1540.27,822.355 1541.9,817.768 1543.51,813.182 1545.1,808.595 1546.69,804.009 1548.26,799.422 1549.82,794.836 1551.36,790.249 1552.89,785.663 1554.41,781.076 1555.91,776.49 1557.41,771.904 1558.89,767.317 1560.36,762.731 1561.81,758.144 1563.26,753.558 1564.69,748.971 1566.11,744.385 1567.52,739.798 1568.92,735.212 1570.31,730.626 1571.69,726.039 1573.05,721.453 1574.41,716.866 1575.75,712.28 1577.09,707.693 1578.41,703.107 1579.73,698.52 1581.03,693.934 1582.32,689.347 1583.61,684.761 1584.88,680.175 1586.14,675.588 1587.4,671.002 1588.64,666.415 1589.88,661.829 1591.11,657.242 1592.32,652.656 1593.53,648.069 1594.73,643.483 1595.92,638.896 1597.1,634.31 1598.28,629.724 1599.44,625.137 1600.6,620.551 1601.74,615.964 1602.88,611.378 1604.01,606.791 1605.14,602.205 1606.25,597.618 1607.36,593.032 1608.46,588.445 1609.55,583.859 1610.63,579.273 1611.71,574.686 1612.78,570.1 1613.84,565.513 1614.89,560.927 1615.94,556.34 1616.98,551.754 1618.01,547.167 1619.03,542.581 1620.05,537.995 1621.06,533.408 1622.06,528.822 1623.06,524.235 1624.05,519.649 1625.04,515.062 1626.01,510.476 1626.98,505.889 1627.95,501.303 1628.91,496.716 1629.86,492.13 1630.8,487.544 1631.74,482.957 1632.68,478.371 1633.6,473.784 1634.53,469.198 1635.44,464.611 1636.35,460.025 1637.25,455.438 1638.15,450.852 1639.04,446.265 1639.93,441.679 1640.81,437.093 1641.68,432.506 1642.55,427.92 1643.42,423.333 1644.28,418.747 1645.13,414.16 1645.98,409.574 1646.82,404.987 1647.66,400.401 1648.49,395.814 1649.32,391.228 1650.14,386.642 1650.96,382.055 1651.77,377.469 1652.58,372.882 1653.38,368.296 1654.18,363.709 1654.97,359.123 1655.76,354.536 1656.54,349.95 1657.32,345.364 1658.09,340.777 1658.86,336.191 1659.63,331.604 1660.39,327.018 1661.14,322.431 1661.89,317.845 1662.64,313.258 1663.38,308.672 1664.12,304.085 1664.85,299.499 1665.58,294.913 1666.31,290.326 1667.03,285.74 1667.75,281.153 1668.46,276.567 1669.17,271.98 1669.87,267.394 1670.57,262.807 1671.27,258.221 1671.96,253.634 1672.65,249.048 1673.34,244.462 1674.02,239.875 1674.7,235.289 1675.37,230.702 1676.04,226.116 1676.71,221.529 1677.37,216.943 1678.03,212.356 1678.68,207.77 1679.34,203.183 1679.98,198.597 1680.63,194.011 1681.27,189.424 1681.91,184.838 1682.54,180.251 1683.17,175.665 1683.8,171.078 1684.43,166.492 1685.05,161.905 1685.66,157.319 1686.28,152.733 1686.89,148.146 1687.5,143.56 1688.1,138.973 1688.7,134.387 1689.3,129.8 1689.9,125.214 1690.49,120.627 1691.08,116.041 1691.67,111.454 1692.25,106.868 1692.83,102.282 1693.41,97.6951 1693.98,93.1086 1694.55,88.5222 1695.12,83.9357 1695.68,79.3493 1696.25,74.7628 1696.81,70.1764 1697.36,65.5899 1697.92,61.0035 1698.47,56.417 1699.02,51.8305 1699.56,47.2441 175.445,47.2441 175.445,964.535 "/>
<path clip-path="url(#clip741)" d="M175.445 964.535 L1481.83 964.535 L1481.83 964.535 L1484 959.948 L1486.14 955.362 L1488.27 950.775 L1490.37 946.189 L1492.45 941.602 L1494.51 937.016 L1496.56 932.429 L1498.58 927.843 L1500.58 923.257 L1502.57 918.67 L1504.53 914.084 L1506.48 909.497 L1508.41 904.911 L1510.32 900.324 L1512.21 895.738 L1514.09 891.151 L1515.95 886.565 L1517.79 881.978 L1519.61 877.392 L1521.42 872.806 L1523.21 868.219 L1524.99 863.633 L1526.75 859.046 L1528.49 854.46 L1530.22 849.873 L1531.93 845.287 L1533.63 840.7 L1535.31 836.114 L1536.98 831.527 L1538.63 826.941 L1540.27 822.355 L1541.9 817.768 L1543.51 813.182 L1545.1 808.595 L1546.69 804.009 L1548.26 799.422 L1549.82 794.836 L1551.36 790.249 L1552.89 785.663 L1554.41 781.076 L1555.91 776.49 L1557.41 771.904 L1558.89 767.317 L1560.36 762.731 L1561.81 758.144 L1563.26 753.558 L1564.69 748.971 L1566.11 744.385 L1567.52 739.798 L1568.92 735.212 L1570.31 730.626 L1571.69 726.039 L1573.05 721.453 L1574.41 716.866 L1575.75 712.28 L1577.09 707.693 L1578.41 703.107 L1579.73 698.52 L1581.03 693.934 L1582.32 689.347 L1583.61 684.761 L1584.88 680.175 L1586.14 675.588 L1587.4 671.002 L1588.64 666.415 L1589.88 661.829 L1591.11 657.242 L1592.32 652.656 L1593.53 648.069 L1594.73 643.483 L1595.92 638.896 L1597.1 634.31 L1598.28 629.724 L1599.44 625.137 L1600.6 620.551 L1601.74 615.964 L1602.88 611.378 L1604.01 606.791 L1605.14 602.205 L1606.25 597.618 L1607.36 593.032 L1608.46 588.445 L1609.55 583.859 L1610.63 579.273 L1611.71 574.686 L1612.78 570.1 L1613.84 565.513 L1614.89 560.927 L1615.94 556.34 L1616.98 551.754 L1618.01 547.167 L1619.03 542.581 L1620.05 537.995 L1621.06 533.408 L1622.06 528.822 L1623.06 524.235 L1624.05 519.649 L1625.04 515.062 L1626.01 510.476 L1626.98 505.889 L1627.95 501.303 L1628.91 496.716 L1629.86 492.13 L1630.8 487.544 L1631.74 482.957 L1632.68 478.371 L1633.6 473.784 L1634.53 469.198 L1635.44 464.611 L1636.35 460.025 L1637.25 455.438 L1638.15 450.852 L1639.04 446.265 L1639.93 441.679 L1640.81 437.093 L1641.68 432.506 L1642.55 427.92 L1643.42 423.333 L1644.28 418.747 L1645.13 414.16 L1645.98 409.574 L1646.82 404.987 L1647.66 400.401 L1648.49 395.814 L1649.32 391.228 L1650.14 386.642 L1650.96 382.055 L1651.77 377.469 L1652.58 372.882 L1653.38 368.296 L1654.18 363.709 L1654.97 359.123 L1655.76 354.536 L1656.54 349.95 L1657.32 345.364 L1658.09 340.777 L1658.86 336.191 L1659.63 331.604 L1660.39 327.018 L1661.14 322.431 L1661.89 317.845 L1662.64 313.258 L1663.38 308.672 L1664.12 304.085 L1664.85 299.499 L1665.58 294.913 L1666.31 290.326 L1667.03 285.74 L1667.75 281.153 L1668.46 276.567 L1669.17 271.98 L1669.87 267.394 L1670.57 262.807 L1671.27 258.221 L1671.96 253.634 L1672.65 249.048 L1673.34 244.462 L1674.02 239.875 L1674.7 235.289 L1675.37 230.702 L1676.04 226.116 L1676.71 221.529 L1677.37 216.943 L1678.03 212.356 L1678.68 207.77 L1679.34 203.183 L1679.98 198.597 L1680.63 194.011 L1681.27 189.424 L1681.91 184.838 L1682.54 180.251 L1683.17 175.665 L1683.8 171.078 L1684.43 166.492 L1685.05 161.905 L1685.66 157.319 L1686.28 152.733 L1686.89 148.146 L1687.5 143.56 L1688.1 138.973 L1688.7 134.387 L1689.3 129.8 L1689.9 125.214 L1690.49 120.627 L1691.08 116.041 L1691.67 111.454 L1692.25 106.868 L1692.83 102.282 L1693.41 97.6951 L1693.98 93.1086 L1694.55 88.5222 L1695.12 83.9357 L1695.68 79.3493 L1696.25 74.7628 L1696.81 70.1764 L1697.36 65.5899 L1697.92 61.0035 L1698.47 56.417 L1699.02 51.8305 L1699.56 47.2441 L2352.76 47.2441 L2352.76 1423.18 L175.445 1423.18 L175.445 964.535  Z" fill="#0000ff" fill-rule="evenodd" fill-opacity="0.35"/>
<polyline clip-path="url(#clip741)" style="stroke:#000000; stroke-linecap:round; stroke-linejoin:round; stroke-width:4; stroke-opacity:0; fill:none" points="175.445,964.535 1481.83,964.535 1484,959.948 1486.14,955.362 1488.27,950.775 1490.37,946.189 1492.45,941.602 1494.51,937.016 1496.56,932.429 1498.58,927.843 1500.58,923.257 1502.57,918.67 1504.53,914.084 1506.48,909.497 1508.41,904.911 1510.32,900.324 1512.21,895.738 1514.09,891.151 1515.95,886.565 1517.79,881.978 1519.61,877.392 1521.42,872.806 1523.21,868.219 1524.99,863.633 1526.75,859.046 1528.49,854.46 1530.22,849.873 1531.93,845.287 1533.63,840.7 1535.31,836.114 1536.98,831.527 1538.63,826.941 1540.27,822.355 1541.9,817.768 1543.51,813.182 1545.1,808.595 1546.69,804.009 1548.26,799.422 1549.82,794.836 1551.36,790.249 1552.89,785.663 1554.41,781.076 1555.91,776.49 1557.41,771.904 1558.89,767.317 1560.36,762.731 1561.81,758.144 1563.26,753.558 1564.69,748.971 1566.11,744.385 1567.52,739.798 1568.92,735.212 1570.31,730.626 1571.69,726.039 1573.05,721.453 1574.41,716.866 1575.75,712.28 1577.09,707.693 1578.41,703.107 1579.73,698.52 1581.03,693.934 1582.32,689.347 1583.61,684.761 1584.88,680.175 1586.14,675.588 1587.4,671.002 1588.64,666.415 1589.88,661.829 1591.11,657.242 1592.32,652.656 1593.53,648.069 1594.73,643.483 1595.92,638.896 1597.1,634.31 1598.28,629.724 1599.44,625.137 1600.6,620.551 1601.74,615.964 1602.88,611.378 1604.01,606.791 1605.14,602.205 1606.25,597.618 1607.36,593.032 1608.46,588.445 1609.55,583.859 1610.63,579.273 1611.71,574.686 1612.78,570.1 1613.84,565.513 1614.89,560.927 1615.94,556.34 1616.98,551.754 1618.01,547.167 1619.03,542.581 1620.05,537.995 1621.06,533.408 1622.06,528.822 1623.06,524.235 1624.05,519.649 1625.04,515.062 1626.01,510.476 1626.98,505.889 1627.95,501.303 1628.91,496.716 1629.86,492.13 1630.8,487.544 1631.74,482.957 1632.68,478.371 1633.6,473.784 1634.53,469.198 1635.44,464.611 1636.35,460.025 1637.25,455.438 1638.15,450.852 1639.04,446.265 1639.93,441.679 1640.81,437.093 1641.68,432.506 1642.55,427.92 1643.42,423.333 1644.28,418.747 1645.13,414.16 1645.98,409.574 1646.82,404.987 1647.66,400.401 1648.49,395.814 1649.32,391.228 1650.14,386.642 1650.96,382.055 1651.77,377.469 1652.58,372.882 1653.38,368.296 1654.18,363.709 1654.97,359.123 1655.76,354.536 1656.54,349.95 1657.32,345.364 1658.09,340.777 1658.86,336.191 1659.63,331.604 1660.39,327.018 1661.14,322.431 1661.89,317.845 1662.64,313.258 1663.38,308.672 1664.12,304.085 1664.85,299.499 1665.58,294.913 1666.31,290.326 1667.03,285.74 1667.75,281.153 1668.46,276.567 1669.17,271.98 1669.87,267.394 1670.57,262.807 1671.27,258.221 1671.96,253.634 1672.65,249.048 1673.34,244.462 1674.02,239.875 1674.7,235.289 1675.37,230.702 1676.04,226.116 1676.71,221.529 1677.37,216.943 1678.03,212.356 1678.68,207.77 1679.34,203.183 1679.98,198.597 1680.63,194.011 1681.27,189.424 1681.91,184.838 1682.54,180.251 1683.17,175.665 1683.8,171.078 1684.43,166.492 1685.05,161.905 1685.66,157.319 1686.28,152.733 1686.89,148.146 1687.5,143.56 1688.1,138.973 1688.7,134.387 1689.3,129.8 1689.9,125.214 1690.49,120.627 1691.08,116.041 1691.67,111.454 1692.25,106.868 1692.83,102.282 1693.41,97.6951 1693.98,93.1086 1694.55,88.5222 1695.12,83.9357 1695.68,79.3493 1696.25,74.7628 1696.81,70.1764 1697.36,65.5899 1697.92,61.0035 1698.47,56.417 1699.02,51.8305 1699.56,47.2441 2352.76,47.2441 2352.76,1423.18 175.445,1423.18 175.445,964.535 "/>
<polyline clip-path="url(#clip741)" style="stroke:#008000; stroke-linecap:round; stroke-linejoin:round; stroke-width:12; stroke-opacity:1; fill:none" points="175.445,964.535 1481.83,964.535 "/>
<polyline clip-path="url(#clip741)" style="stroke:#ffd700; stroke-linecap:round; stroke-linejoin:round; stroke-width:12; stroke-opacity:1; fill:none" points="1481.83,964.535 1484,959.948 1486.14,955.362 1488.27,950.775 1490.37,946.189 1492.45,941.602 1494.51,937.016 1496.56,932.429 1498.58,927.843 1500.58,923.257 1502.57,918.67 1504.53,914.084 1506.48,909.497 1508.41,904.911 1510.32,900.324 1512.21,895.738 1514.09,891.151 1515.95,886.565 1517.79,881.978 1519.61,877.392 1521.42,872.806 1523.21,868.219 1524.99,863.633 1526.75,859.046 1528.49,854.46 1530.22,849.873 1531.93,845.287 1533.63,840.7 1535.31,836.114 1536.98,831.527 1538.63,826.941 1540.27,822.355 1541.9,817.768 1543.51,813.182 1545.1,808.595 1546.69,804.009 1548.26,799.422 1549.82,794.836 1551.36,790.249 1552.89,785.663 1554.41,781.076 1555.91,776.49 1557.41,771.904 1558.89,767.317 1560.36,762.731 1561.81,758.144 1563.26,753.558 1564.69,748.971 1566.11,744.385 1567.52,739.798 1568.92,735.212 1570.31,730.626 1571.69,726.039 1573.05,721.453 1574.41,716.866 1575.75,712.28 1577.09,707.693 1578.41,703.107 1579.73,698.52 1581.03,693.934 1582.32,689.347 1583.61,684.761 1584.88,680.175 1586.14,675.588 1587.4,671.002 1588.64,666.415 1589.88,661.829 1591.11,657.242 1592.32,652.656 1593.53,648.069 1594.73,643.483 1595.92,638.896 1597.1,634.31 1598.28,629.724 1599.44,625.137 1600.6,620.551 1601.74,615.964 1602.88,611.378 1604.01,606.791 1605.14,602.205 1606.25,597.618 1607.36,593.032 1608.46,588.445 1609.55,583.859 1610.63,579.273 1611.71,574.686 1612.78,570.1 1613.84,565.513 1614.89,560.927 1615.94,556.34 1616.98,551.754 1618.01,547.167 1619.03,542.581 1620.05,537.995 1621.06,533.408 1622.06,528.822 1623.06,524.235 1624.05,519.649 1625.04,515.062 1626.01,510.476 1626.98,505.889 1627.95,501.303 1628.91,496.716 1629.86,492.13 1630.8,487.544 1631.74,482.957 1632.68,478.371 1633.6,473.784 1634.53,469.198 1635.44,464.611 1636.35,460.025 1637.25,455.438 1638.15,450.852 1639.04,446.265 1639.93,441.679 1640.81,437.093 1641.68,432.506 1642.55,427.92 1643.42,423.333 1644.28,418.747 1645.13,414.16 1645.98,409.574 1646.82,404.987 1647.66,400.401 1648.49,395.814 1649.32,391.228 1650.14,386.642 1650.96,382.055 1651.77,377.469 1652.58,372.882 1653.38,368.296 1654.18,363.709 1654.97,359.123 1655.76,354.536 1656.54,349.95 1657.32,345.364 1658.09,340.777 1658.86,336.191 1659.63,331.604 1660.39,327.018 1661.14,322.431 1661.89,317.845 1662.64,313.258 1663.38,308.672 1664.12,304.085 1664.85,299.499 1665.58,294.913 1666.31,290.326 1667.03,285.74 1667.75,281.153 1668.46,276.567 1669.17,271.98 1669.87,267.394 1670.57,262.807 1671.27,258.221 1671.96,253.634 1672.65,249.048 1673.34,244.462 1674.02,239.875 1674.7,235.289 1675.37,230.702 1676.04,226.116 1676.71,221.529 1677.37,216.943 1678.03,212.356 1678.68,207.77 1679.34,203.183 1679.98,198.597 1680.63,194.011 1681.27,189.424 1681.91,184.838 1682.54,180.251 1683.17,175.665 1683.8,171.078 1684.43,166.492 1685.05,161.905 1685.66,157.319 1686.28,152.733 1686.89,148.146 1687.5,143.56 1688.1,138.973 1688.7,134.387 1689.3,129.8 1689.9,125.214 1690.49,120.627 1691.08,116.041 1691.67,111.454 1692.25,106.868 1692.83,102.282 1693.41,97.6951 1693.98,93.1086 1694.55,88.5222 1695.12,83.9357 1695.68,79.3493 1696.25,74.7628 1696.81,70.1764 1697.36,65.5899 1697.92,61.0035 1698.47,56.417 1699.02,51.8305 1699.56,47.2441 "/>
<path clip-path="url(#clip740)" d="M248.022 352.309 L828.413 352.309 L828.413 93.1086 L248.022 93.1086  Z" fill="#ffffff" fill-rule="evenodd" fill-opacity="1"/>
<polyline clip-path="url(#clip740)" style="stroke:#000000; stroke-linecap:round; stroke-linejoin:round; stroke-width:4; stroke-opacity:1; fill:none" points="248.022,352.309 828.413,352.309 828.413,93.1086 248.022,93.1086 248.022,352.309 "/>
<path clip-path="url(#clip740)" d="M272.215 165.685 L417.369 165.685 L417.369 124.213 L272.215 124.213 L272.215 165.685  Z" fill="#ff0000" fill-rule="evenodd" fill-opacity="0.35"/>
<polyline clip-path="url(#clip740)" style="stroke:#000000; stroke-linecap:round; stroke-linejoin:round; stroke-width:4; stroke-opacity:0; fill:none" points="272.215,165.685 417.369,165.685 417.369,124.213 272.215,124.213 272.215,165.685 "/>
<path clip-path="url(#clip740)" d="M441.561 151.997 L441.561 136.303 L445.82 136.303 L445.82 151.835 Q445.82 155.516 447.255 157.368 Q448.691 159.196 451.561 159.196 Q455.01 159.196 457.001 156.997 Q459.015 154.798 459.015 151.002 L459.015 136.303 L463.274 136.303 L463.274 162.229 L459.015 162.229 L459.015 158.247 Q457.464 160.608 455.403 161.766 Q453.366 162.9 450.658 162.9 Q446.191 162.9 443.876 160.122 Q441.561 157.344 441.561 151.997 M452.278 135.678 L452.278 135.678 Z" fill="#000000" fill-rule="nonzero" fill-opacity="1" /><path clip-path="url(#clip740)" d="M487.672 140.701 L517.348 140.701 L517.348 144.59 L487.672 144.59 L487.672 140.701 M487.672 150.145 L517.348 150.145 L517.348 154.081 L487.672 154.081 L487.672 150.145 Z" fill="#000000" fill-rule="nonzero" fill-opacity="1" /><path clip-path="url(#clip740)" d="M539.755 147.344 L552.232 147.344 L552.232 151.141 L539.755 151.141 L539.755 147.344 Z" fill="#000000" fill-rule="nonzero" fill-opacity="1" /><path clip-path="url(#clip740)" d="M560.426 158.293 L568.065 158.293 L568.065 131.928 L559.755 133.595 L559.755 129.335 L568.019 127.669 L572.695 127.669 L572.695 158.293 L580.333 158.293 L580.333 162.229 L560.426 162.229 L560.426 158.293 Z" fill="#000000" fill-rule="nonzero" fill-opacity="1" /><path clip-path="url(#clip740)" d="M272.215 217.525 L417.369 217.525 L417.369 176.053 L272.215 176.053 L272.215 217.525  Z" fill="#0000ff" fill-rule="evenodd" fill-opacity="0.35"/>
<polyline clip-path="url(#clip740)" style="stroke:#000000; stroke-linecap:round; stroke-linejoin:round; stroke-width:4; stroke-opacity:0; fill:none" points="272.215,217.525 417.369,217.525 417.369,176.053 272.215,176.053 272.215,217.525 "/>
<path clip-path="url(#clip740)" d="M441.561 203.837 L441.561 188.143 L445.82 188.143 L445.82 203.675 Q445.82 207.356 447.255 209.208 Q448.691 211.036 451.561 211.036 Q455.01 211.036 457.001 208.837 Q459.015 206.638 459.015 202.842 L459.015 188.143 L463.274 188.143 L463.274 214.069 L459.015 214.069 L459.015 210.087 Q457.464 212.448 455.403 213.606 Q453.366 214.74 450.658 214.74 Q446.191 214.74 443.876 211.962 Q441.561 209.184 441.561 203.837 M452.278 187.518 L452.278 187.518 Z" fill="#000000" fill-rule="nonzero" fill-opacity="1" /><path clip-path="url(#clip740)" d="M487.672 192.541 L517.348 192.541 L517.348 196.43 L487.672 196.43 L487.672 192.541 M487.672 201.985 L517.348 201.985 L517.348 205.921 L487.672 205.921 L487.672 201.985 Z" fill="#000000" fill-rule="nonzero" fill-opacity="1" /><path clip-path="url(#clip740)" d="M559.246 184.347 L559.246 197.24 L572.139 197.24 L572.139 201.175 L559.246 201.175 L559.246 214.069 L555.357 214.069 L555.357 201.175 L542.463 201.175 L542.463 197.24 L555.357 197.24 L555.357 184.347 L559.246 184.347 Z" fill="#000000" fill-rule="nonzero" fill-opacity="1" /><path clip-path="url(#clip740)" d="M583.042 210.133 L590.681 210.133 L590.681 183.768 L582.37 185.435 L582.37 181.175 L590.634 179.509 L595.31 179.509 L595.31 210.133 L602.949 210.133 L602.949 214.069 L583.042 214.069 L583.042 210.133 Z" fill="#000000" fill-rule="nonzero" fill-opacity="1" /><polyline clip-path="url(#clip740)" style="stroke:#008000; stroke-linecap:round; stroke-linejoin:round; stroke-width:12; stroke-opacity:1; fill:none" points="272.215,248.629 417.369,248.629 "/>
<path clip-path="url(#clip740)" d="M463.806 232.483 L463.806 237.043 Q461.144 235.77 458.783 235.145 Q456.422 234.52 454.223 234.52 Q450.404 234.52 448.32 236.001 Q446.26 237.483 446.26 240.214 Q446.26 242.506 447.626 243.687 Q449.015 244.844 452.857 245.562 L455.681 246.14 Q460.913 247.136 463.39 249.659 Q465.89 252.159 465.89 256.372 Q465.89 261.395 462.51 263.987 Q459.153 266.58 452.649 266.58 Q450.195 266.58 447.417 266.024 Q444.663 265.469 441.7 264.381 L441.7 259.566 Q444.547 261.163 447.279 261.973 Q450.01 262.784 452.649 262.784 Q456.653 262.784 458.829 261.21 Q461.005 259.636 461.005 256.719 Q461.005 254.173 459.431 252.737 Q457.88 251.302 454.316 250.585 L451.468 250.029 Q446.237 248.987 443.899 246.765 Q441.561 244.543 441.561 240.585 Q441.561 236.001 444.779 233.362 Q448.019 230.724 453.691 230.724 Q456.121 230.724 458.644 231.163 Q461.167 231.603 463.806 232.483 Z" fill="#000000" fill-rule="nonzero" fill-opacity="1" /><path clip-path="url(#clip740)" d="M472.996 239.983 L477.255 239.983 L477.255 265.909 L472.996 265.909 L472.996 239.983 M472.996 229.89 L477.255 229.89 L477.255 235.284 L472.996 235.284 L472.996 229.89 Z" fill="#000000" fill-rule="nonzero" fill-opacity="1" /><path clip-path="url(#clip740)" d="M507.718 250.261 L507.718 265.909 L503.459 265.909 L503.459 250.399 Q503.459 246.719 502.024 244.89 Q500.588 243.062 497.718 243.062 Q494.269 243.062 492.278 245.261 Q490.288 247.46 490.288 251.256 L490.288 265.909 L486.005 265.909 L486.005 239.983 L490.288 239.983 L490.288 244.011 Q491.815 241.673 493.875 240.515 Q495.959 239.358 498.667 239.358 Q503.135 239.358 505.426 242.136 Q507.718 244.89 507.718 250.261 Z" fill="#000000" fill-rule="nonzero" fill-opacity="1" /><path clip-path="url(#clip740)" d="M533.273 252.645 Q533.273 248.015 531.352 245.469 Q529.454 242.923 526.005 242.923 Q522.579 242.923 520.658 245.469 Q518.76 248.015 518.76 252.645 Q518.76 257.251 520.658 259.798 Q522.579 262.344 526.005 262.344 Q529.454 262.344 531.352 259.798 Q533.273 257.251 533.273 252.645 M537.533 262.691 Q537.533 269.311 534.593 272.529 Q531.653 275.77 525.588 275.77 Q523.343 275.77 521.352 275.422 Q519.361 275.098 517.486 274.404 L517.486 270.26 Q519.361 271.279 521.19 271.765 Q523.019 272.251 524.917 272.251 Q529.107 272.251 531.19 270.052 Q533.273 267.876 533.273 263.455 L533.273 261.348 Q531.954 263.64 529.894 264.774 Q527.834 265.909 524.963 265.909 Q520.195 265.909 517.278 262.274 Q514.361 258.64 514.361 252.645 Q514.361 246.626 517.278 242.992 Q520.195 239.358 524.963 239.358 Q527.834 239.358 529.894 240.492 Q531.954 241.626 533.273 243.918 L533.273 239.983 L537.533 239.983 L537.533 262.691 Z" fill="#000000" fill-rule="nonzero" fill-opacity="1" /><path clip-path="url(#clip740)" d="M545.866 255.677 L545.866 239.983 L550.125 239.983 L550.125 255.515 Q550.125 259.196 551.56 261.048 Q552.996 262.876 555.866 262.876 Q559.315 262.876 561.306 260.677 Q563.32 258.478 563.32 254.682 L563.32 239.983 L567.579 239.983 L567.579 265.909 L563.32 265.909 L563.32 261.927 Q561.769 264.288 559.708 265.446 Q557.671 266.58 554.963 266.58 Q550.496 266.58 548.181 263.802 Q545.866 261.024 545.866 255.677 M556.583 239.358 L556.583 239.358 Z" fill="#000000" fill-rule="nonzero" fill-opacity="1" /><path clip-path="url(#clip740)" d="M576.352 229.89 L580.611 229.89 L580.611 265.909 L576.352 265.909 L576.352 229.89 Z" fill="#000000" fill-rule="nonzero" fill-opacity="1" /><path clip-path="url(#clip740)" d="M601.305 252.876 Q596.143 252.876 594.153 254.057 Q592.162 255.237 592.162 258.085 Q592.162 260.353 593.643 261.696 Q595.148 263.015 597.718 263.015 Q601.259 263.015 603.389 260.515 Q605.542 257.992 605.542 253.825 L605.542 252.876 L601.305 252.876 M609.801 251.117 L609.801 265.909 L605.542 265.909 L605.542 261.973 Q604.083 264.335 601.907 265.469 Q599.731 266.58 596.583 266.58 Q592.602 266.58 590.241 264.358 Q587.903 262.112 587.903 258.362 Q587.903 253.987 590.819 251.765 Q593.759 249.543 599.569 249.543 L605.542 249.543 L605.542 249.126 Q605.542 246.187 603.597 244.589 Q601.676 242.969 598.18 242.969 Q595.958 242.969 593.852 243.501 Q591.745 244.034 589.801 245.099 L589.801 241.163 Q592.139 240.261 594.338 239.821 Q596.537 239.358 598.62 239.358 Q604.245 239.358 607.023 242.274 Q609.801 245.191 609.801 251.117 Z" fill="#000000" fill-rule="nonzero" fill-opacity="1" /><path clip-path="url(#clip740)" d="M633.597 243.964 Q632.879 243.548 632.023 243.362 Q631.19 243.154 630.171 243.154 Q626.56 243.154 624.616 245.515 Q622.694 247.853 622.694 252.251 L622.694 265.909 L618.412 265.909 L618.412 239.983 L622.694 239.983 L622.694 244.011 Q624.037 241.649 626.19 240.515 Q628.342 239.358 631.421 239.358 Q631.861 239.358 632.393 239.427 Q632.926 239.474 633.574 239.589 L633.597 243.964 Z" fill="#000000" fill-rule="nonzero" fill-opacity="1" /><path clip-path="url(#clip740)" d="M653.134 229.89 L657.393 229.89 L657.393 265.909 L653.134 265.909 L653.134 229.89 Z" fill="#000000" fill-rule="nonzero" fill-opacity="1" /><path clip-path="url(#clip740)" d="M676.351 242.969 Q672.925 242.969 670.935 245.654 Q668.944 248.316 668.944 252.969 Q668.944 257.622 670.912 260.307 Q672.902 262.969 676.351 262.969 Q679.754 262.969 681.745 260.284 Q683.736 257.598 683.736 252.969 Q683.736 248.362 681.745 245.677 Q679.754 242.969 676.351 242.969 M676.351 239.358 Q681.907 239.358 685.078 242.969 Q688.249 246.58 688.249 252.969 Q688.249 259.335 685.078 262.969 Q681.907 266.58 676.351 266.58 Q670.773 266.58 667.601 262.969 Q664.453 259.335 664.453 252.969 Q664.453 246.58 667.601 242.969 Q670.773 239.358 676.351 239.358 Z" fill="#000000" fill-rule="nonzero" fill-opacity="1" /><path clip-path="url(#clip740)" d="M713.967 240.978 L713.967 244.96 Q712.161 243.964 710.333 243.478 Q708.527 242.969 706.675 242.969 Q702.532 242.969 700.24 245.608 Q697.948 248.224 697.948 252.969 Q697.948 257.714 700.24 260.353 Q702.532 262.969 706.675 262.969 Q708.527 262.969 710.333 262.483 Q712.161 261.973 713.967 260.978 L713.967 264.913 Q712.185 265.747 710.263 266.163 Q708.365 266.58 706.212 266.58 Q700.356 266.58 696.907 262.899 Q693.458 259.219 693.458 252.969 Q693.458 246.626 696.93 242.992 Q700.425 239.358 706.49 239.358 Q708.458 239.358 710.333 239.775 Q712.208 240.168 713.967 240.978 Z" fill="#000000" fill-rule="nonzero" fill-opacity="1" /><path clip-path="url(#clip740)" d="M720.934 255.677 L720.934 239.983 L725.194 239.983 L725.194 255.515 Q725.194 259.196 726.629 261.048 Q728.064 262.876 730.934 262.876 Q734.383 262.876 736.374 260.677 Q738.388 258.478 738.388 254.682 L738.388 239.983 L742.647 239.983 L742.647 265.909 L738.388 265.909 L738.388 261.927 Q736.837 264.288 734.777 265.446 Q732.74 266.58 730.032 266.58 Q725.564 266.58 723.249 263.802 Q720.934 261.024 720.934 255.677 M731.652 239.358 L731.652 239.358 Z" fill="#000000" fill-rule="nonzero" fill-opacity="1" /><path clip-path="url(#clip740)" d="M767.948 240.747 L767.948 244.774 Q766.143 243.849 764.198 243.386 Q762.254 242.923 760.17 242.923 Q756.999 242.923 755.402 243.895 Q753.828 244.867 753.828 246.811 Q753.828 248.293 754.962 249.149 Q756.096 249.983 759.522 250.747 L760.981 251.071 Q765.518 252.043 767.416 253.825 Q769.337 255.585 769.337 258.756 Q769.337 262.367 766.467 264.473 Q763.619 266.58 758.619 266.58 Q756.536 266.58 754.268 266.163 Q752.022 265.77 749.522 264.96 L749.522 260.561 Q751.883 261.788 754.175 262.413 Q756.467 263.015 758.712 263.015 Q761.721 263.015 763.342 261.997 Q764.962 260.955 764.962 259.08 Q764.962 257.344 763.781 256.418 Q762.624 255.492 758.666 254.636 L757.184 254.288 Q753.226 253.455 751.467 251.742 Q749.707 250.006 749.707 246.997 Q749.707 243.339 752.3 241.349 Q754.893 239.358 759.661 239.358 Q762.022 239.358 764.106 239.705 Q766.189 240.052 767.948 240.747 Z" fill="#000000" fill-rule="nonzero" fill-opacity="1" /><polyline clip-path="url(#clip740)" style="stroke:#ffd700; stroke-linecap:round; stroke-linejoin:round; stroke-width:12; stroke-opacity:1; fill:none" points="272.215,300.469 417.369,300.469 "/>
<path clip-path="url(#clip740)" d="M463.806 284.323 L463.806 288.883 Q461.144 287.61 458.783 286.985 Q456.422 286.36 454.223 286.36 Q450.404 286.36 448.32 287.841 Q446.26 289.323 446.26 292.054 Q446.26 294.346 447.626 295.527 Q449.015 296.684 452.857 297.402 L455.681 297.98 Q460.913 298.976 463.39 301.499 Q465.89 303.999 465.89 308.212 Q465.89 313.235 462.51 315.827 Q459.153 318.42 452.649 318.42 Q450.195 318.42 447.417 317.864 Q444.663 317.309 441.7 316.221 L441.7 311.406 Q444.547 313.003 447.279 313.813 Q450.01 314.624 452.649 314.624 Q456.653 314.624 458.829 313.05 Q461.005 311.476 461.005 308.559 Q461.005 306.013 459.431 304.577 Q457.88 303.142 454.316 302.425 L451.468 301.869 Q446.237 300.827 443.899 298.605 Q441.561 296.383 441.561 292.425 Q441.561 287.841 444.779 285.202 Q448.019 282.564 453.691 282.564 Q456.121 282.564 458.644 283.003 Q461.167 283.443 463.806 284.323 Z" fill="#000000" fill-rule="nonzero" fill-opacity="1" /><path clip-path="url(#clip740)" d="M470.519 291.823 L474.778 291.823 L480.102 312.054 L485.403 291.823 L490.426 291.823 L495.75 312.054 L501.051 291.823 L505.311 291.823 L498.528 317.749 L493.505 317.749 L487.926 296.499 L482.325 317.749 L477.302 317.749 L470.519 291.823 Z" fill="#000000" fill-rule="nonzero" fill-opacity="1" /><path clip-path="url(#clip740)" d="M511.769 291.823 L516.028 291.823 L516.028 317.749 L511.769 317.749 L511.769 291.823 M511.769 281.73 L516.028 281.73 L516.028 287.124 L511.769 287.124 L511.769 281.73 Z" fill="#000000" fill-rule="nonzero" fill-opacity="1" /><path clip-path="url(#clip740)" d="M529.153 284.462 L529.153 291.823 L537.926 291.823 L537.926 295.133 L529.153 295.133 L529.153 309.207 Q529.153 312.378 530.01 313.281 Q530.889 314.184 533.551 314.184 L537.926 314.184 L537.926 317.749 L533.551 317.749 Q528.621 317.749 526.746 315.92 Q524.871 314.068 524.871 309.207 L524.871 295.133 L521.746 295.133 L521.746 291.823 L524.871 291.823 L524.871 284.462 L529.153 284.462 Z" fill="#000000" fill-rule="nonzero" fill-opacity="1" /><path clip-path="url(#clip740)" d="M562.185 292.818 L562.185 296.8 Q560.38 295.804 558.551 295.318 Q556.746 294.809 554.894 294.809 Q550.75 294.809 548.459 297.448 Q546.167 300.064 546.167 304.809 Q546.167 309.554 548.459 312.193 Q550.75 314.809 554.894 314.809 Q556.746 314.809 558.551 314.323 Q560.38 313.813 562.185 312.818 L562.185 316.753 Q560.403 317.587 558.482 318.003 Q556.583 318.42 554.431 318.42 Q548.574 318.42 545.125 314.739 Q541.676 311.059 541.676 304.809 Q541.676 298.466 545.148 294.832 Q548.644 291.198 554.709 291.198 Q556.676 291.198 558.551 291.615 Q560.426 292.008 562.185 292.818 Z" fill="#000000" fill-rule="nonzero" fill-opacity="1" /><path clip-path="url(#clip740)" d="M591.143 302.101 L591.143 317.749 L586.884 317.749 L586.884 302.239 Q586.884 298.559 585.449 296.73 Q584.014 294.902 581.144 294.902 Q577.694 294.902 575.704 297.101 Q573.713 299.3 573.713 303.096 L573.713 317.749 L569.431 317.749 L569.431 281.73 L573.713 281.73 L573.713 295.851 Q575.241 293.513 577.301 292.355 Q579.384 291.198 582.093 291.198 Q586.56 291.198 588.852 293.976 Q591.143 296.73 591.143 302.101 Z" fill="#000000" fill-rule="nonzero" fill-opacity="1" /><path clip-path="url(#clip740)" d="M599.639 291.823 L603.898 291.823 L603.898 317.749 L599.639 317.749 L599.639 291.823 M599.639 281.73 L603.898 281.73 L603.898 287.124 L599.639 287.124 L599.639 281.73 Z" fill="#000000" fill-rule="nonzero" fill-opacity="1" /><path clip-path="url(#clip740)" d="M634.361 302.101 L634.361 317.749 L630.102 317.749 L630.102 302.239 Q630.102 298.559 628.666 296.73 Q627.231 294.902 624.361 294.902 Q620.912 294.902 618.921 297.101 Q616.93 299.3 616.93 303.096 L616.93 317.749 L612.648 317.749 L612.648 291.823 L616.93 291.823 L616.93 295.851 Q618.458 293.513 620.518 292.355 Q622.602 291.198 625.31 291.198 Q629.778 291.198 632.069 293.976 Q634.361 296.73 634.361 302.101 Z" fill="#000000" fill-rule="nonzero" fill-opacity="1" /><path clip-path="url(#clip740)" d="M659.916 304.485 Q659.916 299.855 657.995 297.309 Q656.097 294.763 652.648 294.763 Q649.222 294.763 647.301 297.309 Q645.402 299.855 645.402 304.485 Q645.402 309.091 647.301 311.638 Q649.222 314.184 652.648 314.184 Q656.097 314.184 657.995 311.638 Q659.916 309.091 659.916 304.485 M664.176 314.531 Q664.176 321.151 661.236 324.369 Q658.296 327.61 652.231 327.61 Q649.986 327.61 647.995 327.262 Q646.004 326.938 644.129 326.244 L644.129 322.1 Q646.004 323.119 647.833 323.605 Q649.662 324.091 651.56 324.091 Q655.75 324.091 657.833 321.892 Q659.916 319.716 659.916 315.295 L659.916 313.188 Q658.597 315.48 656.537 316.614 Q654.476 317.749 651.606 317.749 Q646.838 317.749 643.921 314.114 Q641.004 310.48 641.004 304.485 Q641.004 298.466 643.921 294.832 Q646.838 291.198 651.606 291.198 Q654.476 291.198 656.537 292.332 Q658.597 293.466 659.916 295.758 L659.916 291.823 L664.176 291.823 L664.176 314.531 Z" fill="#000000" fill-rule="nonzero" fill-opacity="1" /><path clip-path="url(#clip740)" d="M688.018 281.73 L692.277 281.73 L692.277 317.749 L688.018 317.749 L688.018 281.73 Z" fill="#000000" fill-rule="nonzero" fill-opacity="1" /><path clip-path="url(#clip740)" d="M711.235 294.809 Q707.81 294.809 705.819 297.494 Q703.828 300.156 703.828 304.809 Q703.828 309.462 705.796 312.147 Q707.786 314.809 711.235 314.809 Q714.638 314.809 716.629 312.124 Q718.62 309.438 718.62 304.809 Q718.62 300.202 716.629 297.517 Q714.638 294.809 711.235 294.809 M711.235 291.198 Q716.791 291.198 719.962 294.809 Q723.134 298.42 723.134 304.809 Q723.134 311.175 719.962 314.809 Q716.791 318.42 711.235 318.42 Q705.657 318.42 702.485 314.809 Q699.337 311.175 699.337 304.809 Q699.337 298.42 702.485 294.809 Q705.657 291.198 711.235 291.198 Z" fill="#000000" fill-rule="nonzero" fill-opacity="1" /><path clip-path="url(#clip740)" d="M748.851 292.818 L748.851 296.8 Q747.045 295.804 745.217 295.318 Q743.411 294.809 741.559 294.809 Q737.416 294.809 735.124 297.448 Q732.833 300.064 732.833 304.809 Q732.833 309.554 735.124 312.193 Q737.416 314.809 741.559 314.809 Q743.411 314.809 745.217 314.323 Q747.045 313.813 748.851 312.818 L748.851 316.753 Q747.069 317.587 745.147 318.003 Q743.249 318.42 741.096 318.42 Q735.24 318.42 731.791 314.739 Q728.342 311.059 728.342 304.809 Q728.342 298.466 731.814 294.832 Q735.309 291.198 741.374 291.198 Q743.342 291.198 745.217 291.615 Q747.092 292.008 748.851 292.818 Z" fill="#000000" fill-rule="nonzero" fill-opacity="1" /><path clip-path="url(#clip740)" d="M755.819 307.517 L755.819 291.823 L760.078 291.823 L760.078 307.355 Q760.078 311.036 761.513 312.888 Q762.948 314.716 765.818 314.716 Q769.268 314.716 771.258 312.517 Q773.272 310.318 773.272 306.522 L773.272 291.823 L777.531 291.823 L777.531 317.749 L773.272 317.749 L773.272 313.767 Q771.721 316.128 769.661 317.286 Q767.624 318.42 764.916 318.42 Q760.448 318.42 758.133 315.642 Q755.819 312.864 755.819 307.517 M766.536 291.198 L766.536 291.198 Z" fill="#000000" fill-rule="nonzero" fill-opacity="1" /><path clip-path="url(#clip740)" d="M802.832 292.587 L802.832 296.614 Q801.027 295.689 799.082 295.226 Q797.138 294.763 795.054 294.763 Q791.883 294.763 790.286 295.735 Q788.712 296.707 788.712 298.651 Q788.712 300.133 789.846 300.989 Q790.98 301.823 794.406 302.587 L795.865 302.911 Q800.402 303.883 802.3 305.665 Q804.221 307.425 804.221 310.596 Q804.221 314.207 801.351 316.313 Q798.503 318.42 793.504 318.42 Q791.42 318.42 789.152 318.003 Q786.906 317.61 784.406 316.8 L784.406 312.401 Q786.767 313.628 789.059 314.253 Q791.351 314.855 793.596 314.855 Q796.605 314.855 798.226 313.837 Q799.846 312.795 799.846 310.92 Q799.846 309.184 798.666 308.258 Q797.508 307.332 793.55 306.476 L792.068 306.128 Q788.11 305.295 786.351 303.582 Q784.592 301.846 784.592 298.837 Q784.592 295.179 787.184 293.189 Q789.777 291.198 794.545 291.198 Q796.906 291.198 798.99 291.545 Q801.073 291.892 802.832 292.587 Z" fill="#000000" fill-rule="nonzero" fill-opacity="1" /></svg>
