<?xml version="1.0" encoding="utf-8"?>
<svg xmlns="http://www.w3.org/2000/svg" xmlns:xlink="http://www.w3.org/1999/xlink" width="600" height="400" viewBox="0 0 2400 1600">
<defs>
  <clipPath id="clip630">
    <rect x="0" y="0" width="2400" height="1600"/>
  </clipPath>
</defs>
<path clip-path="url(#clip630)" d="M0 1600 L2400 1600 L2400 0 L0 0  Z" fill="#ffffff" fill-rule="evenodd" fill-opacity="1"/>
<defs>
  <clipPath id="clip631">
    <rect x="147" y="47" width="2207" height="1440"/>
  </clipPath>
</defs>
<path clip-path="url(#clip630)" d="M147.108 1486.45 L2352.76 1486.45 L2352.76 47.2441 L147.108 47.2441  Z" fill="#ffffff" fill-rule="evenodd" fill-opacity="1"/>
<polyline clip-path="url(#clip631)" style="stroke:#000000; stroke-linecap:round; stroke-linejoin:round; stroke-width:2; stroke-opacity:0.1; fill:none" points="147.108,1486.45 147.108,47.2441 "/>
<polyline clip-path="url(#clip631)" style="stroke:#000000; stroke-linecap:round; stroke-linejoin:round; stroke-width:2; stroke-opacity:0.1; fill:none" points="611.455,1486.45 611.455,47.2441 "/>
<polyline clip-path="url(#clip631)" style="stroke:#000000; stroke-linecap:round; stroke-linejoin:round; stroke-width:2; stroke-opacity:0.1; fill:none" points="1075.8,1486.45 1075.8,47.2441 "/>
<polyline clip-path="url(#clip631)" style="stroke:#000000; stroke-linecap:round; stroke-linejoin:round; stroke-width:2; stroke-opacity:0.1; fill:none" points="1540.15,1486.45 1540.15,47.2441 "/>
<polyline clip-path="url(#clip631)" style="stroke:#000000; stroke-linecap:round; stroke-linejoin:round; stroke-width:2; stroke-opacity:0.1; fill:none" points="2004.5,1486.45 2004.5,47.2441 "/>
<polyline clip-path="url(#clip631)" style="stroke:#000000; stroke-linecap:round; stroke-linejoin:round; stroke-width:2; stroke-opacity:0.1; fill:none" points="147.108,1231.34 2352.76,1231.34 "/>
<polyline clip-path="url(#clip631)" style="stroke:#000000; stroke-linecap:round; stroke-linejoin:round; stroke-width:2; stroke-opacity:0.1; fill:none" points="147.108,945.496 2352.76,945.496 "/>
<polyline clip-path="url(#clip631)" style="stroke:#000000; stroke-linecap:round; stroke-linejoin:round; stroke-width:2; stroke-opacity:0.1; fill:none" points="147.108,659.656 2352.76,659.656 "/>
<polyline clip-path="url(#clip631)" style="stroke:#000000; stroke-linecap:round; stroke-linejoin:round; stroke-width:2; stroke-opacity:0.1; fill:none" points="147.108,373.816 2352.76,373.816 "/>
<polyline clip-path="url(#clip631)" style="stroke:#000000; stroke-linecap:round; stroke-linejoin:round; stroke-width:2; stroke-opacity:0.1; fill:none" points="147.108,87.9763 2352.76,87.9763 "/>
<polyline clip-path="url(#clip630)" style="stroke:#000000; stroke-linecap:round; stroke-linejoin:round; stroke-width:4; stroke-opacity:1; fill:none" points="147.108,1486.45 2352.76,1486.45 "/>
<polyline clip-path="url(#clip630)" style="stroke:#000000; stroke-linecap:round; stroke-linejoin:round; stroke-width:4; stroke-opacity:1; fill:none" points="147.108,1486.45 147.108,1467.55 "/>
<polyline clip-path="url(#clip630)" style="stroke:#000000; stroke-linecap:round; stroke-linejoin:round; stroke-width:4; stroke-opacity:1; fill:none" points="611.455,1486.45 611.455,1467.55 "/>
<polyline clip-path="url(#clip630)" style="stroke:#000000; stroke-linecap:round; stroke-linejoin:round; stroke-width:4; stroke-opacity:1; fill:none" points="1075.8,1486.45 1075.8,1467.55 "/>
<polyline clip-path="url(#clip630)" style="stroke:#000000; stroke-linecap:round; stroke-linejoin:round; stroke-width:4; stroke-opacity:1; fill:none" points="1540.15,1486.45 1540.15,1467.55 "/>
<polyline clip-path="url(#clip630)" style="stroke:#000000; stroke-linecap:round; stroke-linejoin:round; stroke-width:4; stroke-opacity:1; fill:none" points="2004.5,1486.45 2004.5,1467.55 "/>
<path clip-path="url(#clip630)" d="M147.108 1517.37 Q143.496 1517.37 141.668 1520.93 Q139.862 1524.47 139.862 1531.6 Q139.862 1538.71 141.668 1542.27 Q143.496 1545.82 147.108 1545.82 Q150.742 1545.82 152.547 1542.27 Q154.376 1538.71 154.376 1531.6 Q154.376 1524.47 152.547 1520.93 Q150.742 1517.37 147.108 1517.37 M147.108 1513.66 Q152.918 1513.66 155.973 1518.27 Q159.052 1522.85 159.052 1531.6 Q159.052 1540.33 155.973 1544.94 Q152.918 1549.52 147.108 1549.52 Q141.297 1549.52 138.219 1544.94 Q135.163 1540.33 135.163 1531.6 Q135.163 1522.85 138.219 1518.27 Q141.297 1513.66 147.108 1513.66 Z" fill="#000000" fill-rule="nonzero" fill-opacity="1" /><path clip-path="url(#clip630)" d="M606.107 1544.91 L622.427 1544.91 L622.427 1548.85 L600.482 1548.85 L600.482 1544.91 Q603.144 1542.16 607.728 1537.53 Q612.334 1532.88 613.515 1531.53 Q615.76 1529.01 616.64 1527.27 Q617.542 1525.51 617.542 1523.82 Q617.542 1521.07 615.598 1519.33 Q613.677 1517.6 610.575 1517.6 Q608.376 1517.6 605.922 1518.36 Q603.492 1519.13 600.714 1520.68 L600.714 1515.95 Q603.538 1514.82 605.992 1514.24 Q608.445 1513.66 610.482 1513.66 Q615.853 1513.66 619.047 1516.35 Q622.242 1519.03 622.242 1523.52 Q622.242 1525.65 621.431 1527.57 Q620.644 1529.47 618.538 1532.07 Q617.959 1532.74 614.857 1535.95 Q611.755 1539.15 606.107 1544.91 Z" fill="#000000" fill-rule="nonzero" fill-opacity="1" /><path clip-path="url(#clip630)" d="M1078.81 1518.36 L1067.01 1536.81 L1078.81 1536.81 L1078.81 1518.36 M1077.58 1514.29 L1083.46 1514.29 L1083.46 1536.81 L1088.39 1536.81 L1088.39 1540.7 L1083.46 1540.7 L1083.46 1548.85 L1078.81 1548.85 L1078.81 1540.7 L1063.21 1540.7 L1063.21 1536.19 L1077.58 1514.29 Z" fill="#000000" fill-rule="nonzero" fill-opacity="1" /><path clip-path="url(#clip630)" d="M1540.55 1529.7 Q1537.41 1529.7 1535.55 1531.86 Q1533.73 1534.01 1533.73 1537.76 Q1533.73 1541.49 1535.55 1543.66 Q1537.41 1545.82 1540.55 1545.82 Q1543.7 1545.82 1545.53 1543.66 Q1547.38 1541.49 1547.38 1537.76 Q1547.38 1534.01 1545.53 1531.86 Q1543.7 1529.7 1540.55 1529.7 M1549.84 1515.05 L1549.84 1519.31 Q1548.08 1518.48 1546.27 1518.04 Q1544.49 1517.6 1542.73 1517.6 Q1538.1 1517.6 1535.65 1520.72 Q1533.22 1523.85 1532.87 1530.17 Q1534.23 1528.15 1536.29 1527.09 Q1538.35 1526 1540.83 1526 Q1546.04 1526 1549.05 1529.17 Q1552.08 1532.32 1552.08 1537.76 Q1552.08 1543.08 1548.93 1546.3 Q1545.79 1549.52 1540.55 1549.52 Q1534.56 1549.52 1531.39 1544.94 Q1528.22 1540.33 1528.22 1531.6 Q1528.22 1523.41 1532.1 1518.55 Q1535.99 1513.66 1542.54 1513.66 Q1544.3 1513.66 1546.09 1514.01 Q1547.89 1514.36 1549.84 1515.05 Z" fill="#000000" fill-rule="nonzero" fill-opacity="1" /><path clip-path="url(#clip630)" d="M2004.5 1532.44 Q2001.16 1532.44 1999.24 1534.22 Q1997.34 1536 1997.34 1539.13 Q1997.34 1542.25 1999.24 1544.03 Q2001.16 1545.82 2004.5 1545.82 Q2007.83 1545.82 2009.75 1544.03 Q2011.67 1542.23 2011.67 1539.13 Q2011.67 1536 2009.75 1534.22 Q2007.85 1532.44 2004.5 1532.44 M1999.82 1530.45 Q1996.81 1529.7 1995.12 1527.64 Q1993.45 1525.58 1993.45 1522.62 Q1993.45 1518.48 1996.39 1516.07 Q1999.36 1513.66 2004.5 1513.66 Q2009.66 1513.66 2012.6 1516.07 Q2015.54 1518.48 2015.54 1522.62 Q2015.54 1525.58 2013.85 1527.64 Q2012.18 1529.7 2009.19 1530.45 Q2012.57 1531.23 2014.45 1533.52 Q2016.35 1535.82 2016.35 1539.13 Q2016.35 1544.15 2013.27 1546.83 Q2010.21 1549.52 2004.5 1549.52 Q1998.78 1549.52 1995.7 1546.83 Q1992.64 1544.15 1992.64 1539.13 Q1992.64 1535.82 1994.54 1533.52 Q1996.44 1531.23 1999.82 1530.45 M1998.11 1523.06 Q1998.11 1525.75 1999.77 1527.25 Q2001.46 1528.76 2004.5 1528.76 Q2007.5 1528.76 2009.19 1527.25 Q2010.91 1525.75 2010.91 1523.06 Q2010.91 1520.38 2009.19 1518.87 Q2007.5 1517.37 2004.5 1517.37 Q2001.46 1517.37 1999.77 1518.87 Q1998.11 1520.38 1998.11 1523.06 Z" fill="#000000" fill-rule="nonzero" fill-opacity="1" /><polyline clip-path="url(#clip630)" style="stroke:#000000; stroke-linecap:round; stroke-linejoin:round; stroke-width:4; stroke-opacity:1; fill:none" points="147.108,1486.45 147.108,47.2441 "/>
<polyline clip-path="url(#clip630)" style="stroke:#000000; stroke-linecap:round; stroke-linejoin:round; stroke-width:4; stroke-opacity:1; fill:none" points="147.108,1231.34 166.005,1231.34 "/>
<polyline clip-path="url(#clip630)" style="stroke:#000000; stroke-linecap:round; stroke-linejoin:round; stroke-width:4; stroke-opacity:1; fill:none" points="147.108,945.496 166.005,945.496 "/>
<polyline clip-path="url(#clip630)" style="stroke:#000000; stroke-linecap:round; stroke-linejoin:round; stroke-width:4; stroke-opacity:1; fill:none" points="147.108,659.656 166.005,659.656 "/>
<polyline clip-path="url(#clip630)" style="stroke:#000000; stroke-linecap:round; stroke-linejoin:round; stroke-width:4; stroke-opacity:1; fill:none" points="147.108,373.816 166.005,373.816 "/>
<polyline clip-path="url(#clip630)" style="stroke:#000000; stroke-linecap:round; stroke-linejoin:round; stroke-width:4; stroke-opacity:1; fill:none" points="147.108,87.9763 166.005,87.9763 "/>
<path clip-path="url(#clip630)" d="M50.9921 1231.79 L80.6679 1231.79 L80.6679 1235.72 L50.9921 1235.72 L50.9921 1231.79 Z" fill="#000000" fill-rule="nonzero" fill-opacity="1" /><path clip-path="url(#clip630)" d="M94.7882 1244.68 L111.108 1244.68 L111.108 1248.62 L89.1632 1248.62 L89.1632 1244.68 Q91.8252 1241.93 96.4085 1237.3 Q101.015 1232.64 102.196 1231.3 Q104.441 1228.78 105.321 1227.04 Q106.223 1225.28 106.223 1223.59 Q106.223 1220.84 104.279 1219.1 Q102.358 1217.37 99.2558 1217.37 Q97.0567 1217.37 94.603 1218.13 Q92.1725 1218.89 89.3947 1220.44 L89.3947 1215.72 Q92.2188 1214.59 94.6724 1214.01 Q97.1261 1213.43 99.1632 1213.43 Q104.534 1213.43 107.728 1216.12 Q110.922 1218.8 110.922 1223.29 Q110.922 1225.42 110.112 1227.34 Q109.325 1229.24 107.219 1231.83 Q106.64 1232.5 103.538 1235.72 Q100.436 1238.92 94.7882 1244.68 Z" fill="#000000" fill-rule="nonzero" fill-opacity="1" /><path clip-path="url(#clip630)" d="M99.1632 931.295 Q95.5521 931.295 93.7234 934.859 Q91.9178 938.401 91.9178 945.531 Q91.9178 952.637 93.7234 956.202 Q95.5521 959.744 99.1632 959.744 Q102.797 959.744 104.603 956.202 Q106.432 952.637 106.432 945.531 Q106.432 938.401 104.603 934.859 Q102.797 931.295 99.1632 931.295 M99.1632 927.591 Q104.973 927.591 108.029 932.197 Q111.108 936.781 111.108 945.531 Q111.108 954.257 108.029 958.864 Q104.973 963.447 99.1632 963.447 Q93.353 963.447 90.2743 958.864 Q87.2188 954.257 87.2188 945.531 Q87.2188 936.781 90.2743 932.197 Q93.353 927.591 99.1632 927.591 Z" fill="#000000" fill-rule="nonzero" fill-opacity="1" /><path clip-path="url(#clip630)" d="M94.7882 673.001 L111.108 673.001 L111.108 676.936 L89.1632 676.936 L89.1632 673.001 Q91.8252 670.246 96.4085 665.617 Q101.015 660.964 102.196 659.621 Q104.441 657.098 105.321 655.362 Q106.223 653.603 106.223 651.913 Q106.223 649.158 104.279 647.422 Q102.358 645.686 99.2558 645.686 Q97.0567 645.686 94.603 646.45 Q92.1725 647.214 89.3947 648.765 L89.3947 644.043 Q92.2188 642.908 94.6724 642.33 Q97.1261 641.751 99.1632 641.751 Q104.534 641.751 107.728 644.436 Q110.922 647.121 110.922 651.612 Q110.922 653.742 110.112 655.663 Q109.325 657.561 107.219 660.154 Q106.64 660.825 103.538 664.043 Q100.436 667.237 94.7882 673.001 Z" fill="#000000" fill-rule="nonzero" fill-opacity="1" /><path clip-path="url(#clip630)" d="M101.524 360.61 L89.7188 379.059 L101.524 379.059 L101.524 360.61 M100.297 356.536 L106.177 356.536 L106.177 379.059 L111.108 379.059 L111.108 382.948 L106.177 382.948 L106.177 391.096 L101.524 391.096 L101.524 382.948 L85.9225 382.948 L85.9225 378.434 L100.297 356.536 Z" fill="#000000" fill-rule="nonzero" fill-opacity="1" /><path clip-path="url(#clip630)" d="M99.5798 86.1129 Q96.4317 86.1129 94.5799 88.2656 Q92.7512 90.4184 92.7512 94.1684 Q92.7512 97.8952 94.5799 100.071 Q96.4317 102.224 99.5798 102.224 Q102.728 102.224 104.557 100.071 Q106.408 97.8952 106.408 94.1684 Q106.408 90.4184 104.557 88.2656 Q102.728 86.1129 99.5798 86.1129 M108.862 71.4602 L108.862 75.7194 Q107.103 74.8861 105.297 74.4463 Q103.515 74.0064 101.756 74.0064 Q97.1261 74.0064 94.6724 77.1314 Q92.2419 80.2564 91.8947 86.5758 Q93.2604 84.5619 95.3206 83.4971 Q97.3808 82.4092 99.8576 82.4092 Q105.066 82.4092 108.075 85.5805 Q111.108 88.7286 111.108 94.1684 Q111.108 99.4924 107.959 102.71 Q104.811 105.928 99.5798 105.928 Q93.5845 105.928 90.4132 101.344 Q87.2419 96.7378 87.2419 88.011 Q87.2419 79.8166 91.1308 74.9555 Q95.0197 70.0713 101.571 70.0713 Q103.33 70.0713 105.112 70.4185 Q106.918 70.7657 108.862 71.4602 Z" fill="#000000" fill-rule="nonzero" fill-opacity="1" /><polyline clip-path="url(#clip631)" style="stroke:#009af9; stroke-linecap:round; stroke-linejoin:round; stroke-width:4; stroke-opacity:1; fill:none" points="147.108,87.9763 169.878,101.993 303.243,184.089 365.284,222.28 448.442,273.47 517.156,315.769 581.054,355.102 661.267,404.48 733.219,448.771 815.578,499.469 877.141,537.366 955.881,585.836 1027.75,630.075 1109.54,680.425 1174.38,720.338 1254.93,769.926 1316.63,807.901 1403.6,861.442 1468.6,901.452 1542.51,946.952 1615.71,992.012 1696.25,1041.59 1757.76,1079.45 1835.39,1127.24 1907.19,1171.43 1981.23,1217.01 2056.28,1263.22 2134.65,1311.46 2196.39,1349.46 2336.98,1436.01 2352.76,1445.72 "/>
<polyline clip-path="url(#clip631)" style="stroke:#000000; stroke-linecap:round; stroke-linejoin:round; stroke-width:4; stroke-opacity:1; fill:none" stroke-dasharray="16, 10" points="147.108,945.496 2468.84,945.496 "/>
<circle clip-path="url(#clip631)" cx="1540.15" cy="945.496" r="14.4" fill="#ff0000" fill-rule="evenodd" fill-opacity="1" stroke="#000000" stroke-opacity="1" stroke-width="3.2"/>
<path clip-path="url(#clip630)" d="M1734 250.738 L2279.23 250.738 L2279.23 95.2176 L1734 95.2176  Z" fill="#ffffff" fill-rule="evenodd" fill-opacity="1"/>
<polyline clip-path="url(#clip630)" style="stroke:#000000; stroke-linecap:round; stroke-linejoin:round; stroke-width:4; stroke-opacity:1; fill:none" points="1734,250.738 2279.23,250.738 2279.23,95.2176 1734,95.2176 1734,250.738 "/>
<polyline clip-path="url(#clip630)" style="stroke:#009af9; stroke-linecap:round; stroke-linejoin:round; stroke-width:4; stroke-opacity:1; fill:none" points="1758.5,147.058 1905.55,147.058 "/>
<path clip-path="url(#clip630)" d="M1952.3 130.912 L1952.3 135.472 Q1949.64 134.199 1947.28 133.574 Q1944.91 132.949 1942.71 132.949 Q1938.9 132.949 1936.81 134.43 Q1934.75 135.912 1934.75 138.643 Q1934.75 140.935 1936.12 142.115 Q1937.51 143.273 1941.35 143.99 L1944.17 144.569 Q1949.4 145.565 1951.88 148.088 Q1954.38 150.588 1954.38 154.801 Q1954.38 159.824 1951 162.416 Q1947.65 165.009 1941.14 165.009 Q1938.69 165.009 1935.91 164.453 Q1933.15 163.898 1930.19 162.81 L1930.19 157.995 Q1933.04 159.592 1935.77 160.402 Q1938.5 161.213 1941.14 161.213 Q1945.15 161.213 1947.32 159.639 Q1949.5 158.064 1949.5 155.148 Q1949.5 152.602 1947.92 151.166 Q1946.37 149.731 1942.81 149.014 L1939.96 148.458 Q1934.73 147.416 1932.39 145.194 Q1930.05 142.972 1930.05 139.014 Q1930.05 134.43 1933.27 131.791 Q1936.51 129.153 1942.18 129.153 Q1944.61 129.153 1947.14 129.592 Q1949.66 130.032 1952.3 130.912 Z" fill="#000000" fill-rule="nonzero" fill-opacity="1" /><circle clip-path="url(#clip630)" cx="1832.02" cy="198.898" r="20.48" fill="#ff0000" fill-rule="evenodd" fill-opacity="1" stroke="#000000" stroke-opacity="1" stroke-width="4.55111"/>
<path clip-path="url(#clip630)" d="M1952.3 182.752 L1952.3 187.312 Q1949.64 186.039 1947.28 185.414 Q1944.91 184.789 1942.71 184.789 Q1938.9 184.789 1936.81 186.27 Q1934.75 187.752 1934.75 190.483 Q1934.75 192.775 1936.12 193.955 Q1937.51 195.113 1941.35 195.83 L1944.17 196.409 Q1949.4 197.405 1951.88 199.928 Q1954.38 202.428 1954.38 206.641 Q1954.38 211.664 1951 214.256 Q1947.65 216.849 1941.14 216.849 Q1938.69 216.849 1935.91 216.293 Q1933.15 215.738 1930.19 214.65 L1930.19 209.835 Q1933.04 211.432 1935.77 212.242 Q1938.5 213.053 1941.14 213.053 Q1945.15 213.053 1947.32 211.479 Q1949.5 209.904 1949.5 206.988 Q1949.5 204.442 1947.92 203.006 Q1946.37 201.571 1942.81 200.854 L1939.96 200.298 Q1934.73 199.256 1932.39 197.034 Q1930.05 194.812 1930.05 190.854 Q1930.05 186.27 1933.27 183.631 Q1936.51 180.993 1942.18 180.993 Q1944.61 180.993 1947.14 181.432 Q1949.66 181.872 1952.3 182.752 Z" fill="#000000" fill-rule="nonzero" fill-opacity="1" /><path clip-path="url(#clip630)" d="M1961.49 190.252 L1965.75 190.252 L1965.75 216.178 L1961.49 216.178 L1961.49 190.252 M1961.49 180.159 L1965.75 180.159 L1965.75 185.553 L1961.49 185.553 L1961.49 180.159 Z" fill="#000000" fill-rule="nonzero" fill-opacity="1" /><path clip-path="url(#clip630)" d="M1996.21 200.529 L1996.21 216.178 L1991.95 216.178 L1991.95 200.668 Q1991.95 196.988 1990.52 195.159 Q1989.08 193.33 1986.21 193.33 Q1982.76 193.33 1980.77 195.53 Q1978.78 197.729 1978.78 201.525 L1978.78 216.178 L1974.5 216.178 L1974.5 190.252 L1978.78 190.252 L1978.78 194.28 Q1980.31 191.942 1982.37 190.784 Q1984.45 189.627 1987.16 189.627 Q1991.63 189.627 1993.92 192.405 Q1996.21 195.159 1996.21 200.529 Z" fill="#000000" fill-rule="nonzero" fill-opacity="1" /><path clip-path="url(#clip630)" d="M2021.77 202.914 Q2021.77 198.284 2019.84 195.738 Q2017.95 193.192 2014.5 193.192 Q2011.07 193.192 2009.15 195.738 Q2007.25 198.284 2007.25 202.914 Q2007.25 207.52 2009.15 210.066 Q2011.07 212.613 2014.5 212.613 Q2017.95 212.613 2019.84 210.066 Q2021.77 207.52 2021.77 202.914 M2026.02 212.96 Q2026.02 219.58 2023.08 222.798 Q2020.15 226.039 2014.08 226.039 Q2011.83 226.039 2009.84 225.691 Q2007.85 225.367 2005.98 224.673 L2005.98 220.529 Q2007.85 221.548 2009.68 222.034 Q2011.51 222.52 2013.41 222.52 Q2017.6 222.52 2019.68 220.321 Q2021.77 218.145 2021.77 213.724 L2021.77 211.617 Q2020.45 213.909 2018.39 215.043 Q2016.33 216.178 2013.46 216.178 Q2008.69 216.178 2005.77 212.543 Q2002.85 208.909 2002.85 202.914 Q2002.85 196.895 2005.77 193.261 Q2008.69 189.627 2013.46 189.627 Q2016.33 189.627 2018.39 190.761 Q2020.45 191.895 2021.77 194.187 L2021.77 190.252 L2026.02 190.252 L2026.02 212.96 Z" fill="#000000" fill-rule="nonzero" fill-opacity="1" /><path clip-path="url(#clip630)" d="M2034.36 205.946 L2034.36 190.252 L2038.62 190.252 L2038.62 205.784 Q2038.62 209.465 2040.05 211.316 Q2041.49 213.145 2044.36 213.145 Q2047.81 213.145 2049.8 210.946 Q2051.81 208.747 2051.81 204.951 L2051.81 190.252 L2056.07 190.252 L2056.07 216.178 L2051.81 216.178 L2051.81 212.196 Q2050.26 214.557 2048.2 215.715 Q2046.16 216.849 2043.46 216.849 Q2038.99 216.849 2036.67 214.071 Q2034.36 211.293 2034.36 205.946 M2045.08 189.627 L2045.08 189.627 Z" fill="#000000" fill-rule="nonzero" fill-opacity="1" /><path clip-path="url(#clip630)" d="M2064.84 180.159 L2069.1 180.159 L2069.1 216.178 L2064.84 216.178 L2064.84 180.159 Z" fill="#000000" fill-rule="nonzero" fill-opacity="1" /><path clip-path="url(#clip630)" d="M2089.8 203.145 Q2084.64 203.145 2082.64 204.326 Q2080.65 205.506 2080.65 208.354 Q2080.65 210.622 2082.14 211.965 Q2083.64 213.284 2086.21 213.284 Q2089.75 213.284 2091.88 210.784 Q2094.03 208.261 2094.03 204.094 L2094.03 203.145 L2089.8 203.145 M2098.29 201.386 L2098.29 216.178 L2094.03 216.178 L2094.03 212.242 Q2092.58 214.603 2090.4 215.738 Q2088.22 216.849 2085.08 216.849 Q2081.09 216.849 2078.73 214.627 Q2076.39 212.381 2076.39 208.631 Q2076.39 204.256 2079.31 202.034 Q2082.25 199.812 2088.06 199.812 L2094.03 199.812 L2094.03 199.395 Q2094.03 196.455 2092.09 194.858 Q2090.17 193.238 2086.67 193.238 Q2084.45 193.238 2082.34 193.77 Q2080.24 194.303 2078.29 195.367 L2078.29 191.432 Q2080.63 190.53 2082.83 190.09 Q2085.03 189.627 2087.11 189.627 Q2092.74 189.627 2095.51 192.543 Q2098.29 195.46 2098.29 201.386 Z" fill="#000000" fill-rule="nonzero" fill-opacity="1" /><path clip-path="url(#clip630)" d="M2122.09 194.233 Q2121.37 193.817 2120.51 193.631 Q2119.68 193.423 2118.66 193.423 Q2115.05 193.423 2113.11 195.784 Q2111.19 198.122 2111.19 202.52 L2111.19 216.178 L2106.9 216.178 L2106.9 190.252 L2111.19 190.252 L2111.19 194.28 Q2112.53 191.918 2114.68 190.784 Q2116.83 189.627 2119.91 189.627 Q2120.35 189.627 2120.89 189.696 Q2121.42 189.743 2122.07 189.858 L2122.09 194.233 Z" fill="#000000" fill-rule="nonzero" fill-opacity="1" /><path clip-path="url(#clip630)" d="M2158.15 191.016 L2158.15 195.043 Q2156.35 194.117 2154.4 193.655 Q2152.46 193.192 2150.38 193.192 Q2147.2 193.192 2145.61 194.164 Q2144.03 195.136 2144.03 197.08 Q2144.03 198.562 2145.17 199.418 Q2146.3 200.252 2149.73 201.016 L2151.19 201.34 Q2155.72 202.312 2157.62 204.094 Q2159.54 205.854 2159.54 209.025 Q2159.54 212.636 2156.67 214.742 Q2153.82 216.849 2148.82 216.849 Q2146.74 216.849 2144.47 216.432 Q2142.23 216.039 2139.73 215.228 L2139.73 210.83 Q2142.09 212.057 2144.38 212.682 Q2146.67 213.284 2148.92 213.284 Q2151.93 213.284 2153.55 212.266 Q2155.17 211.224 2155.17 209.349 Q2155.17 207.613 2153.99 206.687 Q2152.83 205.761 2148.87 204.904 L2147.39 204.557 Q2143.43 203.724 2141.67 202.011 Q2139.91 200.275 2139.91 197.266 Q2139.91 193.608 2142.51 191.618 Q2145.1 189.627 2149.87 189.627 Q2152.23 189.627 2154.31 189.974 Q2156.39 190.321 2158.15 191.016 Z" fill="#000000" fill-rule="nonzero" fill-opacity="1" /><path clip-path="url(#clip630)" d="M2170.54 182.891 L2170.54 190.252 L2179.31 190.252 L2179.31 193.562 L2170.54 193.562 L2170.54 207.636 Q2170.54 210.807 2171.39 211.71 Q2172.27 212.613 2174.94 212.613 L2179.31 212.613 L2179.31 216.178 L2174.94 216.178 Q2170.01 216.178 2168.13 214.349 Q2166.26 212.497 2166.26 207.636 L2166.26 193.562 L2163.13 193.562 L2163.13 190.252 L2166.26 190.252 L2166.26 182.891 L2170.54 182.891 Z" fill="#000000" fill-rule="nonzero" fill-opacity="1" /><path clip-path="url(#clip630)" d="M2196.69 203.145 Q2191.53 203.145 2189.54 204.326 Q2187.55 205.506 2187.55 208.354 Q2187.55 210.622 2189.03 211.965 Q2190.54 213.284 2193.11 213.284 Q2196.65 213.284 2198.78 210.784 Q2200.93 208.261 2200.93 204.094 L2200.93 203.145 L2196.69 203.145 M2205.19 201.386 L2205.19 216.178 L2200.93 216.178 L2200.93 212.242 Q2199.47 214.603 2197.3 215.738 Q2195.12 216.849 2191.97 216.849 Q2187.99 216.849 2185.63 214.627 Q2183.29 212.381 2183.29 208.631 Q2183.29 204.256 2186.21 202.034 Q2189.15 199.812 2194.96 199.812 L2200.93 199.812 L2200.93 199.395 Q2200.93 196.455 2198.99 194.858 Q2197.07 193.238 2193.57 193.238 Q2191.35 193.238 2189.24 193.77 Q2187.13 194.303 2185.19 195.367 L2185.19 191.432 Q2187.53 190.53 2189.73 190.09 Q2191.93 189.627 2194.01 189.627 Q2199.63 189.627 2202.41 192.543 Q2205.19 195.46 2205.19 201.386 Z" fill="#000000" fill-rule="nonzero" fill-opacity="1" /><path clip-path="url(#clip630)" d="M2218.18 182.891 L2218.18 190.252 L2226.95 190.252 L2226.95 193.562 L2218.18 193.562 L2218.18 207.636 Q2218.18 210.807 2219.03 211.71 Q2219.91 212.613 2222.57 212.613 L2226.95 212.613 L2226.95 216.178 L2222.57 216.178 Q2217.64 216.178 2215.77 214.349 Q2213.89 212.497 2213.89 207.636 L2213.89 193.562 L2210.77 193.562 L2210.77 190.252 L2213.89 190.252 L2213.89 182.891 L2218.18 182.891 Z" fill="#000000" fill-rule="nonzero" fill-opacity="1" /><path clip-path="url(#clip630)" d="M2254.73 202.15 L2254.73 204.233 L2235.14 204.233 Q2235.42 208.631 2237.78 210.946 Q2240.17 213.238 2244.4 213.238 Q2246.86 213.238 2249.15 212.636 Q2251.46 212.034 2253.73 210.83 L2253.73 214.858 Q2251.44 215.83 2249.03 216.34 Q2246.63 216.849 2244.15 216.849 Q2237.94 216.849 2234.31 213.238 Q2230.7 209.627 2230.7 203.469 Q2230.7 197.104 2234.13 193.377 Q2237.57 189.627 2243.41 189.627 Q2248.64 189.627 2251.67 193.006 Q2254.73 196.363 2254.73 202.15 M2250.47 200.9 Q2250.42 197.405 2248.5 195.321 Q2246.6 193.238 2243.45 193.238 Q2239.89 193.238 2237.74 195.252 Q2235.61 197.266 2235.28 200.923 L2250.47 200.9 Z" fill="#000000" fill-rule="nonzero" fill-opacity="1" /></svg>
