<?xml version="1.0" encoding="utf-8"?>
<svg xmlns="http://www.w3.org/2000/svg" xmlns:xlink="http://www.w3.org/1999/xlink" width="800" height="500" viewBox="0 0 3200 2000">
<defs>
  <clipPath id="clip610">
    <rect x="0" y="0" width="3200" height="2000"/>
  </clipPath>
</defs>
<path clip-path="url(#clip610)" d="M0 2000 L3200 2000 L3200 0 L0 0  Z" fill="#ffffff" fill-rule="evenodd" fill-opacity="1"/>
<defs>
  <clipPath id="clip611">
    <rect x="201" y="47" width="2952" height="1838"/>
  </clipPath>
</defs>
<path clip-path="url(#clip610)" d="M201.936 1884.61 L3152.76 1884.61 L3152.76 47.2441 L201.936 47.2441  Z" fill="#ffffff" fill-rule="evenodd" fill-opacity="1"/>
<polyline clip-path="url(#clip611)" style="stroke:#000000; stroke-linecap:round; stroke-linejoin:round; stroke-width:2; stroke-opacity:0.1; fill:none" points="201.936,1884.61 201.936,47.2441 "/>
<polyline clip-path="url(#clip611)" style="stroke:#000000; stroke-linecap:round; stroke-linejoin:round; stroke-width:2; stroke-opacity:0.1; fill:none" points="792.1,1884.61 792.1,47.2441 "/>
<polyline clip-path="url(#clip611)" style="stroke:#000000; stroke-linecap:round; stroke-linejoin:round; stroke-width:2; stroke-opacity:0.1; fill:none" points="1382.26,1884.61 1382.26,47.2441 "/>
<polyline clip-path="url(#clip611)" style="stroke:#000000; stroke-linecap:round; stroke-linejoin:round; stroke-width:2; stroke-opacity:0.1; fill:none" points="1972.43,1884.61 1972.43,47.2441 "/>
<polyline clip-path="url(#clip611)" style="stroke:#000000; stroke-linecap:round; stroke-linejoin:round; stroke-width:2; stroke-opacity:0.1; fill:none" points="2562.59,1884.61 2562.59,47.2441 "/>
<polyline clip-path="url(#clip611)" style="stroke:#000000; stroke-linecap:round; stroke-linejoin:round; stroke-width:2; stroke-opacity:0.1; fill:none" points="3152.76,1884.61 3152.76,47.2441 "/>
<polyline clip-path="url(#clip611)" style="stroke:#000000; stroke-linecap:round; stroke-linejoin:round; stroke-width:2; stroke-opacity:0.1; fill:none" points="201.936,1884.61 3152.76,1884.61 "/>
<polyline clip-path="url(#clip611)" style="stroke:#000000; stroke-linecap:round; stroke-linejoin:round; stroke-width:2; stroke-opacity:0.1; fill:none" points="201.936,1425.27 3152.76,1425.27 "/>
<polyline clip-path="url(#clip611)" style="stroke:#000000; stroke-linecap:round; stroke-linejoin:round; stroke-width:2; stroke-opacity:0.1; fill:none" points="201.936,965.926 3152.76,965.926 "/>
<polyline clip-path="url(#clip611)" style="stroke:#000000; stroke-linecap:round; stroke-linejoin:round; stroke-width:2; stroke-opacity:0.1; fill:none" points="201.936,506.585 3152.76,506.585 "/>
<polyline clip-path="url(#clip611)" style="stroke:#000000; stroke-linecap:round; stroke-linejoin:round; stroke-width:2; stroke-opacity:0.1; fill:none" points="201.936,47.2441 3152.76,47.2441 "/>
<polyline clip-path="url(#clip610)" style="stroke:#000000; stroke-linecap:round; stroke-linejoin:round; stroke-width:4; stroke-opacity:1; fill:none" points="201.936,1884.61 3152.76,1884.61 "/>
<polyline clip-path="url(#clip610)" style="stroke:#000000; stroke-linecap:round; stroke-linejoin:round; stroke-width:4; stroke-opacity:1; fill:none" points="201.936,1884.61 201.936,1865.71 "/>
<polyline clip-path="url(#clip610)" style="stroke:#000000; stroke-linecap:round; stroke-linejoin:round; stroke-width:4; stroke-opacity:1; fill:none" points="792.1,1884.61 792.1,1865.71 "/>
<polyline clip-path="url(#clip610)" style="stroke:#000000; stroke-linecap:round; stroke-linejoin:round; stroke-width:4; stroke-opacity:1; fill:none" points="1382.26,1884.61 1382.26,1865.71 "/>
<polyline clip-path="url(#clip610)" style="stroke:#000000; stroke-linecap:round; stroke-linejoin:round; stroke-width:4; stroke-opacity:1; fill:none" points="1972.43,1884.61 1972.43,1865.71 "/>
<polyline clip-path="url(#clip610)" style="stroke:#000000; stroke-linecap:round; stroke-linejoin:round; stroke-width:4; stroke-opacity:1; fill:none" points="2562.59,1884.61 2562.59,1865.71 "/>
<polyline clip-path="url(#clip610)" style="stroke:#000000; stroke-linecap:round; stroke-linejoin:round; stroke-width:4; stroke-opacity:1; fill:none" points="3152.76,1884.61 3152.76,1865.71 "/>
<path clip-path="url(#clip610)" d="M201.936 1921.93 Q198.325 1921.93 196.496 1925.49 Q194.691 1929.03 194.691 1936.16 Q194.691 1943.27 196.496 1946.83 Q198.325 1950.38 201.936 1950.38 Q205.57 1950.38 207.376 1946.83 Q209.204 1943.27 209.204 1936.16 Q209.204 1929.03 207.376 1925.49 Q205.57 1921.93 201.936 1921.93 M201.936 1918.22 Q207.746 1918.22 210.802 1922.83 Q213.88 1927.41 213.88 1936.16 Q213.88 1944.89 210.802 1949.5 Q207.746 1954.08 201.936 1954.08 Q196.126 1954.08 193.047 1949.5 Q189.992 1944.89 189.992 1936.16 Q189.992 1927.41 193.047 1922.83 Q196.126 1918.22 201.936 1918.22 Z" fill="#000000" fill-rule="nonzero" fill-opacity="1" /><path clip-path="url(#clip610)" d="M786.753 1949.47 L803.072 1949.47 L803.072 1953.41 L781.128 1953.41 L781.128 1949.47 Q783.79 1946.72 788.373 1942.09 Q792.98 1937.44 794.16 1936.09 Q796.406 1933.57 797.285 1931.83 Q798.188 1930.07 798.188 1928.38 Q798.188 1925.63 796.243 1923.89 Q794.322 1922.16 791.22 1922.16 Q789.021 1922.16 786.568 1922.92 Q784.137 1923.69 781.359 1925.24 L781.359 1920.51 Q784.183 1919.38 786.637 1918.8 Q789.091 1918.22 791.128 1918.22 Q796.498 1918.22 799.693 1920.91 Q802.887 1923.59 802.887 1928.08 Q802.887 1930.21 802.077 1932.13 Q801.29 1934.03 799.183 1936.63 Q798.605 1937.3 795.503 1940.51 Q792.401 1943.71 786.753 1949.47 Z" fill="#000000" fill-rule="nonzero" fill-opacity="1" /><path clip-path="url(#clip610)" d="M1385.27 1922.92 L1373.47 1941.37 L1385.27 1941.37 L1385.27 1922.92 M1384.05 1918.85 L1389.93 1918.85 L1389.93 1941.37 L1394.86 1941.37 L1394.86 1945.26 L1389.93 1945.26 L1389.93 1953.41 L1385.27 1953.41 L1385.27 1945.26 L1369.67 1945.26 L1369.67 1940.75 L1384.05 1918.85 Z" fill="#000000" fill-rule="nonzero" fill-opacity="1" /><path clip-path="url(#clip610)" d="M1972.83 1934.26 Q1969.68 1934.26 1967.83 1936.42 Q1966 1938.57 1966 1942.32 Q1966 1946.05 1967.83 1948.22 Q1969.68 1950.38 1972.83 1950.38 Q1975.98 1950.38 1977.81 1948.22 Q1979.66 1946.05 1979.66 1942.32 Q1979.66 1938.57 1977.81 1936.42 Q1975.98 1934.26 1972.83 1934.26 M1982.12 1919.61 L1982.12 1923.87 Q1980.36 1923.04 1978.55 1922.6 Q1976.77 1922.16 1975.01 1922.16 Q1970.38 1922.16 1967.93 1925.28 Q1965.5 1928.41 1965.15 1934.73 Q1966.51 1932.71 1968.57 1931.65 Q1970.63 1930.56 1973.11 1930.56 Q1978.32 1930.56 1981.33 1933.73 Q1984.36 1936.88 1984.36 1942.32 Q1984.36 1947.64 1981.21 1950.86 Q1978.06 1954.08 1972.83 1954.08 Q1966.84 1954.08 1963.67 1949.5 Q1960.5 1944.89 1960.5 1936.16 Q1960.5 1927.97 1964.38 1923.11 Q1968.27 1918.22 1974.82 1918.22 Q1976.58 1918.22 1978.37 1918.57 Q1980.17 1918.92 1982.12 1919.61 Z" fill="#000000" fill-rule="nonzero" fill-opacity="1" /><path clip-path="url(#clip610)" d="M2562.59 1937 Q2559.26 1937 2557.34 1938.78 Q2555.44 1940.56 2555.44 1943.69 Q2555.44 1946.81 2557.34 1948.59 Q2559.26 1950.38 2562.59 1950.38 Q2565.93 1950.38 2567.85 1948.59 Q2569.77 1946.79 2569.77 1943.69 Q2569.77 1940.56 2567.85 1938.78 Q2565.95 1937 2562.59 1937 M2557.92 1935.01 Q2554.91 1934.26 2553.22 1932.2 Q2551.55 1930.14 2551.55 1927.18 Q2551.55 1923.04 2554.49 1920.63 Q2557.45 1918.22 2562.59 1918.22 Q2567.75 1918.22 2570.69 1920.63 Q2573.63 1923.04 2573.63 1927.18 Q2573.63 1930.14 2571.94 1932.2 Q2570.28 1934.26 2567.29 1935.01 Q2570.67 1935.79 2572.55 1938.08 Q2574.44 1940.38 2574.44 1943.69 Q2574.44 1948.71 2571.37 1951.39 Q2568.31 1954.08 2562.59 1954.08 Q2556.87 1954.08 2553.8 1951.39 Q2550.74 1948.71 2550.74 1943.69 Q2550.74 1940.38 2552.64 1938.08 Q2554.54 1935.79 2557.92 1935.01 M2556.2 1927.62 Q2556.2 1930.31 2557.87 1931.81 Q2559.56 1933.32 2562.59 1933.32 Q2565.6 1933.32 2567.29 1931.81 Q2569 1930.31 2569 1927.62 Q2569 1924.94 2567.29 1923.43 Q2565.6 1921.93 2562.59 1921.93 Q2559.56 1921.93 2557.87 1923.43 Q2556.2 1924.94 2556.2 1927.62 Z" fill="#000000" fill-rule="nonzero" fill-opacity="1" /><path clip-path="url(#clip610)" d="M3127.44 1949.47 L3135.08 1949.47 L3135.08 1923.11 L3126.77 1924.77 L3126.77 1920.51 L3135.04 1918.85 L3139.71 1918.85 L3139.71 1949.47 L3147.35 1949.47 L3147.35 1953.41 L3127.44 1953.41 L3127.44 1949.47 Z" fill="#000000" fill-rule="nonzero" fill-opacity="1" /><path clip-path="url(#clip610)" d="M3166.8 1921.93 Q3163.18 1921.93 3161.36 1925.49 Q3159.55 1929.03 3159.55 1936.16 Q3159.55 1943.27 3161.36 1946.83 Q3163.18 1950.38 3166.8 1950.38 Q3170.43 1950.38 3172.23 1946.83 Q3174.06 1943.27 3174.06 1936.16 Q3174.06 1929.03 3172.23 1925.49 Q3170.43 1921.93 3166.8 1921.93 M3166.8 1918.22 Q3172.61 1918.22 3175.66 1922.83 Q3178.74 1927.41 3178.74 1936.16 Q3178.74 1944.89 3175.66 1949.5 Q3172.61 1954.08 3166.8 1954.08 Q3160.99 1954.08 3157.91 1949.5 Q3154.85 1944.89 3154.85 1936.16 Q3154.85 1927.41 3157.91 1922.83 Q3160.99 1918.22 3166.8 1918.22 Z" fill="#000000" fill-rule="nonzero" fill-opacity="1" /><polyline clip-path="url(#clip610)" style="stroke:#000000; stroke-linecap:round; stroke-linejoin:round; stroke-width:4; stroke-opacity:1; fill:none" points="201.936,1884.61 201.936,47.2441 "/>
<polyline clip-path="url(#clip610)" style="stroke:#000000; stroke-linecap:round; stroke-linejoin:round; stroke-width:4; stroke-opacity:1; fill:none" points="201.936,1884.61 220.834,1884.61 "/>
<polyline clip-path="url(#clip610)" style="stroke:#000000; stroke-linecap:round; stroke-linejoin:round; stroke-width:4; stroke-opacity:1; fill:none" points="201.936,1425.27 220.834,1425.27 "/>
<polyline clip-path="url(#clip610)" style="stroke:#000000; stroke-linecap:round; stroke-linejoin:round; stroke-width:4; stroke-opacity:1; fill:none" points="201.936,965.926 220.834,965.926 "/>
<polyline clip-path="url(#clip610)" style="stroke:#000000; stroke-linecap:round; stroke-linejoin:round; stroke-width:4; stroke-opacity:1; fill:none" points="201.936,506.585 220.834,506.585 "/>
<polyline clip-path="url(#clip610)" style="stroke:#000000; stroke-linecap:round; stroke-linejoin:round; stroke-width:4; stroke-opacity:1; fill:none" points="201.936,47.2441 220.834,47.2441 "/>
<path clip-path="url(#clip610)" d="M46.9921 1885.06 L76.6679 1885.06 L76.6679 1888.99 L46.9921 1888.99 L46.9921 1885.06 Z" fill="#000000" fill-rule="nonzero" fill-opacity="1" /><path clip-path="url(#clip610)" d="M87.5706 1897.95 L95.2095 1897.95 L95.2095 1871.59 L86.8993 1873.25 L86.8993 1868.99 L95.1632 1867.33 L99.8391 1867.33 L99.8391 1897.95 L107.478 1897.95 L107.478 1901.89 L87.5706 1901.89 L87.5706 1897.95 Z" fill="#000000" fill-rule="nonzero" fill-opacity="1" /><path clip-path="url(#clip610)" d="M116.922 1896.01 L121.807 1896.01 L121.807 1901.89 L116.922 1901.89 L116.922 1896.01 Z" fill="#000000" fill-rule="nonzero" fill-opacity="1" /><path clip-path="url(#clip610)" d="M141.992 1870.41 Q138.381 1870.41 136.552 1873.97 Q134.746 1877.51 134.746 1884.64 Q134.746 1891.75 136.552 1895.31 Q138.381 1898.86 141.992 1898.86 Q145.626 1898.86 147.431 1895.31 Q149.26 1891.75 149.26 1884.64 Q149.26 1877.51 147.431 1873.97 Q145.626 1870.41 141.992 1870.41 M141.992 1866.7 Q147.802 1866.7 150.857 1871.31 Q153.936 1875.89 153.936 1884.64 Q153.936 1893.37 150.857 1897.98 Q147.802 1902.56 141.992 1902.56 Q136.181 1902.56 133.103 1897.98 Q130.047 1893.37 130.047 1884.64 Q130.047 1875.89 133.103 1871.31 Q136.181 1866.7 141.992 1866.7 Z" fill="#000000" fill-rule="nonzero" fill-opacity="1" /><path clip-path="url(#clip610)" d="M47.9875 1425.72 L77.6633 1425.72 L77.6633 1429.65 L47.9875 1429.65 L47.9875 1425.72 Z" fill="#000000" fill-rule="nonzero" fill-opacity="1" /><path clip-path="url(#clip610)" d="M97.7557 1411.07 Q94.1447 1411.07 92.316 1414.63 Q90.5104 1418.17 90.5104 1425.3 Q90.5104 1432.41 92.316 1435.97 Q94.1447 1439.51 97.7557 1439.51 Q101.39 1439.51 103.196 1435.97 Q105.024 1432.41 105.024 1425.3 Q105.024 1418.17 103.196 1414.63 Q101.39 1411.07 97.7557 1411.07 M97.7557 1407.36 Q103.566 1407.36 106.621 1411.97 Q109.7 1416.55 109.7 1425.3 Q109.7 1434.03 106.621 1438.63 Q103.566 1443.22 97.7557 1443.22 Q91.9456 1443.22 88.8669 1438.63 Q85.8114 1434.03 85.8114 1425.3 Q85.8114 1416.55 88.8669 1411.97 Q91.9456 1407.36 97.7557 1407.36 Z" fill="#000000" fill-rule="nonzero" fill-opacity="1" /><path clip-path="url(#clip610)" d="M117.918 1436.67 L122.802 1436.67 L122.802 1442.55 L117.918 1442.55 L117.918 1436.67 Z" fill="#000000" fill-rule="nonzero" fill-opacity="1" /><path clip-path="url(#clip610)" d="M133.033 1407.99 L151.39 1407.99 L151.39 1411.92 L137.316 1411.92 L137.316 1420.39 Q138.334 1420.05 139.353 1419.89 Q140.371 1419.7 141.39 1419.7 Q147.177 1419.7 150.556 1422.87 Q153.936 1426.04 153.936 1431.46 Q153.936 1437.04 150.464 1440.14 Q146.992 1443.22 140.672 1443.22 Q138.496 1443.22 136.228 1442.85 Q133.982 1442.48 131.575 1441.74 L131.575 1437.04 Q133.658 1438.17 135.881 1438.73 Q138.103 1439.28 140.58 1439.28 Q144.584 1439.28 146.922 1437.18 Q149.26 1435.07 149.26 1431.46 Q149.26 1427.85 146.922 1425.74 Q144.584 1423.63 140.58 1423.63 Q138.705 1423.63 136.83 1424.05 Q134.978 1424.47 133.033 1425.35 L133.033 1407.99 Z" fill="#000000" fill-rule="nonzero" fill-opacity="1" /><path clip-path="url(#clip610)" d="M96.7604 951.725 Q93.1493 951.725 91.3206 955.289 Q89.515 958.831 89.515 965.961 Q89.515 973.067 91.3206 976.632 Q93.1493 980.174 96.7604 980.174 Q100.395 980.174 102.2 976.632 Q104.029 973.067 104.029 965.961 Q104.029 958.831 102.2 955.289 Q100.395 951.725 96.7604 951.725 M96.7604 948.021 Q102.571 948.021 105.626 952.627 Q108.705 957.211 108.705 965.961 Q108.705 974.688 105.626 979.294 Q102.571 983.877 96.7604 983.877 Q90.9502 983.877 87.8715 979.294 Q84.816 974.688 84.816 965.961 Q84.816 957.211 87.8715 952.627 Q90.9502 948.021 96.7604 948.021 Z" fill="#000000" fill-rule="nonzero" fill-opacity="1" /><path clip-path="url(#clip610)" d="M116.922 977.326 L121.807 977.326 L121.807 983.206 L116.922 983.206 L116.922 977.326 Z" fill="#000000" fill-rule="nonzero" fill-opacity="1" /><path clip-path="url(#clip610)" d="M141.992 951.725 Q138.381 951.725 136.552 955.289 Q134.746 958.831 134.746 965.961 Q134.746 973.067 136.552 976.632 Q138.381 980.174 141.992 980.174 Q145.626 980.174 147.431 976.632 Q149.26 973.067 149.26 965.961 Q149.26 958.831 147.431 955.289 Q145.626 951.725 141.992 951.725 M141.992 948.021 Q147.802 948.021 150.857 952.627 Q153.936 957.211 153.936 965.961 Q153.936 974.688 150.857 979.294 Q147.802 983.877 141.992 983.877 Q136.181 983.877 133.103 979.294 Q130.047 974.688 130.047 965.961 Q130.047 957.211 133.103 952.627 Q136.181 948.021 141.992 948.021 Z" fill="#000000" fill-rule="nonzero" fill-opacity="1" /><path clip-path="url(#clip610)" d="M97.7557 492.384 Q94.1447 492.384 92.316 495.949 Q90.5104 499.49 90.5104 506.62 Q90.5104 513.726 92.316 517.291 Q94.1447 520.833 97.7557 520.833 Q101.39 520.833 103.196 517.291 Q105.024 513.726 105.024 506.62 Q105.024 499.49 103.196 495.949 Q101.39 492.384 97.7557 492.384 M97.7557 488.68 Q103.566 488.68 106.621 493.286 Q109.7 497.87 109.7 506.62 Q109.7 515.347 106.621 519.953 Q103.566 524.536 97.7557 524.536 Q91.9456 524.536 88.8669 519.953 Q85.8114 515.347 85.8114 506.62 Q85.8114 497.87 88.8669 493.286 Q91.9456 488.68 97.7557 488.68 Z" fill="#000000" fill-rule="nonzero" fill-opacity="1" /><path clip-path="url(#clip610)" d="M117.918 517.985 L122.802 517.985 L122.802 523.865 L117.918 523.865 L117.918 517.985 Z" fill="#000000" fill-rule="nonzero" fill-opacity="1" /><path clip-path="url(#clip610)" d="M133.033 489.305 L151.39 489.305 L151.39 493.24 L137.316 493.24 L137.316 501.712 Q138.334 501.365 139.353 501.203 Q140.371 501.018 141.39 501.018 Q147.177 501.018 150.556 504.189 Q153.936 507.36 153.936 512.777 Q153.936 518.356 150.464 521.458 Q146.992 524.536 140.672 524.536 Q138.496 524.536 136.228 524.166 Q133.982 523.796 131.575 523.055 L131.575 518.356 Q133.658 519.49 135.881 520.046 Q138.103 520.601 140.58 520.601 Q144.584 520.601 146.922 518.495 Q149.26 516.388 149.26 512.777 Q149.26 509.166 146.922 507.06 Q144.584 504.953 140.58 504.953 Q138.705 504.953 136.83 505.37 Q134.978 505.786 133.033 506.666 L133.033 489.305 Z" fill="#000000" fill-rule="nonzero" fill-opacity="1" /><path clip-path="url(#clip610)" d="M87.5706 60.5889 L95.2095 60.5889 L95.2095 34.2233 L86.8993 35.89 L86.8993 31.6308 L95.1632 29.9641 L99.8391 29.9641 L99.8391 60.5889 L107.478 60.5889 L107.478 64.5241 L87.5706 64.5241 L87.5706 60.5889 Z" fill="#000000" fill-rule="nonzero" fill-opacity="1" /><path clip-path="url(#clip610)" d="M116.922 58.6445 L121.807 58.6445 L121.807 64.5241 L116.922 64.5241 L116.922 58.6445 Z" fill="#000000" fill-rule="nonzero" fill-opacity="1" /><path clip-path="url(#clip610)" d="M141.992 33.0428 Q138.381 33.0428 136.552 36.6076 Q134.746 40.1492 134.746 47.2788 Q134.746 54.3853 136.552 57.9501 Q138.381 61.4917 141.992 61.4917 Q145.626 61.4917 147.431 57.9501 Q149.26 54.3853 149.26 47.2788 Q149.26 40.1492 147.431 36.6076 Q145.626 33.0428 141.992 33.0428 M141.992 29.3391 Q147.802 29.3391 150.857 33.9456 Q153.936 38.5289 153.936 47.2788 Q153.936 56.0056 150.857 60.6121 Q147.802 65.1954 141.992 65.1954 Q136.181 65.1954 133.103 60.6121 Q130.047 56.0056 130.047 47.2788 Q130.047 38.5289 133.103 33.9456 Q136.181 29.3391 141.992 29.3391 Z" fill="#000000" fill-rule="nonzero" fill-opacity="1" /><polyline clip-path="url(#clip611)" style="stroke:#009af9; stroke-linecap:round; stroke-linejoin:round; stroke-width:4; stroke-opacity:1; fill:none" points="201.936,-4546.17 217.168,-5712.71 232.399,-7176.32 321.61,-30932.5 410.821,-287595 431.571,-664373 452.322,-2.10168e+06 457.509,-3.04727e+06 462.697,-4.1943e+06 467.884,-4.1943e+06 473.072,-4.1943e+06 475.666,-4.1943e+06 478.26,-4.1943e+06 480.853,-4.1943e+06 483.447,-4.1943e+06 486.041,-4.1943e+06 488.635,-4.1943e+06 489.932,-4.1943e+06 491.229,-4.1943e+06 492.525,-4.1943e+06 493.822,-4.1943e+06 494.691,-4.1943e+06 495.561,-4.1943e+06 496.43,-4.1943e+06 497.299,4.1943e+06 498.168,4.1943e+06 499.037,4.1943e+06 499.906,4.1943e+06 500.776,4.1943e+06 502.514,4.1943e+06 504.252,4.1943e+06 505.991,4.1943e+06 507.729,4.1943e+06 511.206,4.1943e+06 514.682,4.1943e+06 518.159,4.1943e+06 521.636,4.1943e+06 528.589,4.1943e+06 535.542,3.28969e+06 542.496,1.99671e+06 549.449,1.30078e+06 577.262,359672 605.075,145613 651.04,49127.2 697.005,21864 739.747,11936.6 782.49,7183.66 889.803,2701.74 986.064,1471.78 1096.25,938.758 1178.61,766.838 1283.95,664.454 1380.1,626.179 1489.52,612.804 1576.27,613.782 1684.04,622.079 1766.57,631.153 1882.93,645.661 1969.89,656.92 2068.78,669.612 2166.71,681.778 2274.45,694.523 2356.75,703.751 2460.6,714.754 2556.65,724.301 2655.71,733.54 2756.12,742.31 2860.97,750.87 2943.56,757.213 3131.65,770.465 3152.76,771.856 "/>
<polyline clip-path="url(#clip611)" style="stroke:#000000; stroke-linecap:round; stroke-linejoin:round; stroke-width:4; stroke-opacity:1; fill:none" stroke-dasharray="16, 10" points="201.936,965.926 3152.76,965.926 "/>
<circle clip-path="url(#clip611)" cx="1087.18" cy="965.926" r="14.4" fill="#ff0000" fill-rule="evenodd" fill-opacity="1" stroke="#000000" stroke-opacity="1" stroke-width="4"/>
<path clip-path="url(#clip610)" d="M2434.64 264.01 L3054.4 264.01 L3054.4 108.49 L2434.64 108.49  Z" fill="#ffffff" fill-rule="evenodd" fill-opacity="1"/>
<polyline clip-path="url(#clip610)" style="stroke:#000000; stroke-linecap:round; stroke-linejoin:round; stroke-width:4; stroke-opacity:1; fill:none" points="2434.64,264.01 3054.4,264.01 3054.4,108.49 2434.64,108.49 2434.64,264.01 "/>
<polyline clip-path="url(#clip610)" style="stroke:#009af9; stroke-linecap:round; stroke-linejoin:round; stroke-width:4; stroke-opacity:1; fill:none" points="2467.43,160.33 2664.15,160.33 "/>
<path clip-path="url(#clip610)" d="M2707.79 178.188 Q2702.44 177.332 2699.97 175.086 Q2696.93 172.332 2696.93 166.707 L2696.93 151.684 L2701.24 151.684 L2701.24 166.545 Q2701.24 170.781 2703.21 172.54 Q2704.92 174.068 2707.79 174.392 L2707.79 151.684 L2712.03 151.684 L2712.03 174.369 Q2715.06 174.045 2716.61 172.517 Q2718.58 170.573 2718.58 166.522 L2718.58 151.684 L2722.88 151.684 L2722.88 166.684 Q2722.88 172.517 2719.85 175.063 Q2717.12 177.355 2712.03 178.165 L2712.03 187.471 L2707.79 187.471 L2707.79 178.188 Z" fill="#000000" fill-rule="nonzero" fill-opacity="1" /><circle clip-path="url(#clip610)" cx="2565.79" cy="212.17" r="20.48" fill="#ff0000" fill-rule="evenodd" fill-opacity="1" stroke="#000000" stroke-opacity="1" stroke-width="5.68889"/>
<path clip-path="url(#clip610)" d="M2719.18 196.024 L2719.18 200.584 Q2716.52 199.311 2714.16 198.686 Q2711.8 198.061 2709.6 198.061 Q2705.78 198.061 2703.69 199.542 Q2701.63 201.024 2701.63 203.755 Q2701.63 206.047 2703 207.227 Q2704.39 208.385 2708.23 209.102 L2711.05 209.681 Q2716.29 210.677 2718.76 213.2 Q2721.26 215.7 2721.26 219.913 Q2721.26 224.936 2717.88 227.528 Q2714.53 230.121 2708.02 230.121 Q2705.57 230.121 2702.79 229.565 Q2700.04 229.01 2697.07 227.922 L2697.07 223.107 Q2699.92 224.704 2702.65 225.514 Q2705.38 226.325 2708.02 226.325 Q2712.03 226.325 2714.2 224.751 Q2716.38 223.176 2716.38 220.26 Q2716.38 217.714 2714.8 216.278 Q2713.25 214.843 2709.69 214.126 L2706.84 213.57 Q2701.61 212.528 2699.27 210.306 Q2696.93 208.084 2696.93 204.126 Q2696.93 199.542 2700.15 196.903 Q2703.39 194.265 2709.06 194.265 Q2711.49 194.265 2714.02 194.704 Q2716.54 195.144 2719.18 196.024 Z" fill="#000000" fill-rule="nonzero" fill-opacity="1" /><path clip-path="url(#clip610)" d="M2728.37 203.524 L2732.63 203.524 L2732.63 229.45 L2728.37 229.45 L2728.37 203.524 M2728.37 193.431 L2732.63 193.431 L2732.63 198.825 L2728.37 198.825 L2728.37 193.431 Z" fill="#000000" fill-rule="nonzero" fill-opacity="1" /><path clip-path="url(#clip610)" d="M2763.09 213.801 L2763.09 229.45 L2758.83 229.45 L2758.83 213.94 Q2758.83 210.26 2757.4 208.431 Q2755.96 206.602 2753.09 206.602 Q2749.64 206.602 2747.65 208.802 Q2745.66 211.001 2745.66 214.797 L2745.66 229.45 L2741.38 229.45 L2741.38 203.524 L2745.66 203.524 L2745.66 207.552 Q2747.19 205.214 2749.25 204.056 Q2751.33 202.899 2754.04 202.899 Q2758.51 202.899 2760.8 205.677 Q2763.09 208.431 2763.09 213.801 Z" fill="#000000" fill-rule="nonzero" fill-opacity="1" /><path clip-path="url(#clip610)" d="M2788.65 216.186 Q2788.65 211.556 2786.73 209.01 Q2784.83 206.464 2781.38 206.464 Q2777.95 206.464 2776.03 209.01 Q2774.13 211.556 2774.13 216.186 Q2774.13 220.792 2776.03 223.338 Q2777.95 225.885 2781.38 225.885 Q2784.83 225.885 2786.73 223.338 Q2788.65 220.792 2788.65 216.186 M2792.91 226.232 Q2792.91 232.852 2789.97 236.07 Q2787.03 239.311 2780.96 239.311 Q2778.72 239.311 2776.73 238.963 Q2774.73 238.639 2772.86 237.945 L2772.86 233.801 Q2774.73 234.82 2776.56 235.306 Q2778.39 235.792 2780.29 235.792 Q2784.48 235.792 2786.56 233.593 Q2788.65 231.417 2788.65 226.996 L2788.65 224.889 Q2787.33 227.181 2785.27 228.315 Q2783.21 229.45 2780.34 229.45 Q2775.57 229.45 2772.65 225.815 Q2769.73 222.181 2769.73 216.186 Q2769.73 210.167 2772.65 206.533 Q2775.57 202.899 2780.34 202.899 Q2783.21 202.899 2785.27 204.033 Q2787.33 205.167 2788.65 207.459 L2788.65 203.524 L2792.91 203.524 L2792.91 226.232 Z" fill="#000000" fill-rule="nonzero" fill-opacity="1" /><path clip-path="url(#clip610)" d="M2801.24 219.218 L2801.24 203.524 L2805.5 203.524 L2805.5 219.056 Q2805.5 222.737 2806.93 224.588 Q2808.37 226.417 2811.24 226.417 Q2814.69 226.417 2816.68 224.218 Q2818.69 222.019 2818.69 218.223 L2818.69 203.524 L2822.95 203.524 L2822.95 229.45 L2818.69 229.45 L2818.69 225.468 Q2817.14 227.829 2815.08 228.987 Q2813.04 230.121 2810.34 230.121 Q2805.87 230.121 2803.55 227.343 Q2801.24 224.565 2801.24 219.218 M2811.96 202.899 L2811.96 202.899 Z" fill="#000000" fill-rule="nonzero" fill-opacity="1" /><path clip-path="url(#clip610)" d="M2831.73 193.431 L2835.98 193.431 L2835.98 229.45 L2831.73 229.45 L2831.73 193.431 Z" fill="#000000" fill-rule="nonzero" fill-opacity="1" /><path clip-path="url(#clip610)" d="M2856.68 216.417 Q2851.52 216.417 2849.53 217.598 Q2847.54 218.778 2847.54 221.626 Q2847.54 223.894 2849.02 225.237 Q2850.52 226.556 2853.09 226.556 Q2856.63 226.556 2858.76 224.056 Q2860.91 221.533 2860.91 217.366 L2860.91 216.417 L2856.68 216.417 M2865.17 214.658 L2865.17 229.45 L2860.91 229.45 L2860.91 225.514 Q2859.46 227.875 2857.28 229.01 Q2855.1 230.121 2851.96 230.121 Q2847.98 230.121 2845.61 227.899 Q2843.28 225.653 2843.28 221.903 Q2843.28 217.528 2846.19 215.306 Q2849.13 213.084 2854.94 213.084 L2860.91 213.084 L2860.91 212.667 Q2860.91 209.727 2858.97 208.13 Q2857.05 206.51 2853.55 206.51 Q2851.33 206.51 2849.23 207.042 Q2847.12 207.575 2845.17 208.639 L2845.17 204.704 Q2847.51 203.802 2849.71 203.362 Q2851.91 202.899 2853.99 202.899 Q2859.62 202.899 2862.4 205.815 Q2865.17 208.732 2865.17 214.658 Z" fill="#000000" fill-rule="nonzero" fill-opacity="1" /><path clip-path="url(#clip610)" d="M2888.97 207.505 Q2888.25 207.089 2887.4 206.903 Q2886.56 206.695 2885.54 206.695 Q2881.93 206.695 2879.99 209.056 Q2878.07 211.394 2878.07 215.792 L2878.07 229.45 L2873.79 229.45 L2873.79 203.524 L2878.07 203.524 L2878.07 207.552 Q2879.41 205.19 2881.56 204.056 Q2883.72 202.899 2886.79 202.899 Q2887.23 202.899 2887.77 202.968 Q2888.3 203.015 2888.95 203.13 L2888.97 207.505 Z" fill="#000000" fill-rule="nonzero" fill-opacity="1" /><path clip-path="url(#clip610)" d="M2925.03 204.288 L2925.03 208.315 Q2923.23 207.389 2921.28 206.927 Q2919.34 206.464 2917.26 206.464 Q2914.09 206.464 2912.49 207.436 Q2910.91 208.408 2910.91 210.352 Q2910.91 211.834 2912.05 212.69 Q2913.18 213.524 2916.61 214.288 L2918.07 214.612 Q2922.6 215.584 2924.5 217.366 Q2926.42 219.126 2926.42 222.297 Q2926.42 225.908 2923.55 228.014 Q2920.71 230.121 2915.71 230.121 Q2913.62 230.121 2911.35 229.704 Q2909.11 229.311 2906.61 228.5 L2906.61 224.102 Q2908.97 225.329 2911.26 225.954 Q2913.55 226.556 2915.8 226.556 Q2918.81 226.556 2920.43 225.538 Q2922.05 224.496 2922.05 222.621 Q2922.05 220.885 2920.87 219.959 Q2919.71 219.033 2915.75 218.176 L2914.27 217.829 Q2910.31 216.996 2908.55 215.283 Q2906.79 213.547 2906.79 210.538 Q2906.79 206.88 2909.39 204.89 Q2911.98 202.899 2916.75 202.899 Q2919.11 202.899 2921.19 203.246 Q2923.28 203.593 2925.03 204.288 Z" fill="#000000" fill-rule="nonzero" fill-opacity="1" /><path clip-path="url(#clip610)" d="M2937.42 196.163 L2937.42 203.524 L2946.19 203.524 L2946.19 206.834 L2937.42 206.834 L2937.42 220.908 Q2937.42 224.079 2938.28 224.982 Q2939.16 225.885 2941.82 225.885 L2946.19 225.885 L2946.19 229.45 L2941.82 229.45 Q2936.89 229.45 2935.01 227.621 Q2933.14 225.769 2933.14 220.908 L2933.14 206.834 L2930.01 206.834 L2930.01 203.524 L2933.14 203.524 L2933.14 196.163 L2937.42 196.163 Z" fill="#000000" fill-rule="nonzero" fill-opacity="1" /><path clip-path="url(#clip610)" d="M2963.58 216.417 Q2958.41 216.417 2956.42 217.598 Q2954.43 218.778 2954.43 221.626 Q2954.43 223.894 2955.91 225.237 Q2957.42 226.556 2959.99 226.556 Q2963.53 226.556 2965.66 224.056 Q2967.81 221.533 2967.81 217.366 L2967.81 216.417 L2963.58 216.417 M2972.07 214.658 L2972.07 229.45 L2967.81 229.45 L2967.81 225.514 Q2966.35 227.875 2964.18 229.01 Q2962 230.121 2958.85 230.121 Q2954.87 230.121 2952.51 227.899 Q2950.17 225.653 2950.17 221.903 Q2950.17 217.528 2953.09 215.306 Q2956.03 213.084 2961.84 213.084 L2967.81 213.084 L2967.81 212.667 Q2967.81 209.727 2965.87 208.13 Q2963.95 206.51 2960.45 206.51 Q2958.23 206.51 2956.12 207.042 Q2954.02 207.575 2952.07 208.639 L2952.07 204.704 Q2954.41 203.802 2956.61 203.362 Q2958.81 202.899 2960.89 202.899 Q2966.52 202.899 2969.29 205.815 Q2972.07 208.732 2972.07 214.658 Z" fill="#000000" fill-rule="nonzero" fill-opacity="1" /><path clip-path="url(#clip610)" d="M2985.06 196.163 L2985.06 203.524 L2993.83 203.524 L2993.83 206.834 L2985.06 206.834 L2985.06 220.908 Q2985.06 224.079 2985.91 224.982 Q2986.79 225.885 2989.46 225.885 L2993.83 225.885 L2993.83 229.45 L2989.46 229.45 Q2984.53 229.45 2982.65 227.621 Q2980.78 225.769 2980.78 220.908 L2980.78 206.834 L2977.65 206.834 L2977.65 203.524 L2980.78 203.524 L2980.78 196.163 L2985.06 196.163 Z" fill="#000000" fill-rule="nonzero" fill-opacity="1" /><path clip-path="url(#clip610)" d="M3021.61 215.422 L3021.61 217.505 L3002.03 217.505 Q3002.3 221.903 3004.66 224.218 Q3007.05 226.51 3011.28 226.51 Q3013.74 226.51 3016.03 225.908 Q3018.34 225.306 3020.61 224.102 L3020.61 228.13 Q3018.32 229.102 3015.91 229.612 Q3013.51 230.121 3011.03 230.121 Q3004.83 230.121 3001.19 226.51 Q2997.58 222.899 2997.58 216.741 Q2997.58 210.376 3001.01 206.649 Q3004.46 202.899 3010.29 202.899 Q3015.52 202.899 3018.55 206.278 Q3021.61 209.635 3021.61 215.422 M3017.35 214.172 Q3017.3 210.677 3015.38 208.593 Q3013.48 206.51 3010.34 206.51 Q3006.77 206.51 3004.62 208.524 Q3002.49 210.538 3002.16 214.195 L3017.35 214.172 Z" fill="#000000" fill-rule="nonzero" fill-opacity="1" /></svg>
