<?xml version="1.0" encoding="utf-8"?>
<svg xmlns="http://www.w3.org/2000/svg" xmlns:xlink="http://www.w3.org/1999/xlink" width="800" height="500" viewBox="0 0 3200 2000">
<defs>
  <clipPath id="clip730">
    <rect x="0" y="0" width="3200" height="2000"/>
  </clipPath>
</defs>
<path clip-path="url(#clip730)" d="M0 2000 L3200 2000 L3200 0 L0 0  Z" fill="#ffffff" fill-rule="evenodd" fill-opacity="1"/>
<defs>
  <clipPath id="clip731">
    <rect x="186" y="47" width="2967" height="1838"/>
  </clipPath>
</defs>
<path clip-path="url(#clip730)" d="M186.867 1884.61 L3152.76 1884.61 L3152.76 47.2441 L186.867 47.2441  Z" fill="#ffffff" fill-rule="evenodd" fill-opacity="1"/>
<polyline clip-path="url(#clip731)" style="stroke:#000000; stroke-linecap:round; stroke-linejoin:round; stroke-width:2; stroke-opacity:0.1; fill:none" points="270.807,1884.61 270.807,47.2441 "/>
<polyline clip-path="url(#clip731)" style="stroke:#000000; stroke-linecap:round; stroke-linejoin:round; stroke-width:2; stroke-opacity:0.1; fill:none" points="972.813,1884.61 972.813,47.2441 "/>
<polyline clip-path="url(#clip731)" style="stroke:#000000; stroke-linecap:round; stroke-linejoin:round; stroke-width:2; stroke-opacity:0.1; fill:none" points="1674.82,1884.61 1674.82,47.2441 "/>
<polyline clip-path="url(#clip731)" style="stroke:#000000; stroke-linecap:round; stroke-linejoin:round; stroke-width:2; stroke-opacity:0.1; fill:none" points="2376.83,1884.61 2376.83,47.2441 "/>
<polyline clip-path="url(#clip731)" style="stroke:#000000; stroke-linecap:round; stroke-linejoin:round; stroke-width:2; stroke-opacity:0.1; fill:none" points="3078.83,1884.61 3078.83,47.2441 "/>
<polyline clip-path="url(#clip731)" style="stroke:#000000; stroke-linecap:round; stroke-linejoin:round; stroke-width:2; stroke-opacity:0.1; fill:none" points="186.867,1569.98 3152.76,1569.98 "/>
<polyline clip-path="url(#clip731)" style="stroke:#000000; stroke-linecap:round; stroke-linejoin:round; stroke-width:2; stroke-opacity:0.1; fill:none" points="186.867,1116.19 3152.76,1116.19 "/>
<polyline clip-path="url(#clip731)" style="stroke:#000000; stroke-linecap:round; stroke-linejoin:round; stroke-width:2; stroke-opacity:0.1; fill:none" points="186.867,662.389 3152.76,662.389 "/>
<polyline clip-path="url(#clip731)" style="stroke:#000000; stroke-linecap:round; stroke-linejoin:round; stroke-width:2; stroke-opacity:0.1; fill:none" points="186.867,208.592 3152.76,208.592 "/>
<polyline clip-path="url(#clip730)" style="stroke:#000000; stroke-linecap:round; stroke-linejoin:round; stroke-width:4; stroke-opacity:1; fill:none" points="186.867,1884.61 3152.76,1884.61 "/>
<polyline clip-path="url(#clip730)" style="stroke:#000000; stroke-linecap:round; stroke-linejoin:round; stroke-width:4; stroke-opacity:1; fill:none" points="270.807,1884.61 270.807,1865.71 "/>
<polyline clip-path="url(#clip730)" style="stroke:#000000; stroke-linecap:round; stroke-linejoin:round; stroke-width:4; stroke-opacity:1; fill:none" points="972.813,1884.61 972.813,1865.71 "/>
<polyline clip-path="url(#clip730)" style="stroke:#000000; stroke-linecap:round; stroke-linejoin:round; stroke-width:4; stroke-opacity:1; fill:none" points="1674.82,1884.61 1674.82,1865.71 "/>
<polyline clip-path="url(#clip730)" style="stroke:#000000; stroke-linecap:round; stroke-linejoin:round; stroke-width:4; stroke-opacity:1; fill:none" points="2376.83,1884.61 2376.83,1865.71 "/>
<polyline clip-path="url(#clip730)" style="stroke:#000000; stroke-linecap:round; stroke-linejoin:round; stroke-width:4; stroke-opacity:1; fill:none" points="3078.83,1884.61 3078.83,1865.71 "/>
<path clip-path="url(#clip730)" d="M270.807 1921.93 Q267.196 1921.93 265.367 1925.49 Q263.562 1929.03 263.562 1936.16 Q263.562 1943.27 265.367 1946.83 Q267.196 1950.38 270.807 1950.38 Q274.441 1950.38 276.247 1946.83 Q278.075 1943.27 278.075 1936.16 Q278.075 1929.03 276.247 1925.49 Q274.441 1921.93 270.807 1921.93 M270.807 1918.22 Q276.617 1918.22 279.673 1922.83 Q282.751 1927.41 282.751 1936.16 Q282.751 1944.89 279.673 1949.5 Q276.617 1954.08 270.807 1954.08 Q264.997 1954.08 261.918 1949.5 Q258.863 1944.89 258.863 1936.16 Q258.863 1927.41 261.918 1922.83 Q264.997 1918.22 270.807 1918.22 Z" fill="#000000" fill-rule="nonzero" fill-opacity="1" /><path clip-path="url(#clip730)" d="M967.466 1949.47 L983.785 1949.47 L983.785 1953.41 L961.841 1953.41 L961.841 1949.47 Q964.503 1946.72 969.087 1942.09 Q973.693 1937.44 974.874 1936.09 Q977.119 1933.57 977.998 1931.83 Q978.901 1930.07 978.901 1928.38 Q978.901 1925.63 976.957 1923.89 Q975.036 1922.16 971.934 1922.16 Q969.735 1922.16 967.281 1922.92 Q964.85 1923.69 962.073 1925.24 L962.073 1920.51 Q964.897 1919.38 967.35 1918.8 Q969.804 1918.22 971.841 1918.22 Q977.211 1918.22 980.406 1920.91 Q983.6 1923.59 983.6 1928.08 Q983.6 1930.21 982.79 1932.13 Q982.003 1934.03 979.897 1936.63 Q979.318 1937.3 976.216 1940.51 Q973.114 1943.71 967.466 1949.47 Z" fill="#000000" fill-rule="nonzero" fill-opacity="1" /><path clip-path="url(#clip730)" d="M1677.83 1922.92 L1666.02 1941.37 L1677.83 1941.37 L1677.83 1922.92 M1676.6 1918.85 L1682.48 1918.85 L1682.48 1941.37 L1687.41 1941.37 L1687.41 1945.26 L1682.48 1945.26 L1682.48 1953.41 L1677.83 1953.41 L1677.83 1945.26 L1662.23 1945.26 L1662.23 1940.75 L1676.6 1918.85 Z" fill="#000000" fill-rule="nonzero" fill-opacity="1" /><path clip-path="url(#clip730)" d="M2377.23 1934.26 Q2374.08 1934.26 2372.23 1936.42 Q2370.4 1938.57 2370.4 1942.32 Q2370.4 1946.05 2372.23 1948.22 Q2374.08 1950.38 2377.23 1950.38 Q2380.38 1950.38 2382.21 1948.22 Q2384.06 1946.05 2384.06 1942.32 Q2384.06 1938.57 2382.21 1936.42 Q2380.38 1934.26 2377.23 1934.26 M2386.51 1919.61 L2386.51 1923.87 Q2384.75 1923.04 2382.95 1922.6 Q2381.17 1922.16 2379.41 1922.16 Q2374.78 1922.16 2372.32 1925.28 Q2369.89 1928.41 2369.55 1934.73 Q2370.91 1932.71 2372.97 1931.65 Q2375.03 1930.56 2377.51 1930.56 Q2382.72 1930.56 2385.73 1933.73 Q2388.76 1936.88 2388.76 1942.32 Q2388.76 1947.64 2385.61 1950.86 Q2382.46 1954.08 2377.23 1954.08 Q2371.24 1954.08 2368.06 1949.5 Q2364.89 1944.89 2364.89 1936.16 Q2364.89 1927.97 2368.78 1923.11 Q2372.67 1918.22 2379.22 1918.22 Q2380.98 1918.22 2382.76 1918.57 Q2384.57 1918.92 2386.51 1919.61 Z" fill="#000000" fill-rule="nonzero" fill-opacity="1" /><path clip-path="url(#clip730)" d="M3078.83 1937 Q3075.5 1937 3073.58 1938.78 Q3071.68 1940.56 3071.68 1943.69 Q3071.68 1946.81 3073.58 1948.59 Q3075.5 1950.38 3078.83 1950.38 Q3082.17 1950.38 3084.09 1948.59 Q3086.01 1946.79 3086.01 1943.69 Q3086.01 1940.56 3084.09 1938.78 Q3082.19 1937 3078.83 1937 M3074.16 1935.01 Q3071.15 1934.26 3069.46 1932.2 Q3067.79 1930.14 3067.79 1927.18 Q3067.79 1923.04 3070.73 1920.63 Q3073.69 1918.22 3078.83 1918.22 Q3083.99 1918.22 3086.93 1920.63 Q3089.87 1923.04 3089.87 1927.18 Q3089.87 1930.14 3088.18 1932.2 Q3086.52 1934.26 3083.53 1935.01 Q3086.91 1935.79 3088.79 1938.08 Q3090.68 1940.38 3090.68 1943.69 Q3090.68 1948.71 3087.61 1951.39 Q3084.55 1954.08 3078.83 1954.08 Q3073.12 1954.08 3070.04 1951.39 Q3066.98 1948.71 3066.98 1943.69 Q3066.98 1940.38 3068.88 1938.08 Q3070.78 1935.79 3074.16 1935.01 M3072.44 1927.62 Q3072.44 1930.31 3074.11 1931.81 Q3075.8 1933.32 3078.83 1933.32 Q3081.84 1933.32 3083.53 1931.81 Q3085.24 1930.31 3085.24 1927.62 Q3085.24 1924.94 3083.53 1923.43 Q3081.84 1921.93 3078.83 1921.93 Q3075.8 1921.93 3074.11 1923.43 Q3072.44 1924.94 3072.44 1927.62 Z" fill="#000000" fill-rule="nonzero" fill-opacity="1" /><polyline clip-path="url(#clip730)" style="stroke:#000000; stroke-linecap:round; stroke-linejoin:round; stroke-width:4; stroke-opacity:1; fill:none" points="186.867,1884.61 186.867,47.2441 "/>
<polyline clip-path="url(#clip730)" style="stroke:#000000; stroke-linecap:round; stroke-linejoin:round; stroke-width:4; stroke-opacity:1; fill:none" points="186.867,1569.98 205.764,1569.98 "/>
<polyline clip-path="url(#clip730)" style="stroke:#000000; stroke-linecap:round; stroke-linejoin:round; stroke-width:4; stroke-opacity:1; fill:none" points="186.867,1116.19 205.764,1116.19 "/>
<polyline clip-path="url(#clip730)" style="stroke:#000000; stroke-linecap:round; stroke-linejoin:round; stroke-width:4; stroke-opacity:1; fill:none" points="186.867,662.389 205.764,662.389 "/>
<polyline clip-path="url(#clip730)" style="stroke:#000000; stroke-linecap:round; stroke-linejoin:round; stroke-width:4; stroke-opacity:1; fill:none" points="186.867,208.592 205.764,208.592 "/>
<path clip-path="url(#clip730)" d="M46.9921 1570.44 L76.6679 1570.44 L76.6679 1574.37 L46.9921 1574.37 L46.9921 1570.44 Z" fill="#000000" fill-rule="nonzero" fill-opacity="1" /><path clip-path="url(#clip730)" d="M90.7882 1583.33 L107.108 1583.33 L107.108 1587.26 L85.1632 1587.26 L85.1632 1583.33 Q87.8252 1580.57 92.4085 1575.94 Q97.015 1571.29 98.1956 1569.95 Q100.441 1567.43 101.321 1565.69 Q102.223 1563.93 102.223 1562.24 Q102.223 1559.49 100.279 1557.75 Q98.3576 1556.01 95.2558 1556.01 Q93.0567 1556.01 90.603 1556.78 Q88.1725 1557.54 85.3947 1559.09 L85.3947 1554.37 Q88.2188 1553.24 90.6724 1552.66 Q93.1261 1552.08 95.1632 1552.08 Q100.534 1552.08 103.728 1554.76 Q106.922 1557.45 106.922 1561.94 Q106.922 1564.07 106.112 1565.99 Q105.325 1567.89 103.219 1570.48 Q102.64 1571.15 99.5381 1574.37 Q96.4363 1577.57 90.7882 1583.33 Z" fill="#000000" fill-rule="nonzero" fill-opacity="1" /><path clip-path="url(#clip730)" d="M126.922 1555.78 Q123.311 1555.78 121.482 1559.35 Q119.677 1562.89 119.677 1570.02 Q119.677 1577.13 121.482 1580.69 Q123.311 1584.23 126.922 1584.23 Q130.556 1584.23 132.362 1580.69 Q134.191 1577.13 134.191 1570.02 Q134.191 1562.89 132.362 1559.35 Q130.556 1555.78 126.922 1555.78 M126.922 1552.08 Q132.732 1552.08 135.788 1556.69 Q138.867 1561.27 138.867 1570.02 Q138.867 1578.75 135.788 1583.35 Q132.732 1587.94 126.922 1587.94 Q121.112 1587.94 118.033 1583.35 Q114.978 1578.75 114.978 1570.02 Q114.978 1561.27 118.033 1556.69 Q121.112 1552.08 126.922 1552.08 Z" fill="#000000" fill-rule="nonzero" fill-opacity="1" /><path clip-path="url(#clip730)" d="M126.922 1101.99 Q123.311 1101.99 121.482 1105.55 Q119.677 1109.09 119.677 1116.22 Q119.677 1123.33 121.482 1126.89 Q123.311 1130.43 126.922 1130.43 Q130.556 1130.43 132.362 1126.89 Q134.191 1123.33 134.191 1116.22 Q134.191 1109.09 132.362 1105.55 Q130.556 1101.99 126.922 1101.99 M126.922 1098.28 Q132.732 1098.28 135.788 1102.89 Q138.867 1107.47 138.867 1116.22 Q138.867 1124.95 135.788 1129.55 Q132.732 1134.14 126.922 1134.14 Q121.112 1134.14 118.033 1129.55 Q114.978 1124.95 114.978 1116.22 Q114.978 1107.47 118.033 1102.89 Q121.112 1098.28 126.922 1098.28 Z" fill="#000000" fill-rule="nonzero" fill-opacity="1" /><path clip-path="url(#clip730)" d="M90.7882 675.734 L107.108 675.734 L107.108 679.669 L85.1632 679.669 L85.1632 675.734 Q87.8252 672.98 92.4085 668.35 Q97.015 663.697 98.1956 662.355 Q100.441 659.832 101.321 658.095 Q102.223 656.336 102.223 654.646 Q102.223 651.892 100.279 650.156 Q98.3576 648.42 95.2558 648.42 Q93.0567 648.42 90.603 649.183 Q88.1725 649.947 85.3947 651.498 L85.3947 646.776 Q88.2188 645.642 90.6724 645.063 Q93.1261 644.484 95.1632 644.484 Q100.534 644.484 103.728 647.17 Q106.922 649.855 106.922 654.345 Q106.922 656.475 106.112 658.396 Q105.325 660.295 103.219 662.887 Q102.64 663.558 99.5381 666.776 Q96.4363 669.97 90.7882 675.734 Z" fill="#000000" fill-rule="nonzero" fill-opacity="1" /><path clip-path="url(#clip730)" d="M126.922 648.188 Q123.311 648.188 121.482 651.753 Q119.677 655.295 119.677 662.424 Q119.677 669.531 121.482 673.095 Q123.311 676.637 126.922 676.637 Q130.556 676.637 132.362 673.095 Q134.191 669.531 134.191 662.424 Q134.191 655.295 132.362 651.753 Q130.556 648.188 126.922 648.188 M126.922 644.484 Q132.732 644.484 135.788 649.091 Q138.867 653.674 138.867 662.424 Q138.867 671.151 135.788 675.757 Q132.732 680.341 126.922 680.341 Q121.112 680.341 118.033 675.757 Q114.978 671.151 114.978 662.424 Q114.978 653.674 118.033 649.091 Q121.112 644.484 126.922 644.484 Z" fill="#000000" fill-rule="nonzero" fill-opacity="1" /><path clip-path="url(#clip730)" d="M99.6076 195.386 L87.8021 213.835 L99.6076 213.835 L99.6076 195.386 M98.3807 191.312 L104.26 191.312 L104.26 213.835 L109.191 213.835 L109.191 217.724 L104.26 217.724 L104.26 225.872 L99.6076 225.872 L99.6076 217.724 L84.0058 217.724 L84.0058 213.21 L98.3807 191.312 Z" fill="#000000" fill-rule="nonzero" fill-opacity="1" /><path clip-path="url(#clip730)" d="M126.922 194.391 Q123.311 194.391 121.482 197.956 Q119.677 201.497 119.677 208.627 Q119.677 215.733 121.482 219.298 Q123.311 222.84 126.922 222.84 Q130.556 222.84 132.362 219.298 Q134.191 215.733 134.191 208.627 Q134.191 201.497 132.362 197.956 Q130.556 194.391 126.922 194.391 M126.922 190.687 Q132.732 190.687 135.788 195.294 Q138.867 199.877 138.867 208.627 Q138.867 217.354 135.788 221.96 Q132.732 226.543 126.922 226.543 Q121.112 226.543 118.033 221.96 Q114.978 217.354 114.978 208.627 Q114.978 199.877 118.033 195.294 Q121.112 190.687 126.922 190.687 Z" fill="#000000" fill-rule="nonzero" fill-opacity="1" /><polyline clip-path="url(#clip731)" style="stroke:#009af9; stroke-linecap:round; stroke-linejoin:round; stroke-width:4; stroke-opacity:1; fill:none" points="270.807,1473.38 278.028,1458.79 285.25,1444.51 292.471,1430.54 299.693,1416.88 310.267,1397.42 320.84,1378.63 331.414,1360.5 341.988,1343.02 352.562,1326.2 363.136,1310.05 373.71,1294.55 384.284,1279.71 394.857,1265.53 405.431,1252 416.005,1239.14 426.579,1226.94 437.153,1215.39 447.727,1204.5 458.3,1194.28 468.874,1184.71 478.712,1176.4 488.55,1168.65 498.388,1161.48 508.226,1154.88 518.064,1148.85 527.902,1143.4 537.74,1138.51 547.578,1134.19 560.764,1129.29 573.951,1125.43 587.137,1122.58 600.323,1120.76 606.917,1120.17 613.51,1118.67 620.103,1117.1 626.696,1115.14 629.993,1114.81 633.29,1115.9 636.586,1116.98 639.883,1118.06 643.179,1117.06 646.476,1115.87 649.773,1114.68 653.069,1114.8 655.793,1115.86 658.517,1116.93 661.241,1117.99 663.965,1117.89 666.689,1116.74 669.413,1115.59 672.137,1114.44 674.861,1114.29 677.585,1115.52 680.31,1116.76 683.034,1117.99 685.758,1118.43 688.482,1117.11 691.206,1115.8 693.93,1114.48 696.654,1113.71 699.378,1115.11 702.102,1116.51 704.826,1117.91 707.55,1119.04 710.274,1117.56 712.998,1116.08 715.722,1114.6 718.446,1113.11 721.17,1114.63 723.894,1116.19 726.618,1117.75 729.342,1119.31 732.066,1118.07 734.79,1116.43 737.514,1114.79 740.238,1113.16 742.771,1113.99 745.304,1115.6 747.837,1117.22 750.37,1118.83 752.903,1119.33 755.436,1117.61 757.969,1115.88 760.503,1114.15 763.036,1112.42 765.569,1113.85 768.102,1115.58 770.635,1117.32 773.168,1119.05 775.701,1119.12 778.234,1117.49 780.767,1115.86 783.3,1114.23 785.833,1112.85 788.366,1114.47 790.899,1116.09 793.432,1117.72 795.966,1119.34 798.499,1118.77 801.032,1117.06 803.565,1115.35 806.098,1113.64 808.631,1112.75 811.164,1114.46 813.697,1116.18 816.23,1117.9 818.763,1119.62 821.296,1118.57 822.886,1117.54 824.476,1116.51 826.066,1115.48 827.656,1114.45 829.246,1113.42 830.836,1112.94 832.426,1113.97 834.016,1114.99 837.196,1117.05 840.376,1119.1 843.555,1118.58 846.735,1116.45 849.915,1114.33 853.095,1112.6 856.275,1114.74 859.455,1116.87 862.635,1119.01 865.814,1118.72 868.994,1116.64 872.174,1114.57 873.764,1113.53 875.354,1112.72 876.944,1113.76 878.534,1114.79 881.714,1116.86 884.894,1118.93 888.074,1118.76 891.253,1116.64 894.433,1114.53 897.613,1112.48 900.793,1114.6 903.973,1116.72 907.153,1118.84 910.333,1118.87 913.513,1116.79 916.692,1114.7 918.282,1113.66 919.872,1112.62 921.462,1113.57 923.052,1114.61 925.905,1116.47 928.757,1118.33 931.609,1119.58 934.462,1117.69 937.314,1115.8 940.166,1113.91 943.019,1112.93 945.871,1114.82 948.723,1116.72 951.576,1118.61 954.428,1119.3 957.281,1117.43 960.133,1115.56 962.985,1113.69 965.838,1113.29 968.69,1115.16 971.542,1117.03 974.395,1118.9 977.247,1119 980.099,1117.12 982.952,1115.23 985.804,1113.35 988.657,1113.52 991.509,1115.41 994.361,1117.3 997.214,1119.18 1000.07,1118.73 1002.92,1116.85 1005.77,1114.98 1008.62,1113.1 1011.48,1113.85 1014.33,1115.72 1015.96,1116.79 1017.59,1117.86 1019.23,1118.94 1020.86,1119.77 1024.12,1117.61 1027.39,1115.46 1030.65,1113.3 1033.92,1113.86 1037.18,1116.01 1040.45,1118.17 1042.08,1119.24 1043.71,1119.46 1045.34,1118.39 1046.98,1117.31 1050.24,1115.17 1053.51,1113.02 1056.77,1114.19 1060.04,1116.33 1063.3,1118.48 1066.57,1119.14 1069.83,1116.99 1073.1,1114.84 1074.73,1113.77 1076.36,1112.69 1077.99,1113.41 1079.63,1114.48 1082.89,1116.63 1086.16,1118.79 1089.42,1118.84 1092.69,1116.69 1095.95,1114.54 1099.22,1112.66 1102.48,1114.8 1105.75,1116.95 1109.01,1119.1 1112.28,1118.52 1115.54,1116.37 1118.81,1114.22 1121.25,1112.62 1123.69,1114.02 1126.13,1115.63 1128.57,1117.23 1131.01,1118.84 1133.45,1119.32 1135.89,1117.72 1138.33,1116.11 1140.77,1114.51 1143.21,1112.9 1145.65,1113.75 1148.09,1115.35 1150.53,1116.96 1152.97,1118.56 1155.41,1119.59 1157.85,1117.99 1160.29,1116.38 1162.73,1114.78 1165.18,1113.17 1167.62,1113.47 1170.06,1115.07 1172.5,1116.68 1174.94,1118.29 1177.38,1119.87 1179.82,1118.27 1182.26,1116.66 1184.7,1115.06 1187.14,1113.45 1189.58,1113.2 1192.02,1114.8 1193.24,1115.6 1194.46,1116.41 1195.68,1117.21 1196.9,1118.01 1198.46,1119.04 1200.02,1119.7 1201.58,1118.67 1203.14,1117.64 1206.27,1115.59 1209.39,1113.54 1212.51,1113.55 1215.63,1115.61 1218.75,1117.66 1221.87,1119.71 1225,1118 1228.12,1115.94 1231.24,1113.89 1234.36,1113.2 1237.48,1115.26 1240.6,1117.31 1242.16,1118.33 1243.72,1119.36 1245.28,1119.37 1246.85,1118.35 1249.97,1116.29 1253.09,1114.24 1254.65,1113.21 1256.21,1112.85 1257.77,1113.88 1259.33,1114.9 1262.45,1116.96 1265.57,1119.01 1268.7,1118.7 1271.82,1116.64 1274.94,1114.59 1278.06,1112.54 1281.18,1114.55 1284.3,1116.61 1287.42,1118.66 1290.55,1119.05 1292.11,1118.02 1293.67,1116.99 1295.23,1115.97 1296.79,1114.94 1299.64,1113.07 1302.49,1113.84 1305.34,1115.72 1308.19,1117.59 1311.03,1119.46 1313.88,1118.42 1316.73,1116.55 1319.58,1114.68 1322.43,1112.8 1325.28,1114.11 1328.13,1115.98 1330.98,1117.86 1332.4,1118.79 1333.83,1119.73 1335.25,1119.09 1336.67,1118.15 1338.1,1117.21 1339.52,1116.28 1340.95,1115.34 1342.37,1114.41 1343.8,1113.47 1345.22,1112.53 1346.65,1113.44 1348.07,1114.38 1350.92,1116.25 1353.77,1118.12 1355.19,1119.06 1356.62,1119.75 1358.04,1118.82 1359.47,1117.88 1362.32,1116.01 1365.16,1114.14 1368.01,1112.78 1370.86,1114.65 1373.71,1116.52 1376.56,1118.39 1379.41,1119.49 1382.26,1117.61 1385.11,1115.74 1387.96,1113.87 1389.58,1112.81 1391.2,1113.3 1392.82,1114.37 1394.44,1115.43 1397.68,1117.56 1400.93,1119.69 1404.17,1117.93 1407.41,1115.8 1410.65,1113.67 1413.9,1113.51 1417.14,1115.64 1420.38,1117.77 1422,1118.83 1423.62,1119.85 1425.25,1118.78 1426.87,1117.72 1430.11,1115.59 1433.35,1113.46 1436.59,1113.71 1439.84,1115.84 1443.08,1117.97 1446.32,1119.64 1449.56,1117.51 1452.81,1115.38 1456.05,1113.25 1459.29,1113.92 1462.53,1116.05 1465.78,1118.18 1467.4,1119.25 1469.02,1119.44 1470.64,1118.37 1472.26,1117.31 1475.5,1115.18 1478.75,1113.05 1481.99,1114.13 1485.23,1116.26 1488.47,1118.39 1491.72,1119.23 1494.29,1117.54 1496.86,1115.85 1499.43,1114.17 1502,1112.57 1504.57,1114.25 1507.14,1115.94 1509.71,1117.63 1512.28,1119.32 1514.85,1118.74 1517.42,1117.05 1519.99,1115.36 1522.56,1113.67 1525.13,1113.06 1527.7,1114.75 1530.27,1116.44 1532.84,1118.12 1535.41,1119.81 1537.98,1118.25 1540.55,1116.56 1543.12,1114.87 1545.69,1113.18 1548.27,1113.55 1550.84,1115.24 1553.41,1116.93 1555.98,1118.62 1558.55,1119.44 1561.12,1117.76 1563.69,1116.07 1566.26,1114.38 1568.83,1112.69 1571.4,1114.04 1573.97,1115.73 1575.57,1116.78 1577.16,1117.83 1578.76,1118.88 1580.36,1119.82 1583.55,1117.72 1586.74,1115.63 1589.94,1113.53 1593.13,1113.61 1596.32,1115.71 1599.52,1117.81 1601.11,1118.86 1602.71,1119.84 1604.31,1118.79 1605.9,1117.74 1609.1,1115.65 1612.29,1113.55 1615.48,1113.59 1618.68,1115.69 1621.87,1117.79 1625.06,1119.86 1628.26,1117.76 1631.45,1115.67 1634.64,1113.57 1637.84,1113.57 1641.03,1115.67 1644.22,1117.77 1645.82,1118.82 1647.42,1119.87 1649.01,1118.83 1650.61,1117.78 1653.8,1115.69 1657,1113.59 1660.19,1113.55 1663.38,1115.65 1666.58,1117.75 1669.77,1119.85 1672.96,1117.8 1676.16,1115.71 1678.6,1114.1 1681.05,1112.55 1683.49,1114.16 1685.94,1115.77 1688.39,1117.37 1690.83,1118.98 1693.28,1119.17 1695.72,1117.56 1698.17,1115.95 1700.61,1114.34 1703.06,1112.74 1705.51,1113.91 1707.95,1115.52 1710.4,1117.13 1712.84,1118.74 1715.29,1119.41 1717.73,1117.8 1720.18,1116.2 1722.62,1114.59 1725.07,1112.98 1727.52,1113.67 1729.96,1115.28 1732.41,1116.88 1734.85,1118.49 1737.3,1119.66 1739.74,1118.05 1742.19,1116.44 1744.64,1114.84 1747.08,1113.23 1749.53,1113.42 1750.75,1114.23 1751.97,1115.03 1753.19,1115.83 1754.42,1116.64 1757.87,1118.91 1761.31,1118.59 1764.76,1116.32 1768.21,1114.05 1769.93,1112.92 1771.66,1113.26 1773.38,1114.39 1775.11,1115.52 1778.55,1117.79 1782,1119.7 1785.45,1117.44 1788.9,1115.17 1790.62,1114.03 1792.35,1112.9 1794.07,1113.27 1795.79,1114.41 1799.24,1116.68 1802.69,1118.94 1806.14,1118.55 1809.59,1116.28 1813.03,1114.02 1816.48,1113.29 1819.93,1115.56 1823.38,1117.83 1825.1,1118.96 1826.83,1119.67 1828.55,1118.53 1830.27,1117.4 1833.72,1115.13 1837.17,1112.86 1840.62,1114.44 1844.07,1116.71 1845.79,1117.85 1847.51,1118.98 1849.24,1119.65 1850.96,1118.52 1854.41,1116.25 1857.86,1113.98 1859.58,1112.85 1861.3,1113.33 1863.03,1114.46 1864.75,1115.6 1867.33,1117.29 1869.91,1118.99 1872.48,1119.09 1875.06,1117.39 1877.64,1115.69 1880.21,1114 1882.79,1112.74 1885.37,1114.43 1887.94,1116.13 1890.52,1117.82 1893.1,1119.52 1895.67,1118.56 1898.25,1116.86 1900.83,1115.16 1903.4,1113.47 1905.98,1113.27 1908.56,1114.96 1911.13,1116.66 1913.71,1118.35 1916.29,1119.72 1918.86,1118.03 1921.44,1116.33 1924.01,1114.63 1926.59,1112.94 1929.17,1113.8 1931.74,1115.49 1934.32,1117.19 1936.9,1118.89 1939.47,1119.19 1942.05,1117.5 1944.63,1115.8 1947.2,1114.1 1950.13,1112.86 1953.06,1114.79 1956,1116.72 1958.93,1118.65 1961.86,1119.2 1964.79,1117.27 1967.72,1115.34 1970.65,1113.41 1973.58,1113.56 1976.51,1115.49 1979.44,1117.42 1982.37,1119.35 1985.3,1118.5 1988.23,1116.57 1991.16,1114.64 1994.09,1112.71 1997.02,1114.26 1999.95,1116.19 2002.88,1118.12 2005.81,1119.74 2008.74,1117.81 2011.67,1115.88 2014.6,1113.95 2017.53,1113.02 2020.46,1114.95 2023.39,1116.88 2026.32,1118.82 2029.25,1119.04 2032.18,1117.11 2035.11,1115.18 2038.04,1113.25 2040.97,1113.72 2064.19,1114.27 2087.4,1114.81 2110.62,1115.37 2133.83,1115.91 2235.99,1115.57 2314.03,1116.65 2412.5,1117.31 2503.58,1116.34 2527.06,1115.93 2550.55,1115.67 2562.29,1116.89 2574.03,1119.53 2585.77,1120.56 2597.51,1121.95 2609.41,1124.19 2621.32,1127.25 2633.22,1131.16 2645.12,1135.9 2657.02,1141.47 2668.92,1147.88 2680.82,1155.12 2692.72,1163.2 2705.15,1172.52 2717.58,1182.76 2730,1193.91 2742.43,1205.96 2754.86,1218.93 2767.29,1232.8 2779.71,1247.59 2792.14,1263.29 2801.93,1276.29 2811.72,1289.86 2821.51,1304 2831.3,1318.7 2841.09,1333.96 2850.88,1349.79 2860.67,1366.19 2870.46,1383.14 2881.6,1403.14 2892.75,1423.87 2903.9,1445.34 2915.04,1467.53 2926.19,1490.46 2937.34,1514.12 2948.48,1538.51 2959.63,1563.63 2970.78,1589.49 2981.92,1616.08 2993.07,1643.4 3004.22,1671.45 3015.36,1700.24 3026.51,1729.76 3037.66,1760.01 3048.81,1790.99 3051.31,1798.04 3053.81,1805.13 3055.06,1808.69 3056.31,1812.26 3057.56,1815.83 3058.81,1816.92 3061.31,1818.82 3063.81,1820.72 3066.31,1822.62 3068.82,1824.51 "/>
<polyline clip-path="url(#clip731)" style="stroke:#e26f46; stroke-linecap:round; stroke-linejoin:round; stroke-width:4; stroke-opacity:1; fill:none" points="270.807,754.659 278.028,769.244 285.25,783.523 292.471,797.494 299.693,811.158 310.267,830.61 320.84,849.404 331.414,867.538 341.988,885.014 352.562,901.831 363.136,917.989 373.71,933.488 384.284,948.328 394.857,962.509 405.431,976.031 416.005,988.895 426.579,1001.1 437.153,1012.64 447.727,1023.53 458.3,1033.76 468.874,1043.33 478.712,1051.64 488.55,1059.38 498.388,1066.55 508.226,1073.15 518.064,1079.18 527.902,1084.64 537.74,1089.53 547.578,1093.85 560.764,1098.74 573.951,1102.61 587.137,1105.45 600.323,1107.27 606.917,1107.94 613.51,1110.9 620.103,1114.21 626.696,1118.43 628.345,1119.48 629.993,1119.13 631.641,1117.97 633.29,1116.8 636.586,1114.47 639.883,1112.14 643.179,1114.31 646.476,1116.86 648.124,1118.14 649.773,1119.42 651.421,1120.56 653.069,1119.17 655.793,1116.87 658.517,1114.58 659.879,1113.43 661.241,1112.29 662.603,1111.27 663.965,1112.51 666.689,1114.99 669.413,1117.46 670.775,1118.7 672.137,1119.94 673.499,1121.18 674.861,1120.27 677.585,1117.61 680.31,1114.95 681.672,1113.62 683.034,1112.3 684.396,1110.97 685.758,1111.34 688.482,1114.18 691.206,1117.02 693.93,1119.86 696.654,1121.51 698.016,1120.01 699.378,1118.5 700.74,1116.99 702.102,1115.48 704.826,1112.47 707.55,1110.03 710.274,1113.22 712.998,1116.42 715.722,1119.61 718.446,1122.8 721.17,1119.54 723.894,1116.18 726.618,1112.81 729.342,1109.45 730.704,1110.36 732.066,1112.13 733.428,1113.89 734.79,1115.65 737.514,1119.18 740.238,1122.71 741.505,1122.67 742.771,1120.92 744.038,1119.18 745.304,1117.44 747.837,1113.96 750.37,1110.48 751.637,1108.74 752.903,1109.39 754.17,1111.25 755.436,1113.11 757.969,1116.84 760.503,1120.57 761.769,1122.44 763.036,1124.3 764.302,1123.08 765.569,1121.22 768.102,1117.48 770.635,1113.74 771.901,1111.87 773.168,1110 773.801,1109.06 774.434,1108.12 775.068,1108.97 775.701,1109.85 778.234,1113.37 780.767,1116.89 782.034,1118.65 783.3,1120.4 784.567,1122.16 785.833,1123.39 788.366,1119.88 790.899,1116.38 793.432,1112.87 795.966,1109.37 797.232,1108.76 798.499,1110.6 799.765,1112.45 801.032,1114.29 803.565,1117.98 806.098,1121.68 807.364,1123.52 808.631,1123.6 809.897,1121.75 811.164,1119.9 813.697,1116.19 816.23,1112.49 817.497,1110.63 818.763,1108.78 820.03,1109.25 821.296,1111.03 824.476,1115.48 827.656,1119.94 829.246,1122.16 830.836,1123.19 832.426,1120.97 834.016,1118.76 837.196,1114.32 840.376,1109.89 841.17,1108.78 841.965,1108.71 842.76,1109.86 843.555,1111.01 845.145,1113.3 846.735,1115.6 848.325,1117.9 849.915,1120.2 851.505,1122.49 853.095,1123.92 854.685,1121.61 856.275,1119.31 857.865,1117 859.455,1114.7 861.045,1112.39 862.635,1110.09 863.43,1108.93 864.225,1108.47 865.02,1109.59 865.814,1110.71 868.994,1115.19 872.174,1119.68 873.764,1121.92 875.354,1123.66 876.944,1121.42 878.534,1119.19 881.714,1114.72 884.894,1110.25 885.689,1109.13 886.484,1108.34 887.279,1109.48 888.074,1110.63 889.664,1112.91 891.253,1115.2 892.843,1117.48 894.433,1119.77 896.023,1122.05 897.613,1124.19 899.203,1121.9 900.793,1119.61 902.383,1117.32 903.973,1115.03 905.563,1112.74 907.153,1110.44 907.948,1109.3 908.743,1108.15 909.538,1109.25 910.333,1110.38 913.513,1114.88 916.692,1119.39 918.282,1121.64 919.872,1123.89 921.462,1121.85 923.052,1119.6 925.905,1115.57 928.757,1111.53 930.183,1109.52 931.609,1108.85 933.035,1110.89 934.462,1112.93 937.314,1117.02 940.166,1121.11 941.593,1123.15 943.019,1123.22 944.445,1121.17 945.871,1119.12 948.723,1115.03 951.576,1110.94 953.002,1108.89 954.428,1109.44 955.854,1111.46 957.281,1113.49 960.133,1117.54 962.985,1121.59 963.698,1122.6 964.411,1123.61 965.125,1123.46 965.838,1122.45 967.264,1120.42 968.69,1118.4 971.542,1114.36 974.395,1110.31 975.108,1109.3 975.821,1108.29 976.534,1109.07 977.247,1110.09 978.673,1112.13 980.099,1114.17 982.952,1118.24 985.804,1122.32 986.517,1123.34 987.23,1123.98 987.943,1122.96 988.657,1121.94 990.083,1119.9 991.509,1117.86 994.361,1113.78 997.214,1109.7 997.927,1108.67 998.64,1108.65 999.353,1109.67 1000.07,1110.68 1001.49,1112.71 1002.92,1114.74 1005.77,1118.8 1008.62,1122.85 1009.34,1123.87 1010.05,1123.27 1010.76,1122.25 1011.48,1121.24 1012.9,1119.21 1014.33,1117.19 1015.96,1114.87 1017.59,1112.55 1018.41,1111.39 1019.23,1110.23 1020.04,1109.07 1020.86,1108.43 1024.12,1113.09 1027.39,1117.76 1029.02,1120.09 1030.65,1122.42 1031.47,1123.59 1032.28,1123.55 1033.1,1122.39 1033.92,1121.22 1037.18,1116.56 1040.45,1111.89 1042.08,1109.56 1043.71,1109.09 1045.34,1111.42 1046.98,1113.74 1050.24,1118.39 1053.51,1123.04 1054.32,1123.99 1055.14,1122.83 1055.96,1121.67 1056.77,1120.5 1058.4,1118.18 1060.04,1115.86 1061.67,1113.54 1063.3,1111.21 1064.12,1110.05 1064.93,1108.89 1065.75,1108.61 1066.57,1109.77 1069.83,1114.43 1073.1,1119.09 1074.73,1121.42 1076.36,1123.75 1077.99,1122.2 1079.63,1119.87 1082.89,1115.21 1086.16,1110.55 1086.97,1109.38 1087.79,1108.22 1088.6,1109.28 1089.42,1110.44 1091.05,1112.76 1092.69,1115.09 1094.32,1117.41 1095.95,1119.74 1097.58,1122.06 1099.22,1123.82 1100.85,1121.5 1102.48,1119.18 1104.11,1116.85 1105.75,1114.53 1107.38,1112.2 1109.01,1109.88 1109.83,1108.72 1110.64,1108.79 1111.46,1109.95 1112.28,1111.12 1115.54,1115.77 1118.81,1120.43 1120.03,1122.17 1121.25,1123.91 1122.47,1122.62 1123.69,1120.88 1126.13,1117.39 1128.57,1113.91 1129.79,1112.17 1131.01,1110.43 1132.23,1108.69 1133.45,1109.39 1135.89,1112.86 1138.33,1116.34 1140.77,1119.82 1143.21,1123.29 1144.43,1123.2 1145.65,1121.46 1146.87,1119.72 1148.09,1117.98 1150.53,1114.5 1152.97,1111.03 1154.19,1109.29 1155.41,1108.79 1156.63,1110.53 1157.85,1112.27 1160.29,1115.75 1162.73,1119.23 1163.95,1120.97 1165.18,1122.71 1166.4,1123.81 1167.62,1122.07 1170.06,1118.59 1172.5,1115.11 1174.94,1111.63 1177.38,1108.19 1179.82,1111.67 1182.26,1115.15 1184.7,1118.63 1187.14,1122.1 1188.36,1123.84 1189.58,1122.66 1190.8,1120.92 1192.02,1119.18 1194.46,1115.7 1196.9,1112.23 1198.46,1110 1200.02,1108.57 1201.58,1110.79 1203.14,1113.02 1206.27,1117.47 1209.39,1121.92 1210.17,1123.03 1210.95,1124.11 1211.73,1123 1212.51,1121.89 1214.07,1119.66 1215.63,1117.44 1217.19,1115.21 1218.75,1112.99 1220.31,1110.76 1221.87,1108.54 1223.43,1110.03 1225,1112.26 1226.56,1114.48 1228.12,1116.71 1229.68,1118.93 1231.24,1121.15 1232.02,1122.27 1232.8,1123.38 1233.58,1123.76 1234.36,1122.64 1237.48,1118.2 1240.6,1113.75 1242.16,1111.52 1243.72,1109.3 1245.28,1109.27 1246.85,1111.5 1249.97,1115.95 1253.09,1120.4 1254.65,1122.62 1256.21,1123.41 1257.77,1121.19 1259.33,1118.96 1262.45,1114.51 1265.57,1110.06 1266.35,1108.95 1267.14,1108.51 1267.92,1109.63 1268.7,1110.74 1270.26,1112.96 1271.82,1115.19 1273.38,1117.41 1274.94,1119.63 1276.5,1121.86 1278.06,1124.08 1279.62,1121.94 1281.18,1119.72 1282.74,1117.5 1284.3,1115.27 1285.86,1113.05 1287.42,1110.82 1288.21,1109.71 1288.99,1108.6 1289.77,1108.87 1290.55,1109.98 1292.11,1112.2 1293.67,1114.43 1295.23,1116.65 1296.79,1118.88 1298.21,1120.91 1299.64,1122.94 1301.06,1123.29 1302.49,1121.26 1305.34,1117.2 1308.19,1113.14 1309.61,1111.11 1311.03,1109.08 1312.46,1109.31 1313.88,1111.34 1316.73,1115.4 1319.58,1119.46 1321.01,1121.49 1322.43,1123.52 1323.85,1122.71 1325.28,1120.68 1328.13,1116.62 1330.98,1112.56 1332.4,1110.53 1333.83,1108.5 1335.25,1109.89 1336.67,1111.92 1339.52,1115.98 1342.37,1120.04 1343.8,1122.07 1345.22,1124.1 1346.65,1122.13 1348.07,1120.1 1350.92,1116.04 1353.77,1111.98 1355.19,1109.95 1356.62,1108.44 1358.04,1110.47 1359.47,1112.5 1362.32,1116.56 1365.16,1120.62 1366.59,1122.65 1368.01,1123.58 1369.44,1121.55 1370.86,1119.52 1373.71,1115.46 1376.56,1111.4 1377.99,1109.37 1379.41,1109.02 1380.83,1111.05 1382.26,1113.08 1385.11,1117.14 1387.96,1121.2 1388.77,1122.36 1389.58,1123.51 1390.39,1123.59 1391.2,1122.44 1392.82,1120.12 1394.44,1117.81 1396.06,1115.5 1397.68,1113.19 1399.31,1110.88 1400.93,1108.57 1402.55,1110.1 1404.17,1112.41 1405.79,1114.72 1407.41,1117.03 1409.03,1119.34 1410.65,1121.65 1411.46,1122.8 1412.28,1123.96 1413.09,1123.14 1413.9,1121.99 1417.14,1117.37 1420.38,1112.75 1422,1110.44 1423.62,1108.23 1425.25,1110.54 1426.87,1112.85 1430.11,1117.47 1433.35,1122.1 1434.16,1123.25 1434.97,1123.85 1435.78,1122.7 1436.59,1121.54 1438.22,1119.23 1439.84,1116.92 1441.46,1114.61 1443.08,1112.3 1444.7,1109.99 1446.32,1108.68 1447.94,1110.99 1449.56,1113.3 1451.19,1115.61 1452.81,1117.92 1454.43,1120.23 1456.05,1122.54 1456.86,1123.7 1457.67,1123.41 1458.48,1122.25 1459.29,1121.1 1462.53,1116.47 1465.78,1111.85 1467.4,1109.54 1469.02,1109.13 1470.64,1111.44 1472.26,1113.75 1475.5,1118.37 1478.75,1122.99 1479.56,1124.11 1480.37,1122.96 1481.18,1121.8 1481.99,1120.65 1483.61,1118.34 1485.23,1116.03 1486.85,1113.72 1488.47,1111.41 1489.28,1110.25 1490.1,1109.1 1490.91,1108.42 1491.72,1109.57 1494.29,1113.24 1496.86,1116.9 1498.14,1118.73 1499.43,1120.56 1500.71,1122.39 1502,1124.03 1503.28,1122.2 1504.57,1120.37 1505.85,1118.54 1507.14,1116.71 1509.71,1113.04 1512.28,1109.38 1513.56,1108.81 1514.85,1110.64 1516.14,1112.47 1517.42,1114.3 1519.99,1117.97 1522.56,1121.63 1523.85,1123.46 1525.13,1122.97 1526.42,1121.13 1527.7,1119.3 1530.27,1115.64 1532.84,1111.98 1534.13,1110.14 1535.41,1108.31 1536.7,1109.88 1537.98,1111.71 1540.55,1115.37 1543.12,1119.03 1544.41,1120.87 1545.69,1122.7 1546.98,1123.73 1548.27,1121.9 1550.84,1118.23 1553.41,1114.57 1554.69,1112.74 1555.98,1110.91 1557.26,1109.08 1558.55,1109.11 1561.12,1112.78 1563.69,1116.44 1566.26,1120.1 1568.83,1123.77 1570.11,1122.66 1571.4,1120.83 1572.68,1119 1573.97,1117.17 1575.57,1114.89 1577.16,1112.61 1578.76,1110.34 1580.36,1108.29 1581.95,1110.57 1583.55,1112.84 1585.15,1115.12 1586.74,1117.4 1588.34,1119.67 1589.94,1121.95 1590.73,1123.08 1591.53,1124.03 1592.33,1122.9 1593.13,1121.76 1596.32,1117.21 1599.52,1112.66 1601.11,1110.38 1602.71,1108.25 1604.31,1110.53 1605.9,1112.8 1609.1,1117.35 1612.29,1121.9 1613.09,1123.04 1613.89,1124.08 1614.69,1122.94 1615.48,1121.8 1617.08,1119.53 1618.68,1117.25 1620.27,1114.98 1621.87,1112.7 1623.47,1110.42 1625.06,1108.21 1626.66,1110.48 1628.26,1112.76 1629.85,1115.03 1631.45,1117.31 1633.05,1119.58 1634.64,1121.86 1635.44,1123 1636.24,1124.12 1637.04,1122.98 1637.84,1121.85 1641.03,1117.29 1644.22,1112.74 1645.82,1110.47 1647.42,1108.19 1649.01,1110.44 1650.61,1112.71 1653.8,1117.27 1657,1121.82 1657.8,1122.95 1658.59,1124.09 1659.39,1123.03 1660.19,1121.89 1661.79,1119.61 1663.38,1117.34 1664.98,1115.06 1666.58,1112.79 1668.17,1110.51 1669.77,1108.23 1671.37,1110.39 1672.96,1112.67 1674.56,1114.95 1676.16,1117.22 1678.6,1120.71 1681.05,1124.06 1683.49,1120.58 1685.94,1117.09 1688.39,1113.61 1690.83,1110.12 1692.05,1108.38 1693.28,1109.72 1694.5,1111.46 1695.72,1113.2 1698.17,1116.69 1700.61,1120.17 1701.84,1121.92 1703.06,1123.66 1704.28,1122.85 1705.51,1121.11 1707.95,1117.62 1710.4,1114.14 1711.62,1112.39 1712.84,1110.65 1714.06,1108.91 1715.29,1109.18 1717.73,1112.67 1720.18,1116.16 1722.62,1119.64 1725.07,1123.13 1726.29,1123.38 1727.52,1121.64 1728.74,1119.9 1729.96,1118.15 1732.41,1114.67 1734.85,1111.18 1736.08,1109.44 1737.3,1108.65 1738.52,1110.39 1739.74,1112.14 1742.19,1115.62 1744.64,1119.11 1745.86,1120.85 1747.08,1122.59 1748.3,1123.91 1749.53,1122.17 1750.75,1120.43 1751.97,1118.69 1753.19,1116.94 1754.42,1115.2 1756.14,1112.74 1757.87,1110.29 1758.73,1109.06 1759.59,1108.52 1760.45,1109.75 1761.31,1110.98 1763.04,1113.43 1764.76,1115.89 1766.49,1118.35 1768.21,1120.8 1769.07,1122.03 1769.93,1123.26 1770.8,1123.76 1771.66,1122.53 1773.38,1120.07 1775.11,1117.62 1776.83,1115.16 1778.55,1112.7 1780.28,1110.25 1782,1108.56 1783.73,1111.01 1785.45,1113.47 1787.17,1115.93 1788.9,1118.39 1790.62,1120.84 1792.35,1123.3 1794.07,1122.49 1795.79,1120.03 1797.52,1117.58 1799.24,1115.12 1800.97,1112.66 1802.69,1110.2 1803.55,1108.98 1804.41,1108.6 1805.28,1109.82 1806.14,1111.05 1807.86,1113.51 1809.59,1115.97 1811.31,1118.42 1813.03,1120.88 1813.9,1122.11 1814.76,1123.34 1815.62,1123.68 1816.48,1122.45 1818.21,1119.99 1819.93,1117.54 1821.65,1115.08 1823.38,1112.62 1825.1,1110.16 1826.83,1108.63 1828.55,1111.09 1830.27,1113.55 1832,1116.01 1833.72,1118.46 1835.45,1120.92 1837.17,1123.38 1838.89,1122.41 1840.62,1119.95 1842.34,1117.5 1844.07,1115.04 1845.79,1112.58 1847.51,1110.12 1848.38,1108.89 1849.24,1108.67 1850.1,1109.9 1850.96,1111.13 1852.69,1113.59 1854.41,1116.04 1856.13,1118.5 1857.86,1120.96 1858.72,1122.19 1859.58,1123.42 1860.44,1123.6 1861.3,1122.37 1863.03,1119.91 1864.75,1117.46 1867.33,1113.78 1869.91,1110.11 1870.55,1109.19 1871.19,1108.27 1871.84,1108.98 1872.48,1109.9 1873.77,1111.74 1875.06,1113.57 1877.64,1117.24 1880.21,1120.92 1881.5,1122.75 1882.79,1123.65 1884.08,1121.82 1885.37,1119.98 1887.94,1116.31 1890.52,1112.63 1891.81,1110.8 1893.1,1108.96 1894.38,1109.21 1895.67,1111.05 1898.25,1114.72 1900.83,1118.39 1902.11,1120.23 1903.4,1122.07 1904.69,1123.9 1905.98,1122.5 1907.27,1120.67 1908.56,1118.83 1909.84,1116.99 1911.13,1115.16 1912.42,1113.32 1913.71,1111.48 1915,1109.65 1916.29,1108.52 1918.86,1112.19 1921.44,1115.87 1924.01,1119.54 1926.59,1123.21 1927.88,1123.19 1929.17,1121.35 1930.46,1119.52 1931.74,1117.68 1934.32,1114.01 1936.9,1110.33 1938.19,1108.5 1939.47,1109.67 1940.76,1111.5 1942.05,1113.34 1944.63,1117.01 1947.2,1120.69 1948.67,1122.77 1950.13,1123.37 1951.6,1121.29 1953.06,1119.2 1956,1115.02 1958.93,1110.84 1959.66,1109.8 1960.39,1108.75 1961.12,1108.62 1961.86,1109.66 1963.32,1111.75 1964.79,1113.84 1967.72,1118.01 1970.65,1122.19 1971.38,1123.23 1972.11,1123.95 1972.84,1122.91 1973.58,1121.86 1975.04,1119.78 1976.51,1117.69 1979.44,1113.51 1982.37,1109.33 1983.1,1108.29 1983.83,1109.08 1984.56,1110.12 1985.3,1111.17 1986.76,1113.26 1988.23,1115.34 1989.69,1117.43 1991.16,1119.52 1992.62,1121.61 1994.09,1123.7 1995.55,1122.45 1997.02,1120.36 1998.48,1118.27 1999.95,1116.18 2001.41,1114.09 2002.88,1112 2004.34,1109.91 2005.81,1108.5 2007.27,1110.58 2008.74,1112.67 2010.2,1114.76 2011.67,1116.85 2013.13,1118.94 2014.6,1121.03 2015.33,1122.07 2016.06,1123.11 2016.8,1124.07 2017.53,1123.02 2020.46,1118.85 2023.39,1114.67 2024.85,1112.58 2026.32,1110.49 2027.05,1109.45 2027.78,1108.4 2028.52,1108.96 2029.25,1110 2032.18,1114.18 2035.11,1118.36 2036.58,1120.45 2038.04,1122.53 2038.77,1123.58 2039.51,1123.61 2040.24,1122.56 2040.97,1121.52 2043.87,1117.38 2046.77,1113.24 2048.23,1111.17 2049.68,1109.1 2051.13,1109.28 2052.58,1111.34 2055.48,1115.48 2058.38,1119.62 2059.83,1121.68 2061.28,1123.75 2062.73,1122.39 2064.19,1120.33 2067.09,1116.19 2069.99,1112.05 2071.44,1109.98 2072.89,1108.39 2074.34,1110.46 2075.79,1112.53 2078.69,1116.67 2081.6,1120.81 2083.05,1122.87 2084.5,1123.28 2085.95,1121.21 2087.4,1119.15 2088.85,1117.08 2090.3,1115.01 2091.75,1112.94 2093.2,1110.87 2094.66,1108.8 2096.11,1109.57 2097.56,1111.64 2099.01,1113.71 2101.91,1117.84 2104.81,1121.98 2105.54,1123.01 2106.26,1124.05 2106.99,1123.12 2107.71,1122.09 2109.16,1120.02 2110.62,1117.95 2113.52,1113.82 2116.42,1109.68 2117.14,1108.64 2117.87,1108.69 2118.6,1109.72 2119.32,1110.76 2120.77,1112.83 2122.22,1114.9 2125.13,1119.04 2128.03,1123.17 2128.75,1124.02 2129.48,1122.98 2130.2,1121.95 2130.93,1120.91 2132.38,1118.84 2133.83,1116.77 2134.63,1115.63 2135.43,1114.5 2136.23,1113.36 2137.02,1112.22 2138.62,1109.94 2140.22,1108.63 2141.81,1110.91 2143.41,1113.18 2145,1115.45 2146.6,1117.73 2148.2,1120 2149.79,1122.28 2150.59,1123.42 2151.39,1123.64 2152.19,1122.5 2152.99,1121.36 2156.18,1116.81 2159.37,1112.26 2160.97,1109.99 2162.56,1108.58 2164.16,1110.85 2165.76,1113.13 2168.95,1117.69 2172.14,1122.24 2172.94,1123.38 2173.74,1123.71 2174.54,1122.57 2175.33,1121.43 2176.93,1119.15 2178.53,1116.87 2180.12,1114.6 2181.72,1112.32 2183.32,1110.04 2184.91,1108.52 2186.51,1110.8 2188.11,1113.07 2189.7,1115.35 2191.3,1117.62 2192.89,1119.89 2194.49,1122.17 2195.29,1123.3 2196.09,1123.73 2196.88,1122.59 2197.68,1121.46 2200.88,1116.91 2204.07,1112.36 2205.66,1110.08 2207.26,1108.47 2208.86,1110.75 2210.45,1113.03 2213.65,1117.59 2216.84,1122.14 2217.64,1123.28 2218.43,1123.81 2219.23,1122.67 2220.03,1121.53 2221.63,1119.26 2223.22,1116.98 2224.82,1114.7 2226.42,1112.42 2228.01,1110.14 2229.61,1108.42 2231.21,1110.69 2232.8,1112.96 2234.4,1115.23 2235.99,1117.51 2237.21,1119.24 2238.43,1120.98 2239.65,1122.71 2240.87,1123.69 2243.31,1120.22 2245.75,1116.75 2248.19,1113.27 2250.63,1109.8 2251.85,1108.2 2253.06,1109.94 2254.28,1111.68 2255.5,1113.43 2257.94,1116.91 2260.38,1120.4 2261.6,1122.14 2262.82,1123.88 2264.04,1122.63 2265.26,1120.89 2267.7,1117.4 2270.13,1113.92 2271.35,1112.18 2272.57,1110.43 2273.79,1108.69 2275.01,1109.32 2277.45,1112.78 2279.89,1116.25 2282.33,1119.72 2284.77,1123.19 2285.99,1123.18 2287.2,1121.44 2288.42,1119.71 2289.64,1117.97 2292.08,1114.5 2294.52,1111.03 2295.74,1109.3 2296.96,1108.69 2298.18,1110.43 2299.4,1112.18 2301.84,1115.67 2304.28,1119.16 2305.49,1120.91 2306.71,1122.65 2307.93,1123.9 2309.15,1122.15 2310.37,1120.41 2311.59,1118.66 2312.81,1116.92 2314.03,1115.17 2315.57,1112.97 2317.11,1110.77 2317.88,1109.67 2318.65,1108.57 2319.41,1108.79 2320.18,1109.88 2323.26,1114.25 2326.34,1118.62 2327.88,1120.8 2329.42,1122.98 2330.95,1122.86 2332.49,1120.67 2335.57,1116.3 2338.65,1111.93 2340.19,1109.74 2341.73,1108.67 2343.26,1110.88 2344.8,1113.09 2347.88,1117.51 2350.96,1121.93 2351.73,1123.03 2352.5,1124.14 2353.27,1123.12 2354.03,1122.02 2355.57,1119.81 2357.11,1117.61 2360.19,1113.19 2363.27,1108.78 2364.04,1108.58 2364.81,1109.67 2365.57,1110.76 2366.34,1111.84 2367.88,1114.02 2369.42,1116.19 2370.96,1118.37 2372.5,1120.54 2373.27,1121.63 2374.04,1122.72 2374.81,1123.81 2375.58,1123.01 2378.65,1118.65 2381.73,1114.29 2383.27,1112.11 2384.81,1109.93 2385.58,1108.84 2386.35,1108.45 2387.12,1109.56 2387.88,1110.67 2390.96,1115.11 2394.04,1119.55 2395.58,1121.77 2397.12,1123.99 2398.66,1122.28 2400.19,1120.07 2403.27,1115.64 2406.35,1111.21 2407.89,1108.99 2409.43,1109.45 2410.2,1110.53 2410.96,1111.62 2411.73,1112.7 2412.5,1113.78 2415.35,1117.78 2418.2,1121.78 2418.91,1122.77 2419.62,1123.77 2420.33,1122.97 2421.04,1122 2422.47,1120.07 2423.89,1118.13 2426.73,1114.26 2429.58,1110.39 2430.29,1109.42 2431,1108.81 2431.72,1109.73 2432.43,1110.66 2433.85,1112.52 2435.27,1114.37 2438.12,1118.08 2440.97,1121.79 2442.39,1122.81 2443.81,1121.04 2445.23,1119.27 2446.66,1117.5 2449.5,1113.96 2452.35,1110.42 2453.77,1109.91 2455.2,1111.59 2456.62,1113.27 2458.04,1114.95 2460.89,1118.31 2463.73,1121.67 2465.16,1121.72 2466.58,1120.13 2468,1118.54 2469.43,1116.95 2472.27,1113.77 2475.12,1110.59 2476.54,1110.96 2477.97,1112.46 2479.39,1113.95 2480.81,1115.45 2483.66,1118.44 2486.5,1121.43 2489.35,1119.29 2492.2,1116.49 2495.04,1113.68 2497.89,1110.87 2500.74,1113.24 2503.58,1115.85 2505.05,1117.2 2506.52,1118.55 2507.98,1119.9 2509.45,1120.83 2512.39,1118.33 2515.32,1115.82 2518.26,1113.32 2521.19,1112.1 2524.13,1114.41 2527.06,1116.72 2528.53,1117.87 2530,1119.02 2531.47,1120.17 2532.93,1119.32 2535.87,1117.21 2538.81,1115.1 2541.74,1112.99 2544.68,1113.46 2547.61,1115.37 2550.55,1117.28 2552.01,1118.24 2553.48,1119.19 2554.95,1118.95 2556.42,1118.1 2559.35,1116.38 2562.29,1114.67 2568.16,1111.67 2574.03,1109.05 2585.77,1107.47 2597.51,1106.08 2609.41,1103.85 2621.32,1100.78 2633.22,1096.88 2645.12,1092.14 2657.02,1086.56 2668.92,1080.16 2680.82,1072.91 2692.72,1064.83 2705.15,1055.51 2717.58,1045.27 2730,1034.13 2742.43,1022.07 2754.86,1009.11 2767.29,995.23 2779.71,980.444 2792.14,964.748 2801.93,951.742 2811.72,938.172 2821.51,924.037 2831.3,909.337 2841.09,894.072 2850.88,878.243 2860.67,861.848 2870.46,844.889 2881.6,824.891 2892.75,804.16 2903.9,782.698 2915.04,760.503 2926.19,737.575 2937.34,713.916 2948.48,689.524 2959.63,664.4 2970.78,638.543 2981.92,611.955 2993.07,584.634 3004.22,556.581 3015.36,527.795 3026.51,498.278 3037.66,468.028 3048.81,437.046 3051.31,429.993 3053.81,422.903 3055.06,419.345 3056.31,415.777 3057.56,412.2 3058.81,412.037 3061.31,412.078 3063.81,412.119 3066.31,412.161 3068.82,412.202 "/>
<polyline clip-path="url(#clip731)" style="stroke:#3da44d; stroke-linecap:round; stroke-linejoin:round; stroke-width:4; stroke-opacity:1; fill:none" points="270.807,1832.61 285.25,1802.73 299.693,1772.85 384.284,1597.87 468.874,1422.89 508.226,1341.49 547.578,1260.09 560.764,1232.81 573.951,1205.53 587.137,1178.26 600.323,1150.98 606.917,1137.44 613.51,1125.75 616.807,1119.9 620.103,1117.23 623.4,1115.85 626.696,1114.48 633.29,1115.55 639.883,1118.62 646.476,1115.47 653.069,1113.94 674.861,1113.14 696.654,1112.25 718.446,1111.31 740.238,1111.33 760.503,1112.7 780.767,1115.9 790.899,1115.69 801.032,1117.1 803.565,1114.55 806.098,1112 808.631,1110.73 811.164,1113.54 813.697,1116.35 816.23,1119.16 818.763,1121.97 821.296,1120.26 824.476,1116.89 827.656,1113.51 830.836,1111.01 834.016,1114.11 837.196,1117.22 840.376,1120.32 843.555,1119.54 846.735,1116.31 849.915,1113.09 853.095,1110.5 856.275,1113.94 859.455,1117.38 862.635,1120.82 865.814,1120.36 868.994,1117.01 872.174,1113.67 873.764,1112 875.354,1110.69 876.944,1112.27 878.534,1113.86 881.714,1117.03 884.894,1120.2 888.074,1119.94 891.253,1116.69 894.433,1113.44 897.613,1110.3 900.793,1113.69 903.973,1117.07 907.153,1120.45 910.333,1120.5 913.513,1117.18 916.692,1113.86 918.282,1112.19 919.872,1110.53 921.462,1111.99 923.052,1113.6 945.871,1114.02 968.69,1114.48 991.509,1114.94 1014.33,1115.38 1040.45,1119.28 1066.57,1120.75 1092.69,1116.95 1118.81,1113.06 1123.69,1112.75 1128.57,1117.8 1131.01,1120.32 1133.45,1121.08 1135.89,1118.56 1138.33,1116.04 1140.77,1113.52 1143.21,1110.99 1145.65,1112.32 1148.09,1114.84 1152.97,1119.87 1157.85,1118.97 1160.29,1116.45 1162.73,1113.93 1165.18,1111.42 1167.62,1111.88 1172.5,1116.93 1177.38,1121.94 1182.26,1116.9 1187.14,1111.86 1189.58,1111.46 1192.02,1113.98 1194.46,1116.49 1196.9,1119.01 1200.02,1121.65 1203.14,1118.43 1206.27,1115.21 1209.39,1112 1212.51,1112.02 1215.63,1115.24 1218.75,1118.46 1221.87,1121.69 1225,1119 1228.12,1115.78 1231.24,1112.55 1234.36,1111.47 1237.48,1114.69 1240.6,1117.91 1243.72,1121.13 1246.85,1119.54 1271.82,1116.88 1296.79,1114.21 1342.37,1113.37 1387.96,1112.53 1439.84,1115.63 1491.72,1120.94 1532.84,1119.21 1573.97,1115.46 1676.16,1115.43 1754.42,1116.88 1864.75,1115.26 1947.2,1112.94 2040.97,1112.35 2133.83,1115.77 2235.99,1115.25 2314.03,1116.96 2338.65,1119.13 2363.27,1121.63 2387.88,1119.94 2412.5,1118.08 2458.04,1117.31 2503.58,1116.6 2527.06,1115.91 2550.55,1115.42 2556.42,1114.79 2562.29,1117.5 2568.16,1115.5 2574.03,1108.95 2579.9,1099.03 2585.77,1086.88 2591.64,1074.74 2597.51,1062.59 2621.32,1013.36 2645.12,964.12 2668.92,914.882 2692.72,865.645 2792.14,659.993 2870.46,497.992 3048.81,129.062 3068.82,99.245 "/>
<polyline clip-path="url(#clip731)" style="stroke:#000000; stroke-linecap:round; stroke-linejoin:round; stroke-width:4; stroke-opacity:1; fill:none" stroke-dasharray="16, 10" points="270.807,1116.19 3068.82,1116.19 "/>
<path clip-path="url(#clip730)" d="M285.73 315.85 L883.683 315.85 L883.683 108.49 L285.73 108.49  Z" fill="#ffffff" fill-rule="evenodd" fill-opacity="1"/>
<polyline clip-path="url(#clip730)" style="stroke:#000000; stroke-linecap:round; stroke-linejoin:round; stroke-width:4; stroke-opacity:1; fill:none" points="285.73,315.85 883.683,315.85 883.683,108.49 285.73,108.49 285.73,315.85 "/>
<polyline clip-path="url(#clip730)" style="stroke:#009af9; stroke-linecap:round; stroke-linejoin:round; stroke-width:4; stroke-opacity:1; fill:none" points="318.684,160.33 516.41,160.33 "/>
<path clip-path="url(#clip730)" d="M549.364 143.05 L554.04 143.05 L554.04 157.216 L571.031 157.216 L571.031 143.05 L575.707 143.05 L575.707 177.61 L571.031 177.61 L571.031 161.151 L554.04 161.151 L554.04 177.61 L549.364 177.61 L549.364 143.05 Z" fill="#000000" fill-rule="nonzero" fill-opacity="1" /><path clip-path="url(#clip730)" d="M593.554 161.938 Q592.396 159.948 590.058 159.948 Q587.72 159.948 586.563 161.938 Q585.383 163.929 585.383 167.911 Q585.383 171.915 586.563 173.906 Q587.72 175.897 590.058 175.897 Q592.396 175.897 593.554 173.906 Q594.734 171.915 594.734 167.911 Q594.734 163.929 593.554 161.938 M590.058 157.887 Q593.785 157.887 595.753 160.457 Q597.72 163.026 597.72 167.911 Q597.72 172.818 595.753 175.387 Q593.785 177.957 590.058 177.957 Q586.308 177.957 584.341 175.387 Q582.373 172.818 582.373 167.911 Q582.373 163.026 584.341 160.457 Q586.308 157.887 590.058 157.887 Z" fill="#000000" fill-rule="nonzero" fill-opacity="1" /><path clip-path="url(#clip730)" d="M614.063 141.638 Q610.961 146.962 609.456 152.17 Q607.952 157.378 607.952 162.725 Q607.952 168.073 609.456 173.327 Q610.984 178.559 614.063 183.86 L610.359 183.86 Q606.887 178.42 605.151 173.165 Q603.438 167.911 603.438 162.725 Q603.438 157.563 605.151 152.332 Q606.864 147.1 610.359 141.638 L614.063 141.638 Z" fill="#000000" fill-rule="nonzero" fill-opacity="1" /><path clip-path="url(#clip730)" d="M643.878 151.684 L634.503 164.299 L644.364 177.61 L639.341 177.61 L631.794 167.424 L624.248 177.61 L619.225 177.61 L629.294 164.045 L620.081 151.684 L625.105 151.684 L631.98 160.92 L638.854 151.684 L643.878 151.684 Z" fill="#000000" fill-rule="nonzero" fill-opacity="1" /><path clip-path="url(#clip730)" d="M660.614 141.638 Q657.512 146.962 656.007 152.17 Q654.503 157.378 654.503 162.725 Q654.503 168.073 656.007 173.327 Q657.535 178.559 660.614 183.86 L656.91 183.86 Q653.438 178.42 651.702 173.165 Q649.989 167.911 649.989 162.725 Q649.989 157.563 651.702 152.332 Q653.415 147.1 656.91 141.638 L660.614 141.638 Z" fill="#000000" fill-rule="nonzero" fill-opacity="1" /><path clip-path="url(#clip730)" d="M673.09 144.323 L673.09 151.684 L681.864 151.684 L681.864 154.994 L673.09 154.994 L673.09 169.068 Q673.09 172.239 673.947 173.142 Q674.827 174.045 677.489 174.045 L681.864 174.045 L681.864 177.61 L677.489 177.61 Q672.558 177.61 670.683 175.781 Q668.808 173.929 668.808 169.068 L668.808 154.994 L665.683 154.994 L665.683 151.684 L668.808 151.684 L668.808 144.323 L673.09 144.323 Z" fill="#000000" fill-rule="nonzero" fill-opacity="1" /><path clip-path="url(#clip730)" d="M686.794 141.638 L690.498 141.638 Q693.97 147.1 695.683 152.332 Q697.419 157.563 697.419 162.725 Q697.419 167.911 695.683 173.165 Q693.97 178.42 690.498 183.86 L686.794 183.86 Q689.873 178.559 691.377 173.327 Q692.905 168.073 692.905 162.725 Q692.905 157.378 691.377 152.17 Q689.873 146.962 686.794 141.638 Z" fill="#000000" fill-rule="nonzero" fill-opacity="1" /><path clip-path="url(#clip730)" d="M707.049 171.73 L711.933 171.73 L711.933 175.711 L708.137 183.119 L705.15 183.119 L707.049 175.711 L707.049 171.73 Z" fill="#000000" fill-rule="nonzero" fill-opacity="1" /><path clip-path="url(#clip730)" d="M740.22 173.721 L740.22 187.471 L735.937 187.471 L735.937 151.684 L740.22 151.684 L740.22 155.619 Q741.562 153.304 743.599 152.193 Q745.659 151.059 748.507 151.059 Q753.229 151.059 756.169 154.809 Q759.132 158.559 759.132 164.67 Q759.132 170.781 756.169 174.531 Q753.229 178.281 748.507 178.281 Q745.659 178.281 743.599 177.17 Q741.562 176.035 740.22 173.721 M754.71 164.67 Q754.71 159.971 752.766 157.309 Q750.845 154.624 747.465 154.624 Q744.085 154.624 742.141 157.309 Q740.22 159.971 740.22 164.67 Q740.22 169.369 742.141 172.054 Q744.085 174.716 747.465 174.716 Q750.845 174.716 752.766 172.054 Q754.71 169.369 754.71 164.67 Z" fill="#000000" fill-rule="nonzero" fill-opacity="1" /><path clip-path="url(#clip730)" d="M776.423 141.638 Q773.321 146.962 771.817 152.17 Q770.312 157.378 770.312 162.725 Q770.312 168.073 771.817 173.327 Q773.344 178.559 776.423 183.86 L772.719 183.86 Q769.247 178.42 767.511 173.165 Q765.798 167.911 765.798 162.725 Q765.798 157.563 767.511 152.332 Q769.224 147.1 772.719 141.638 L776.423 141.638 Z" fill="#000000" fill-rule="nonzero" fill-opacity="1" /><path clip-path="url(#clip730)" d="M788.9 144.323 L788.9 151.684 L797.673 151.684 L797.673 154.994 L788.9 154.994 L788.9 169.068 Q788.9 172.239 789.756 173.142 Q790.636 174.045 793.298 174.045 L797.673 174.045 L797.673 177.61 L793.298 177.61 Q788.368 177.61 786.493 175.781 Q784.618 173.929 784.618 169.068 L784.618 154.994 L781.493 154.994 L781.493 151.684 L784.618 151.684 L784.618 144.323 L788.9 144.323 Z" fill="#000000" fill-rule="nonzero" fill-opacity="1" /><path clip-path="url(#clip730)" d="M802.604 141.638 L806.307 141.638 Q809.779 147.1 811.492 152.332 Q813.229 157.563 813.229 162.725 Q813.229 167.911 811.492 173.165 Q809.779 178.42 806.307 183.86 L802.604 183.86 Q805.682 178.559 807.187 173.327 Q808.715 168.073 808.715 162.725 Q808.715 157.378 807.187 152.17 Q805.682 146.962 802.604 141.638 Z" fill="#000000" fill-rule="nonzero" fill-opacity="1" /><path clip-path="url(#clip730)" d="M821.099 141.638 L824.803 141.638 Q828.275 147.1 829.988 152.332 Q831.724 157.563 831.724 162.725 Q831.724 167.911 829.988 173.165 Q828.275 178.42 824.803 183.86 L821.099 183.86 Q824.178 178.559 825.682 173.327 Q827.21 168.073 827.21 162.725 Q827.21 157.378 825.682 152.17 Q824.178 146.962 821.099 141.638 Z" fill="#000000" fill-rule="nonzero" fill-opacity="1" /><polyline clip-path="url(#clip730)" style="stroke:#e26f46; stroke-linecap:round; stroke-linejoin:round; stroke-width:4; stroke-opacity:1; fill:none" points="318.684,212.17 516.41,212.17 "/>
<path clip-path="url(#clip730)" d="M549.364 194.89 L554.04 194.89 L554.04 209.056 L571.031 209.056 L571.031 194.89 L575.707 194.89 L575.707 229.45 L571.031 229.45 L571.031 212.991 L554.04 212.991 L554.04 229.45 L549.364 229.45 L549.364 194.89 Z" fill="#000000" fill-rule="nonzero" fill-opacity="1" /><path clip-path="url(#clip730)" d="M583.971 226.903 L588.693 226.903 L588.693 212.76 L583.531 213.709 L583.531 211.024 L588.855 210.121 L592.026 210.121 L592.026 226.903 L596.771 226.903 L596.771 229.45 L583.971 229.45 L583.971 226.903 Z" fill="#000000" fill-rule="nonzero" fill-opacity="1" /><path clip-path="url(#clip730)" d="M614.063 193.478 Q610.961 198.802 609.456 204.01 Q607.952 209.218 607.952 214.565 Q607.952 219.913 609.456 225.167 Q610.984 230.399 614.063 235.7 L610.359 235.7 Q606.887 230.26 605.151 225.005 Q603.438 219.751 603.438 214.565 Q603.438 209.403 605.151 204.172 Q606.864 198.94 610.359 193.478 L614.063 193.478 Z" fill="#000000" fill-rule="nonzero" fill-opacity="1" /><path clip-path="url(#clip730)" d="M643.878 203.524 L634.503 216.139 L644.364 229.45 L639.341 229.45 L631.794 219.264 L624.248 229.45 L619.225 229.45 L629.294 215.885 L620.081 203.524 L625.105 203.524 L631.98 212.76 L638.854 203.524 L643.878 203.524 Z" fill="#000000" fill-rule="nonzero" fill-opacity="1" /><path clip-path="url(#clip730)" d="M660.614 193.478 Q657.512 198.802 656.007 204.01 Q654.503 209.218 654.503 214.565 Q654.503 219.913 656.007 225.167 Q657.535 230.399 660.614 235.7 L656.91 235.7 Q653.438 230.26 651.702 225.005 Q649.989 219.751 649.989 214.565 Q649.989 209.403 651.702 204.172 Q653.415 198.94 656.91 193.478 L660.614 193.478 Z" fill="#000000" fill-rule="nonzero" fill-opacity="1" /><path clip-path="url(#clip730)" d="M673.09 196.163 L673.09 203.524 L681.864 203.524 L681.864 206.834 L673.09 206.834 L673.09 220.908 Q673.09 224.079 673.947 224.982 Q674.827 225.885 677.489 225.885 L681.864 225.885 L681.864 229.45 L677.489 229.45 Q672.558 229.45 670.683 227.621 Q668.808 225.769 668.808 220.908 L668.808 206.834 L665.683 206.834 L665.683 203.524 L668.808 203.524 L668.808 196.163 L673.09 196.163 Z" fill="#000000" fill-rule="nonzero" fill-opacity="1" /><path clip-path="url(#clip730)" d="M686.794 193.478 L690.498 193.478 Q693.97 198.94 695.683 204.172 Q697.419 209.403 697.419 214.565 Q697.419 219.751 695.683 225.005 Q693.97 230.26 690.498 235.7 L686.794 235.7 Q689.873 230.399 691.377 225.167 Q692.905 219.913 692.905 214.565 Q692.905 209.218 691.377 204.01 Q689.873 198.802 686.794 193.478 Z" fill="#000000" fill-rule="nonzero" fill-opacity="1" /><path clip-path="url(#clip730)" d="M707.049 223.57 L711.933 223.57 L711.933 227.551 L708.137 234.959 L705.15 234.959 L707.049 227.551 L707.049 223.57 Z" fill="#000000" fill-rule="nonzero" fill-opacity="1" /><path clip-path="url(#clip730)" d="M740.22 225.561 L740.22 239.311 L735.937 239.311 L735.937 203.524 L740.22 203.524 L740.22 207.459 Q741.562 205.144 743.599 204.033 Q745.659 202.899 748.507 202.899 Q753.229 202.899 756.169 206.649 Q759.132 210.399 759.132 216.51 Q759.132 222.621 756.169 226.371 Q753.229 230.121 748.507 230.121 Q745.659 230.121 743.599 229.01 Q741.562 227.875 740.22 225.561 M754.71 216.51 Q754.71 211.811 752.766 209.149 Q750.845 206.464 747.465 206.464 Q744.085 206.464 742.141 209.149 Q740.22 211.811 740.22 216.51 Q740.22 221.209 742.141 223.894 Q744.085 226.556 747.465 226.556 Q750.845 226.556 752.766 223.894 Q754.71 221.209 754.71 216.51 Z" fill="#000000" fill-rule="nonzero" fill-opacity="1" /><path clip-path="url(#clip730)" d="M776.423 193.478 Q773.321 198.802 771.817 204.01 Q770.312 209.218 770.312 214.565 Q770.312 219.913 771.817 225.167 Q773.344 230.399 776.423 235.7 L772.719 235.7 Q769.247 230.26 767.511 225.005 Q765.798 219.751 765.798 214.565 Q765.798 209.403 767.511 204.172 Q769.224 198.94 772.719 193.478 L776.423 193.478 Z" fill="#000000" fill-rule="nonzero" fill-opacity="1" /><path clip-path="url(#clip730)" d="M788.9 196.163 L788.9 203.524 L797.673 203.524 L797.673 206.834 L788.9 206.834 L788.9 220.908 Q788.9 224.079 789.756 224.982 Q790.636 225.885 793.298 225.885 L797.673 225.885 L797.673 229.45 L793.298 229.45 Q788.368 229.45 786.493 227.621 Q784.618 225.769 784.618 220.908 L784.618 206.834 L781.493 206.834 L781.493 203.524 L784.618 203.524 L784.618 196.163 L788.9 196.163 Z" fill="#000000" fill-rule="nonzero" fill-opacity="1" /><path clip-path="url(#clip730)" d="M802.604 193.478 L806.307 193.478 Q809.779 198.94 811.492 204.172 Q813.229 209.403 813.229 214.565 Q813.229 219.751 811.492 225.005 Q809.779 230.26 806.307 235.7 L802.604 235.7 Q805.682 230.399 807.187 225.167 Q808.715 219.913 808.715 214.565 Q808.715 209.218 807.187 204.01 Q805.682 198.802 802.604 193.478 Z" fill="#000000" fill-rule="nonzero" fill-opacity="1" /><path clip-path="url(#clip730)" d="M821.099 193.478 L824.803 193.478 Q828.275 198.94 829.988 204.172 Q831.724 209.403 831.724 214.565 Q831.724 219.751 829.988 225.005 Q828.275 230.26 824.803 235.7 L821.099 235.7 Q824.178 230.399 825.682 225.167 Q827.21 219.913 827.21 214.565 Q827.21 209.218 825.682 204.01 Q824.178 198.802 821.099 193.478 Z" fill="#000000" fill-rule="nonzero" fill-opacity="1" /><polyline clip-path="url(#clip730)" style="stroke:#3da44d; stroke-linecap:round; stroke-linejoin:round; stroke-width:4; stroke-opacity:1; fill:none" points="318.684,264.01 516.41,264.01 "/>
<path clip-path="url(#clip730)" d="M549.364 246.73 L554.04 246.73 L554.04 260.896 L571.031 260.896 L571.031 246.73 L575.707 246.73 L575.707 281.29 L571.031 281.29 L571.031 264.831 L554.04 264.831 L554.04 281.29 L549.364 281.29 L549.364 246.73 Z" fill="#000000" fill-rule="nonzero" fill-opacity="1" /><path clip-path="url(#clip730)" d="M593.554 265.618 Q592.396 263.628 590.058 263.628 Q587.72 263.628 586.563 265.618 Q585.383 267.609 585.383 271.591 Q585.383 275.595 586.563 277.586 Q587.72 279.577 590.058 279.577 Q592.396 279.577 593.554 277.586 Q594.734 275.595 594.734 271.591 Q594.734 267.609 593.554 265.618 M590.058 261.567 Q593.785 261.567 595.753 264.137 Q597.72 266.706 597.72 271.591 Q597.72 276.498 595.753 279.067 Q593.785 281.637 590.058 281.637 Q586.308 281.637 584.341 279.067 Q582.373 276.498 582.373 271.591 Q582.373 266.706 584.341 264.137 Q586.308 261.567 590.058 261.567 Z" fill="#000000" fill-rule="nonzero" fill-opacity="1" /><path clip-path="url(#clip730)" d="M602.975 278.743 L607.697 278.743 L607.697 264.6 L602.535 265.549 L602.535 262.864 L607.859 261.961 L611.031 261.961 L611.031 278.743 L615.776 278.743 L615.776 281.29 L602.975 281.29 L602.975 278.743 Z" fill="#000000" fill-rule="nonzero" fill-opacity="1" /><path clip-path="url(#clip730)" d="M633.067 245.318 Q629.966 250.642 628.461 255.85 Q626.956 261.058 626.956 266.405 Q626.956 271.753 628.461 277.007 Q629.989 282.239 633.067 287.54 L629.364 287.54 Q625.892 282.1 624.155 276.845 Q622.443 271.591 622.443 266.405 Q622.443 261.243 624.155 256.012 Q625.868 250.78 629.364 245.318 L633.067 245.318 Z" fill="#000000" fill-rule="nonzero" fill-opacity="1" /><path clip-path="url(#clip730)" d="M662.882 255.364 L653.507 267.979 L663.368 281.29 L658.345 281.29 L650.799 271.104 L643.253 281.29 L638.229 281.29 L648.299 267.725 L639.086 255.364 L644.109 255.364 L650.984 264.6 L657.859 255.364 L662.882 255.364 Z" fill="#000000" fill-rule="nonzero" fill-opacity="1" /><path clip-path="url(#clip730)" d="M679.618 245.318 Q676.516 250.642 675.012 255.85 Q673.507 261.058 673.507 266.405 Q673.507 271.753 675.012 277.007 Q676.539 282.239 679.618 287.54 L675.914 287.54 Q672.442 282.1 670.706 276.845 Q668.993 271.591 668.993 266.405 Q668.993 261.243 670.706 256.012 Q672.419 250.78 675.914 245.318 L679.618 245.318 Z" fill="#000000" fill-rule="nonzero" fill-opacity="1" /><path clip-path="url(#clip730)" d="M692.095 248.003 L692.095 255.364 L700.868 255.364 L700.868 258.674 L692.095 258.674 L692.095 272.748 Q692.095 275.919 692.951 276.822 Q693.831 277.725 696.493 277.725 L700.868 277.725 L700.868 281.29 L696.493 281.29 Q691.563 281.29 689.688 279.461 Q687.813 277.609 687.813 272.748 L687.813 258.674 L684.688 258.674 L684.688 255.364 L687.813 255.364 L687.813 248.003 L692.095 248.003 Z" fill="#000000" fill-rule="nonzero" fill-opacity="1" /><path clip-path="url(#clip730)" d="M705.799 245.318 L709.502 245.318 Q712.974 250.78 714.687 256.012 Q716.424 261.243 716.424 266.405 Q716.424 271.591 714.687 276.845 Q712.974 282.1 709.502 287.54 L705.799 287.54 Q708.877 282.239 710.382 277.007 Q711.91 271.753 711.91 266.405 Q711.91 261.058 710.382 255.85 Q708.877 250.642 705.799 245.318 Z" fill="#000000" fill-rule="nonzero" fill-opacity="1" /><path clip-path="url(#clip730)" d="M726.053 275.41 L730.937 275.41 L730.937 279.391 L727.141 286.799 L724.155 286.799 L726.053 279.391 L726.053 275.41 Z" fill="#000000" fill-rule="nonzero" fill-opacity="1" /><path clip-path="url(#clip730)" d="M759.224 277.401 L759.224 291.151 L754.942 291.151 L754.942 255.364 L759.224 255.364 L759.224 259.299 Q760.567 256.984 762.604 255.873 Q764.664 254.739 767.511 254.739 Q772.233 254.739 775.173 258.489 Q778.136 262.239 778.136 268.35 Q778.136 274.461 775.173 278.211 Q772.233 281.961 767.511 281.961 Q764.664 281.961 762.604 280.85 Q760.567 279.715 759.224 277.401 M773.715 268.35 Q773.715 263.651 771.77 260.989 Q769.849 258.304 766.47 258.304 Q763.09 258.304 761.145 260.989 Q759.224 263.651 759.224 268.35 Q759.224 273.049 761.145 275.734 Q763.09 278.396 766.47 278.396 Q769.849 278.396 771.77 275.734 Q773.715 273.049 773.715 268.35 Z" fill="#000000" fill-rule="nonzero" fill-opacity="1" /><path clip-path="url(#clip730)" d="M795.428 245.318 Q792.326 250.642 790.821 255.85 Q789.317 261.058 789.317 266.405 Q789.317 271.753 790.821 277.007 Q792.349 282.239 795.428 287.54 L791.724 287.54 Q788.252 282.1 786.516 276.845 Q784.803 271.591 784.803 266.405 Q784.803 261.243 786.516 256.012 Q788.229 250.78 791.724 245.318 L795.428 245.318 Z" fill="#000000" fill-rule="nonzero" fill-opacity="1" /><path clip-path="url(#clip730)" d="M807.904 248.003 L807.904 255.364 L816.678 255.364 L816.678 258.674 L807.904 258.674 L807.904 272.748 Q807.904 275.919 808.761 276.822 Q809.641 277.725 812.303 277.725 L816.678 277.725 L816.678 281.29 L812.303 281.29 Q807.372 281.29 805.497 279.461 Q803.622 277.609 803.622 272.748 L803.622 258.674 L800.497 258.674 L800.497 255.364 L803.622 255.364 L803.622 248.003 L807.904 248.003 Z" fill="#000000" fill-rule="nonzero" fill-opacity="1" /><path clip-path="url(#clip730)" d="M821.608 245.318 L825.312 245.318 Q828.784 250.78 830.497 256.012 Q832.233 261.243 832.233 266.405 Q832.233 271.591 830.497 276.845 Q828.784 282.1 825.312 287.54 L821.608 287.54 Q824.687 282.239 826.191 277.007 Q827.719 271.753 827.719 266.405 Q827.719 261.058 826.191 255.85 Q824.687 250.642 821.608 245.318 Z" fill="#000000" fill-rule="nonzero" fill-opacity="1" /><path clip-path="url(#clip730)" d="M840.103 245.318 L843.807 245.318 Q847.279 250.78 848.992 256.012 Q850.728 261.243 850.728 266.405 Q850.728 271.591 848.992 276.845 Q847.279 282.1 843.807 287.54 L840.103 287.54 Q843.182 282.239 844.687 277.007 Q846.214 271.753 846.214 266.405 Q846.214 261.058 844.687 255.85 Q843.182 250.642 840.103 245.318 Z" fill="#000000" fill-rule="nonzero" fill-opacity="1" /></svg>
